SeanSans-NormalSemibold.ufo
<glyph name="exclam" format="1">
  <advance width="258"/>
  <unicode hex="0021"/>
  <outline>
    <contour>
      <point x="175" y="229" type="line"/>
      <point x="186" y="722" type="line"/>
      <point x="71" y="722" type="line"/>
      <point x="82" y="229" type="line"/>
    </contour>
    <contour>
      <point x="190" y="45" type="curve"/>
      <point x="190" y="81"/>
      <point x="164" y="99"/>
      <point x="128" y="99" type="curve"/>
      <point x="92" y="99"/>
      <point x="68" y="80"/>
      <point x="68" y="45" type="curve"/>
      <point x="186" y="45"/>
      <point x="73" y="45"/>
      <point x="190" y="45" type="curve"/>
      <point x="190" y="8"/>
      <point x="164" y="-8"/>
      <point x="128" y="-8" type="curve"/>
      <point x="91" y="-8"/>
      <point x="68" y="10"/>
      <point x="68" y="45" type="curve"/>
      <point x="186" y="45"/>
      <point x="73" y="45"/>
    </contour>
  </outline>
</glyph>
<glyph name="quotedbl" format="1">
  <advance width="425"/>
  <unicode hex="0022"/>
  <outline>
    <contour>
      <point x="160" y="616" type="line"/>
      <point x="168" y="829" type="line"/>
      <point x="52" y="829" type="line"/>
      <point x="60" y="616" type="line"/>
    </contour>
    <contour>
      <point x="365" y="616" type="line"/>
      <point x="373" y="829" type="line"/>
      <point x="257" y="829" type="line"/>
      <point x="265" y="616" type="line"/>
    </contour>
  </outline>
</glyph>
<glyph name="numbersign" format="1">
  <advance width="708"/>
  <unicode hex="0023"/>
  <outline>
    <contour>
      <point x="36" y="227" type="curve"/>
      <point x="573" y="227" type="curve"/>
      <point x="601" y="308" type="curve"/>
      <point x="64" y="308" type="curve"/>
    </contour>
    <contour>
      <point x="107" y="450" type="curve"/>
      <point x="647" y="450" type="curve"/>
      <point x="673" y="531" type="curve"/>
      <point x="133" y="531" type="curve"/>
    </contour>
    <contour>
      <point x="440" y="39" type="curve"/>
      <point x="666" y="722" type="curve"/>
      <point x="559" y="722" type="curve"/>
      <point x="333" y="39" type="curve"/>
    </contour>
    <contour>
      <point x="158" y="46" type="curve"/>
      <point x="381" y="722" type="curve"/>
      <point x="275" y="722" type="curve"/>
      <point x="55" y="46" type="curve"/>
    </contour>
  </outline>
</glyph>
<glyph name="dollar" format="1">
  <advance width="584"/>
  <unicode hex="0024"/>
  <outline>
    <contour>
      <point x="322" y="-41" type="curve"/>
      <point x="322" y="-10"/>
      <point x="322" y="53"/>
      <point x="322" y="84" type="curve"/>
      <point x="215" y="84"/>
      <point x="322" y="84"/>
      <point x="215" y="84" type="curve"/>
      <point x="215" y="53"/>
      <point x="215" y="-10"/>
      <point x="215" y="-41" type="curve"/>
      <point x="322" y="-41"/>
      <point x="215" y="-41"/>
    </contour>
    <contour>
      <point x="335" y="645" type="curve"/>
      <point x="335" y="676"/>
      <point x="335" y="742"/>
      <point x="335" y="773" type="curve"/>
      <point x="228" y="773"/>
      <point x="335" y="773"/>
      <point x="228" y="773" type="curve"/>
      <point x="228" y="742"/>
      <point x="228" y="676"/>
      <point x="228" y="645" type="curve"/>
      <point x="335" y="645"/>
      <point x="228" y="645"/>
    </contour>
    <contour>
      <point x="43" y="94" type="curve"/>
      <point x="105" y="67"/>
      <point x="179" y="44"/>
      <point x="264" y="44" type="curve"/>
      <point x="418" y="44"/>
      <point x="546" y="90"/>
      <point x="546" y="213" type="curve"/>
      <point x="546" y="324"/>
      <point x="434" y="365"/>
      <point x="315" y="410" type="curve"/>
      <point x="233" y="442"/>
      <point x="156" y="462"/>
      <point x="156" y="528" type="curve"/>
      <point x="156" y="583"/>
      <point x="213" y="606"/>
      <point x="284" y="606" type="curve"/>
      <point x="351" y="606"/>
      <point x="397" y="593"/>
      <point x="460" y="565" type="curve"/>
      <point x="508" y="634"/>
      <point x="460" y="565"/>
      <point x="508" y="634" type="curve"/>
      <point x="434" y="668"/>
      <point x="374" y="686"/>
      <point x="289" y="686" type="curve"/>
      <point x="154" y="686"/>
      <point x="49" y="638"/>
      <point x="49" y="528" type="curve"/>
      <point x="49" y="422"/>
      <point x="139" y="380"/>
      <point x="253" y="337" type="curve"/>
      <point x="342" y="304"/>
      <point x="439" y="283"/>
      <point x="439" y="210" type="curve"/>
      <point x="439" y="147"/>
      <point x="363" y="124"/>
      <point x="274" y="124" type="curve"/>
      <point x="207" y="124"/>
      <point x="149" y="146"/>
      <point x="94" y="167" type="curve"/>
      <point x="43" y="94"/>
      <point x="94" y="168"/>
    </contour>
  </outline>
</glyph>
<glyph name="ampersand" format="1">
  <advance width="732"/>
  <unicode hex="0026"/>
  <outline>
    <contour>
      <point x="706" y="46" type="line"/>
      <point x="598" y="146"/>
      <point x="479" y="264"/>
      <point x="367" y="368" type="curve"/>
      <point x="306" y="428"/>
      <point x="227" y="470"/>
      <point x="227" y="558" type="curve"/>
      <point x="227" y="610"/>
      <point x="258" y="646"/>
      <point x="309" y="646" type="curve"/>
      <point x="366" y="646"/>
      <point x="405" y="616"/>
      <point x="405" y="560" type="curve"/>
      <point x="404" y="479"/>
      <point x="337" y="447"/>
      <point x="263" y="409" type="curve"/>
      <point x="155" y="353"/>
      <point x="52" y="311"/>
      <point x="52" y="193" type="curve"/>
      <point x="52" y="61"/>
      <point x="162" y="-5"/>
      <point x="303" y="-5" type="curve"/>
      <point x="500" y="-5"/>
      <point x="617" y="124"/>
      <point x="685" y="314" type="curve"/>
      <point x="593" y="334"/>
      <point x="685" y="314"/>
      <point x="593" y="334" type="curve"/>
      <point x="539" y="185"/>
      <point x="459" y="76"/>
      <point x="308" y="76" type="curve"/>
      <point x="223" y="76"/>
      <point x="159" y="113"/>
      <point x="159" y="193" type="curve"/>
      <point x="159" y="277"/>
      <point x="231" y="304"/>
      <point x="307" y="344" type="curve"/>
      <point x="412" y="399"/>
      <point x="510" y="445"/>
      <point x="511" y="560" type="curve"/>
      <point x="511" y="669"/>
      <point x="427" y="727"/>
      <point x="314" y="727" type="curve"/>
      <point x="202" y="727"/>
      <point x="124" y="665"/>
      <point x="124" y="558" type="curve"/>
      <point x="124" y="449"/>
      <point x="214" y="393"/>
      <point x="293" y="320" type="curve"/>
      <point x="402" y="216"/>
      <point x="537" y="87"/>
      <point x="642" y="-13" type="curve"/>
    </contour>
  </outline>
</glyph>
<glyph name="parenleft" format="1">
  <advance width="382"/>
  <unicode hex="0028"/>
  <outline>
    <contour>
      <point x="380" y="-215" type="curve"/>
      <point x="218" y="-57"/>
      <point x="147" y="98"/>
      <point x="147" y="326" type="curve"/>
      <point x="147" y="554"/>
      <point x="218" y="709"/>
      <point x="379" y="870" type="curve"/>
      <point x="315" y="922"/>
      <point x="379" y="870"/>
      <point x="315" y="922" type="curve"/>
      <point x="134" y="746"/>
      <point x="42" y="581"/>
      <point x="42" y="326" type="curve"/>
      <point x="42" y="70"/>
      <point x="134" y="-95"/>
      <point x="316" y="-272" type="curve"/>
      <point x="380" y="-215"/>
      <point x="316" y="-272"/>
    </contour>
  </outline>
</glyph>
<glyph name="parenright" format="1">
  <advance width="394"/>
  <unicode hex="0029"/>
  <outline>
    <contour>
      <point x="63" y="-286" type="curve"/>
      <point x="248" y="-101"/>
      <point x="352" y="64"/>
      <point x="352" y="328" type="curve"/>
      <point x="352" y="586"/>
      <point x="255" y="750"/>
      <point x="67" y="924" type="curve"/>
      <point x="4" y="867"/>
      <point x="67" y="924"/>
      <point x="4" y="867" type="curve"/>
      <point x="170" y="708"/>
      <point x="246" y="555"/>
      <point x="246" y="325" type="curve"/>
      <point x="246" y="90"/>
      <point x="161" y="-64"/>
      <point x="0" y="-233" type="curve"/>
      <point x="63" y="-286"/>
      <point x="0" y="-233"/>
    </contour>
  </outline>
</glyph>
<glyph name="asterisk" format="1">
  <advance width="586"/>
  <unicode hex="002A"/>
  <outline>
    <contour>
      <point x="327" y="588" type="line"/>
      <point x="333" y="801" type="line"/>
      <point x="249" y="801" type="line"/>
      <point x="255" y="588" type="line"/>
    </contour>
    <contour>
      <point x="331" y="535" type="line"/>
      <point x="534" y="601" type="line"/>
      <point x="506" y="680" type="line"/>
      <point x="306" y="604" type="line"/>
    </contour>
    <contour>
      <point x="282" y="515" type="line"/>
      <point x="412" y="345" type="line"/>
      <point x="476" y="399" type="line"/>
      <point x="338" y="562" type="line"/>
    </contour>
    <contour>
      <point x="250" y="560" type="line"/>
      <point x="112" y="397" type="line"/>
      <point x="177" y="344" type="line"/>
      <point x="306" y="514" type="line"/>
    </contour>
    <contour>
      <point x="278" y="601" type="line"/>
      <point x="79" y="677" type="line"/>
      <point x="50" y="598" type="line"/>
      <point x="253" y="533" type="line"/>
    </contour>
  </outline>
</glyph>
<glyph name="plus" format="1">
  <advance width="639"/>
  <unicode hex="002B"/>
  <outline>
    <contour>
      <point x="38" y="268" type="curve"/>
      <point x="601" y="268" type="line"/>
      <point x="601" y="357"/>
      <point x="601" y="268"/>
      <point x="601" y="357" type="curve"/>
      <point x="38" y="357" type="line"/>
      <point x="38" y="268"/>
      <point x="38" y="357"/>
    </contour>
    <contour>
      <point x="370" y="30" type="curve"/>
      <point x="370" y="585" type="line"/>
      <point x="263" y="585"/>
      <point x="376" y="585"/>
      <point x="270" y="585" type="curve"/>
      <point x="270" y="30" type="line"/>
      <point x="376" y="30"/>
      <point x="263" y="30"/>
    </contour>
  </outline>
</glyph>
<glyph name="comma" format="1">
  <advance width="202"/>
  <unicode hex="002C"/>
  <outline>
    <contour>
      <point x="19" y="-118" type="line"/>
      <point x="100" y="-109"/>
      <point x="158" y="-51"/>
      <point x="158" y="37" type="curve"/>
      <point x="158" y="99"/>
      <point x="131" y="141"/>
      <point x="87" y="141" type="curve"/>
      <point x="51" y="141"/>
      <point x="26" y="123"/>
      <point x="26" y="87" type="curve"/>
      <point x="26" y="54"/>
      <point x="48" y="34"/>
      <point x="83" y="32" type="curve"/>
      <point x="83" y="-1"/>
      <point x="71" y="-44"/>
      <point x="13" y="-60" type="curve"/>
    </contour>
  </outline>
</glyph>
<glyph name="period" format="1">
  <advance width="232"/>
  <unicode hex="002E"/>
  <outline>
    <contour>
      <point x="177" y="45" type="curve"/>
      <point x="177" y="81"/>
      <point x="151" y="99"/>
      <point x="115" y="99" type="curve"/>
      <point x="79" y="99"/>
      <point x="55" y="80"/>
      <point x="55" y="45" type="curve"/>
      <point x="173" y="45"/>
      <point x="59" y="45"/>
      <point x="177" y="45" type="curve"/>
      <point x="177" y="8"/>
      <point x="151" y="-8"/>
      <point x="115" y="-8" type="curve"/>
      <point x="78" y="-8"/>
      <point x="55" y="10"/>
      <point x="55" y="45" type="curve"/>
      <point x="173" y="45"/>
      <point x="59" y="45"/>
    </contour>
  </outline>
</glyph>
<glyph name="slash" format="1">
  <advance width="595"/>
  <unicode hex="002F"/>
  <outline>
    <contour>
      <point x="129" y="-31" type="curve"/>
      <point x="277" y="247"/>
      <point x="425" y="525"/>
      <point x="573" y="802" type="curve"/>
      <point x="466" y="802"/>
      <point x="573" y="802"/>
      <point x="466" y="802" type="curve"/>
      <point x="318" y="525"/>
      <point x="171" y="247"/>
      <point x="22" y="-31" type="curve"/>
      <point x="129" y="-31"/>
      <point x="22" y="-31"/>
    </contour>
  </outline>
</glyph>
<glyph name="zero" format="1">
  <advance width="751"/>
  <unicode hex="0030"/>
  <outline>
    <contour>
      <point x="159" y="360" type="curve"/>
      <point x="159" y="527"/>
      <point x="225" y="642"/>
      <point x="373" y="642" type="curve"/>
      <point x="522" y="642"/>
      <point x="592" y="529"/>
      <point x="592" y="363" type="curve"/>
      <point x="592" y="196"/>
      <point x="526" y="81"/>
      <point x="382" y="81" type="curve"/>
      <point x="231" y="81"/>
      <point x="159" y="193"/>
      <point x="159" y="360" type="curve"/>
      <point x="53" y="360"/>
      <point x="158" y="360"/>
      <point x="52" y="360" type="curve"/>
      <point x="52" y="137"/>
      <point x="164" y="-5"/>
      <point x="377" y="-5" type="curve"/>
      <point x="589" y="-5"/>
      <point x="699" y="139"/>
      <point x="699" y="363" type="curve"/>
      <point x="699" y="584"/>
      <point x="592" y="727"/>
      <point x="383" y="727" type="curve"/>
      <point x="167" y="727"/>
      <point x="52" y="585"/>
      <point x="52" y="360" type="curve"/>
      <point x="158" y="360"/>
      <point x="53" y="360"/>
    </contour>
  </outline>
</glyph>
<glyph name="one" format="1">
  <advance width="395"/>
  <unicode hex="0031"/>
  <outline>
    <contour>
      <point x="68" y="489" type="curve"/>
      <point x="296" y="668"/>
      <point x="68" y="489"/>
      <point x="296" y="668" type="curve"/>
      <point x="217" y="722"/>
      <point x="296" y="668"/>
      <point x="217" y="722" type="curve"/>
      <point x="13" y="563"/>
      <point x="217" y="722"/>
      <point x="13" y="563" type="curve"/>
      <point x="68" y="489"/>
      <point x="13" y="563"/>
    </contour>
    <contour>
      <point x="322" y="0" type="curve"/>
      <point x="322" y="241"/>
      <point x="322" y="481"/>
      <point x="322" y="722" type="curve"/>
      <point x="217" y="722"/>
      <point x="322" y="722"/>
      <point x="217" y="722" type="curve"/>
      <point x="217" y="481"/>
      <point x="217" y="241"/>
      <point x="217" y="0" type="curve"/>
      <point x="322" y="0"/>
      <point x="217" y="0"/>
    </contour>
  </outline>
</glyph>
<glyph name="two" format="1">
  <advance width="603"/>
  <unicode hex="0032"/>
  <outline>
    <contour>
      <point x="39" y="0" type="curve"/>
      <point x="239" y="0"/>
      <point x="407" y="0"/>
      <point x="559" y="0" type="curve"/>
      <point x="559" y="81"/>
      <point x="559" y="0"/>
      <point x="559" y="81" type="curve"/>
      <point x="390" y="81"/>
      <point x="208" y="81"/>
      <point x="39" y="81" type="curve"/>
      <point x="39" y="0"/>
      <point x="39" y="81"/>
    </contour>
    <contour>
      <point x="121" y="529" type="curve"/>
      <point x="172" y="598"/>
      <point x="216" y="642"/>
      <point x="295" y="642" type="curve"/>
      <point x="380" y="642"/>
      <point x="432" y="597"/>
      <point x="432" y="510" type="curve"/>
      <point x="432" y="403"/>
      <point x="354" y="335"/>
      <point x="270" y="270" type="curve"/>
      <point x="193" y="206"/>
      <point x="117" y="145"/>
      <point x="39" y="81" type="curve"/>
      <point x="43" y="0"/>
      <point x="39" y="81"/>
      <point x="43" y="0" type="curve"/>
      <point x="174" y="66"/>
      <point x="255" y="138"/>
      <point x="338" y="207" type="curve"/>
      <point x="445" y="290"/>
      <point x="532" y="370"/>
      <point x="532" y="514" type="curve"/>
      <point x="532" y="655"/>
      <point x="443" y="727"/>
      <point x="300" y="727" type="curve"/>
      <point x="184" y="727"/>
      <point x="103" y="673"/>
      <point x="48" y="575" type="curve"/>
      <point x="121" y="529"/>
      <point x="48" y="575"/>
    </contour>
  </outline>
</glyph>
<glyph name="three" format="1">
  <advance width="569"/>
  <unicode hex="0033"/>
  <outline>
    <contour>
      <point x="40" y="56" type="curve"/>
      <point x="97" y="19"/>
      <point x="162" y="-5"/>
      <point x="245" y="-5" type="curve"/>
      <point x="407" y="-5"/>
      <point x="520" y="54"/>
      <point x="520" y="210" type="curve"/>
      <point x="520" y="349"/>
      <point x="369" y="406"/>
      <point x="159" y="406" type="curve"/>
      <point x="159" y="339"/>
      <point x="159" y="404"/>
      <point x="159" y="337" type="curve"/>
      <point x="293" y="337"/>
      <point x="418" y="300"/>
      <point x="418" y="207" type="curve"/>
      <point x="418" y="110"/>
      <point x="338" y="81"/>
      <point x="249" y="81" type="curve"/>
      <point x="196" y="81"/>
      <point x="146" y="95"/>
      <point x="91" y="123" type="curve"/>
      <point x="40" y="56"/>
      <point x="91" y="123"/>
    </contour>
    <contour>
      <point x="102" y="581" type="curve"/>
      <point x="133" y="611"/>
      <point x="186" y="642"/>
      <point x="242" y="642" type="curve"/>
      <point x="326" y="642"/>
      <point x="383" y="613"/>
      <point x="383" y="534" type="curve"/>
      <point x="383" y="451"/>
      <point x="278" y="417"/>
      <point x="159" y="417" type="curve"/>
      <point x="159" y="350"/>
      <point x="159" y="415"/>
      <point x="159" y="348" type="curve"/>
      <point x="340" y="348"/>
      <point x="485" y="403"/>
      <point x="485" y="537" type="curve"/>
      <point x="485" y="669"/>
      <point x="388" y="727"/>
      <point x="251" y="727" type="curve"/>
      <point x="162" y="727"/>
      <point x="83" y="686"/>
      <point x="42" y="639" type="curve"/>
      <point x="102" y="581"/>
      <point x="42" y="639"/>
    </contour>
  </outline>
</glyph>
<glyph name="four" format="1">
  <advance width="629"/>
  <unicode hex="0034"/>
  <outline>
    <contour>
      <point x="58" y="251" type="line"/>
      <point x="421" y="683" type="line"/>
      <point x="336" y="705" type="line"/>
      <point x="15" y="328" type="line"/>
    </contour>
    <contour>
      <point x="594" y="328" type="line"/>
      <point x="15" y="328" type="line"/>
      <point x="16" y="239" type="line"/>
      <point x="594" y="239" type="line"/>
    </contour>
    <contour>
      <point x="443" y="0" type="line"/>
      <point x="443" y="705" type="line"/>
      <point x="337" y="705" type="line"/>
      <point x="337" y="0" type="line"/>
    </contour>
  </outline>
</glyph>
<glyph name="five" format="1">
  <advance width="564"/>
  <unicode hex="0035"/>
  <outline>
    <contour>
      <point x="79" y="722" type="curve"/>
      <point x="79" y="624"/>
      <point x="79" y="514"/>
      <point x="79" y="384" type="curve"/>
      <point x="181" y="357"/>
      <point x="79" y="384"/>
      <point x="181" y="357" type="curve"/>
      <point x="181" y="448"/>
      <point x="181" y="550"/>
      <point x="181" y="641" type="curve"/>
      <point x="79" y="722"/>
      <point x="181" y="641"/>
    </contour>
    <contour>
      <point x="181" y="357" type="curve"/>
      <point x="200" y="370"/>
      <point x="241" y="381"/>
      <point x="271" y="381" type="curve"/>
      <point x="364" y="381"/>
      <point x="415" y="326"/>
      <point x="415" y="235" type="curve"/>
      <point x="415" y="142"/>
      <point x="347" y="80"/>
      <point x="252" y="80" type="curve"/>
      <point x="194" y="80"/>
      <point x="150" y="91"/>
      <point x="94" y="117" type="curve"/>
      <point x="44" y="43"/>
      <point x="94" y="117"/>
      <point x="44" y="43" type="curve"/>
      <point x="108" y="12"/>
      <point x="175" y="-5"/>
      <point x="252" y="-5" type="curve"/>
      <point x="404" y="-5"/>
      <point x="521" y="86"/>
      <point x="521" y="236" type="curve"/>
      <point x="521" y="378"/>
      <point x="426" y="467"/>
      <point x="280" y="467" type="curve"/>
      <point x="216" y="467"/>
      <point x="143" y="446"/>
      <point x="91" y="386" type="curve"/>
      <point x="182" y="360"/>
      <point x="89" y="383"/>
    </contour>
    <contour>
      <point x="491" y="722" type="curve"/>
      <point x="350" y="722"/>
      <point x="211" y="722"/>
      <point x="79" y="722" type="curve"/>
      <point x="181" y="641"/>
      <point x="79" y="722"/>
      <point x="181" y="641" type="curve"/>
      <point x="279" y="641"/>
      <point x="383" y="641"/>
      <point x="491" y="641" type="curve"/>
      <point x="491" y="722"/>
      <point x="491" y="641"/>
    </contour>
  </outline>
</glyph>
<glyph name="six" format="1">
  <advance width="623"/>
  <unicode hex="0036"/>
  <outline>
    <contour>
      <point x="135" y="221" type="curve"/>
      <point x="172" y="305"/>
      <point x="235" y="352"/>
      <point x="327" y="352" type="curve"/>
      <point x="417" y="352"/>
      <point x="472" y="307"/>
      <point x="472" y="218" type="curve"/>
      <point x="472" y="133"/>
      <point x="416" y="86"/>
      <point x="329" y="86" type="curve"/>
      <point x="218" y="86"/>
      <point x="150" y="146"/>
      <point x="150" y="254" type="curve"/>
      <point x="150" y="486"/>
      <point x="325" y="587"/>
      <point x="561" y="651" type="curve"/>
      <point x="535" y="730"/>
      <point x="561" y="651"/>
      <point x="535" y="730" type="curve"/>
      <point x="265" y="662"/>
      <point x="48" y="532"/>
      <point x="48" y="250" type="curve"/>
      <point x="48" y="84"/>
      <point x="156" y="-10"/>
      <point x="325" y="-10" type="curve"/>
      <point x="479" y="-10"/>
      <point x="579" y="70"/>
      <point x="579" y="218" type="curve"/>
      <point x="579" y="363"/>
      <point x="483" y="437"/>
      <point x="339" y="437" type="curve"/>
      <point x="205" y="437"/>
      <point x="115" y="350"/>
      <point x="71" y="254" type="curve"/>
      <point x="134" y="221"/>
      <point x="71" y="254"/>
    </contour>
  </outline>
</glyph>
<glyph name="seven" format="1">
  <advance width="562"/>
  <unicode hex="0037"/>
  <outline>
    <contour>
      <point x="35" y="641" type="curve"/>
      <point x="546" y="641" type="curve"/>
      <point x="546" y="722" type="curve"/>
      <point x="35" y="722" type="curve"/>
    </contour>
    <contour>
      <point x="480" y="722" type="curve"/>
      <point x="56" y="0" type="curve"/>
      <point x="176" y="0" type="curve"/>
      <point x="546" y="641" type="curve"/>
    </contour>
  </outline>
</glyph>
<glyph name="eight" format="1">
  <advance width="611"/>
  <unicode hex="0038"/>
  <outline>
    <contour>
      <point x="72" y="545" type="curve"/>
      <point x="72" y="428"/>
      <point x="164" y="398"/>
      <point x="275" y="349" type="curve"/>
      <point x="371" y="306"/>
      <point x="453" y="282"/>
      <point x="453" y="186" type="curve"/>
      <point x="453" y="109"/>
      <point x="393" y="79"/>
      <point x="306" y="79" type="curve"/>
      <point x="217" y="79"/>
      <point x="158" y="109"/>
      <point x="158" y="186" type="curve"/>
      <point x="158" y="284"/>
      <point x="242" y="305"/>
      <point x="340" y="349" type="curve"/>
      <point x="447" y="399"/>
      <point x="539" y="428"/>
      <point x="539" y="543" type="curve"/>
      <point x="539" y="674"/>
      <point x="447" y="727"/>
      <point x="306" y="727" type="curve"/>
      <point x="167" y="727"/>
      <point x="72" y="673"/>
      <point x="72" y="545" type="curve"/>
      <point x="177" y="545"/>
      <point x="72" y="545"/>
      <point x="177" y="545" type="curve"/>
      <point x="177" y="612"/>
      <point x="227" y="643"/>
      <point x="301" y="643" type="curve"/>
      <point x="382" y="643"/>
      <point x="434" y="615"/>
      <point x="434" y="543" type="curve"/>
      <point x="434" y="460"/>
      <point x="358" y="443"/>
      <point x="274" y="406" type="curve"/>
      <point x="151" y="351"/>
      <point x="52" y="316"/>
      <point x="52" y="186" type="curve"/>
      <point x="52" y="50"/>
      <point x="153" y="-5"/>
      <point x="300" y="-5" type="curve"/>
      <point x="452" y="-5"/>
      <point x="559" y="47"/>
      <point x="559" y="186" type="curve"/>
      <point x="559" y="314"/>
      <point x="460" y="352"/>
      <point x="340" y="406" type="curve"/>
      <point x="255" y="446"/>
      <point x="177" y="461"/>
      <point x="177" y="545" type="curve"/>
      <point x="72" y="545"/>
      <point x="177" y="545"/>
    </contour>
  </outline>
</glyph>
<glyph name="nine" format="1">
  <advance width="623"/>
  <unicode hex="0039"/>
  <outline>
    <contour>
      <point x="491" y="489" type="curve"/>
      <point x="451" y="408"/>
      <point x="394" y="370"/>
      <point x="303" y="370" type="curve"/>
      <point x="209" y="370"/>
      <point x="148" y="417"/>
      <point x="148" y="508" type="curve"/>
      <point x="148" y="592"/>
      <point x="206" y="636"/>
      <point x="293" y="636" type="curve"/>
      <point x="404" y="636"/>
      <point x="472" y="577"/>
      <point x="472" y="468" type="curve"/>
      <point x="472" y="237"/>
      <point x="304" y="133"/>
      <point x="66" y="72" type="curve"/>
      <point x="97" y="-12"/>
      <point x="66" y="72"/>
      <point x="96" y="-12" type="curve"/>
      <point x="369" y="50"/>
      <point x="574" y="190"/>
      <point x="574" y="472" type="curve"/>
      <point x="574" y="638"/>
      <point x="467" y="732"/>
      <point x="297" y="732" type="curve"/>
      <point x="143" y="732"/>
      <point x="44" y="652"/>
      <point x="44" y="504" type="curve"/>
      <point x="44" y="359"/>
      <point x="143" y="285"/>
      <point x="293" y="285" type="curve"/>
      <point x="422" y="285"/>
      <point x="498" y="357"/>
      <point x="543" y="464" type="curve"/>
      <point x="491" y="489"/>
      <point x="543" y="464"/>
    </contour>
  </outline>
</glyph>
<glyph name="colon" format="1">
  <advance width="248"/>
  <unicode hex="003A"/>
  <outline>
    <contour>
      <point x="184" y="390" type="curve"/>
      <point x="184" y="426"/>
      <point x="157" y="444"/>
      <point x="121" y="444" type="curve"/>
      <point x="85" y="444"/>
      <point x="61" y="424"/>
      <point x="61" y="390" type="curve"/>
      <point x="179" y="390"/>
      <point x="66" y="390"/>
      <point x="184" y="390" type="curve"/>
      <point x="184" y="353"/>
      <point x="157" y="336"/>
      <point x="121" y="336" type="curve"/>
      <point x="85" y="336"/>
      <point x="61" y="354"/>
      <point x="61" y="390" type="curve"/>
      <point x="179" y="390"/>
      <point x="66" y="390"/>
    </contour>
    <contour>
      <point x="183" y="47" type="curve"/>
      <point x="183" y="83"/>
      <point x="157" y="101"/>
      <point x="121" y="101" type="curve"/>
      <point x="85" y="101"/>
      <point x="61" y="81"/>
      <point x="61" y="47" type="curve"/>
      <point x="179" y="47"/>
      <point x="65" y="47"/>
      <point x="183" y="47" type="curve"/>
      <point x="183" y="10"/>
      <point x="157" y="-7"/>
      <point x="121" y="-7" type="curve"/>
      <point x="84" y="-7"/>
      <point x="61" y="11"/>
      <point x="61" y="47" type="curve"/>
      <point x="179" y="47"/>
      <point x="65" y="47"/>
    </contour>
  </outline>
</glyph>
<glyph name="semicolon" format="1">
  <advance width="231"/>
  <unicode hex="003B"/>
  <outline>
    <contour>
      <point x="33" y="-155" type="line"/>
      <point x="117" y="-146"/>
      <point x="177" y="-88"/>
      <point x="177" y="0" type="curve"/>
      <point x="177" y="62"/>
      <point x="149" y="105"/>
      <point x="103" y="105" type="curve"/>
      <point x="66" y="105"/>
      <point x="40" y="86"/>
      <point x="40" y="51" type="curve"/>
      <point x="40" y="18"/>
      <point x="63" y="-2"/>
      <point x="100" y="-4" type="curve"/>
      <point x="99" y="-37"/>
      <point x="88" y="-81"/>
      <point x="28" y="-97" type="curve"/>
    </contour>
    <contour>
      <point x="163" y="394" type="curve"/>
      <point x="163" y="430"/>
      <point x="137" y="448"/>
      <point x="101" y="448" type="curve"/>
      <point x="65" y="448"/>
      <point x="41" y="429"/>
      <point x="41" y="394" type="curve"/>
      <point x="159" y="394"/>
      <point x="45" y="394"/>
      <point x="163" y="394" type="curve"/>
      <point x="163" y="357"/>
      <point x="137" y="341"/>
      <point x="101" y="341" type="curve"/>
      <point x="64" y="341"/>
      <point x="41" y="359"/>
      <point x="41" y="394" type="curve"/>
      <point x="159" y="394"/>
      <point x="45" y="394"/>
    </contour>
  </outline>
</glyph>
<glyph name="equal" format="1">
  <advance width="761"/>
  <unicode hex="003D"/>
  <outline>
    <contour>
      <point x="57" y="175" type="curve"/>
      <point x="276" y="175"/>
      <point x="494" y="175"/>
      <point x="713" y="175" type="curve"/>
      <point x="713" y="260"/>
      <point x="713" y="175"/>
      <point x="713" y="260" type="curve"/>
      <point x="494" y="260"/>
      <point x="276" y="260"/>
      <point x="57" y="260" type="curve"/>
      <point x="57" y="175"/>
      <point x="57" y="260"/>
    </contour>
    <contour>
      <point x="57" y="397" type="curve"/>
      <point x="276" y="397"/>
      <point x="494" y="397"/>
      <point x="713" y="397" type="curve"/>
      <point x="713" y="482"/>
      <point x="713" y="397"/>
      <point x="713" y="482" type="curve"/>
      <point x="494" y="482"/>
      <point x="276" y="482"/>
      <point x="57" y="482" type="curve"/>
      <point x="57" y="397"/>
      <point x="57" y="482"/>
    </contour>
  </outline>
</glyph>
<glyph name="greater" format="1">
  <advance width="725"/>
  <unicode hex="003E"/>
  <outline>
    <contour>
      <point x="59" y="-9" type="curve"/>
      <point x="270" y="81"/>
      <point x="482" y="171"/>
      <point x="694" y="261" type="curve"/>
      <point x="694" y="351"/>
      <point x="694" y="261"/>
      <point x="694" y="351" type="curve"/>
      <point x="482" y="261"/>
      <point x="270" y="171"/>
      <point x="59" y="81" type="curve"/>
      <point x="59" y="-9"/>
      <point x="59" y="81"/>
    </contour>
    <contour>
      <point x="48" y="525" type="curve"/>
      <point x="263" y="437"/>
      <point x="479" y="349"/>
      <point x="694" y="261" type="curve"/>
      <point x="694" y="351"/>
      <point x="694" y="261"/>
      <point x="694" y="351" type="curve"/>
      <point x="479" y="439"/>
      <point x="263" y="527"/>
      <point x="48" y="615" type="curve"/>
      <point x="48" y="525"/>
      <point x="48" y="615"/>
    </contour>
  </outline>
</glyph>
<glyph name="question" format="1">
  <advance width="538"/>
  <unicode hex="003F"/>
  <outline>
    <contour>
      <point x="195" y="365" type="curve"/>
      <point x="195" y="328"/>
      <point x="195" y="258"/>
      <point x="195" y="221" type="curve"/>
      <point x="298" y="221"/>
      <point x="195" y="221"/>
      <point x="298" y="221" type="curve"/>
      <point x="298" y="258"/>
      <point x="298" y="328"/>
      <point x="298" y="365" type="curve"/>
      <point x="195" y="365"/>
      <point x="298" y="365"/>
    </contour>
    <contour>
      <point x="100" y="589" type="line"/>
      <point x="135" y="625"/>
      <point x="185" y="654"/>
      <point x="247" y="654" type="curve"/>
      <point x="335" y="654"/>
      <point x="396" y="606"/>
      <point x="396" y="519" type="curve"/>
      <point x="396" y="420"/>
      <point x="318" y="365"/>
      <point x="206" y="365" type="curve"/>
      <point x="206" y="333"/>
      <point x="206" y="317"/>
      <point x="206" y="285" type="curve"/>
      <point x="376" y="285"/>
      <point x="498" y="368"/>
      <point x="498" y="519" type="curve"/>
      <point x="498" y="660"/>
      <point x="395" y="739"/>
      <point x="252" y="739" type="curve"/>
      <point x="164" y="739"/>
      <point x="98" y="708"/>
      <point x="44" y="653" type="curve"/>
    </contour>
    <contour>
      <point x="308" y="29" type="curve"/>
      <point x="308" y="65"/>
      <point x="282" y="82"/>
      <point x="247" y="82" type="curve"/>
      <point x="211" y="82"/>
      <point x="187" y="63"/>
      <point x="187" y="29" type="curve"/>
      <point x="308" y="29"/>
      <point x="187" y="29"/>
      <point x="308" y="29" type="curve"/>
      <point x="308" y="-7"/>
      <point x="282" y="-23"/>
      <point x="246" y="-23" type="curve"/>
      <point x="210" y="-23"/>
      <point x="187" y="-6"/>
      <point x="187" y="29" type="curve"/>
      <point x="308" y="29"/>
      <point x="187" y="29"/>
    </contour>
  </outline>
</glyph>
<glyph name="at" format="1">
  <advance width="884"/>
  <unicode hex="0040"/>
  <outline>
    <contour>
      <point x="606" y="-30" type="curve"/>
      <point x="553" y="-54"/>
      <point x="514" y="-62"/>
      <point x="457" y="-62" type="curve"/>
      <point x="269" y="-62"/>
      <point x="145" y="30"/>
      <point x="145" y="211" type="curve"/>
      <point x="145" y="388"/>
      <point x="267" y="475"/>
      <point x="450" y="475" type="curve"/>
      <point x="624" y="475"/>
      <point x="736" y="384"/>
      <point x="736" y="215" type="curve"/>
      <point x="736" y="155"/>
      <point x="729" y="105"/>
      <point x="687" y="105" type="curve"/>
      <point x="642" y="105"/>
      <point x="630" y="153"/>
      <point x="630" y="216" type="curve"/>
      <point x="630" y="333"/>
      <point x="558" y="403"/>
      <point x="441" y="403" type="curve"/>
      <point x="312" y="403"/>
      <point x="238" y="337"/>
      <point x="238" y="213" type="curve"/>
      <point x="238" y="89"/>
      <point x="306" y="16"/>
      <point x="430" y="16" type="curve"/>
      <point x="539" y="16"/>
      <point x="594" y="86"/>
      <point x="614" y="199" type="curve"/>
      <point x="547" y="215"/>
      <point x="614" y="199"/>
      <point x="547" y="215" type="curve"/>
      <point x="529" y="148"/>
      <point x="508" y="97"/>
      <point x="443" y="97" type="curve"/>
      <point x="373" y="97"/>
      <point x="337" y="143"/>
      <point x="337" y="217" type="curve"/>
      <point x="337" y="283"/>
      <point x="370" y="321"/>
      <point x="433" y="321" type="curve"/>
      <point x="501" y="321"/>
      <point x="533" y="280"/>
      <point x="533" y="212" type="curve"/>
      <point x="533" y="104"/>
      <point x="576" y="28"/>
      <point x="678" y="28" type="curve"/>
      <point x="785" y="28"/>
      <point x="833" y="105"/>
      <point x="833" y="219" type="curve"/>
      <point x="833" y="442"/>
      <point x="685" y="560"/>
      <point x="454" y="560" type="curve"/>
      <point x="207" y="560"/>
      <point x="46" y="443"/>
      <point x="46" y="207" type="curve"/>
      <point x="46" y="-27"/>
      <point x="207" y="-143"/>
      <point x="452" y="-143" type="curve"/>
      <point x="530" y="-143"/>
      <point x="585" y="-130"/>
      <point x="645" y="-99" type="curve"/>
      <point x="606" y="-30"/>
      <point x="645" y="-99"/>
    </contour>
  </outline>
</glyph>
<glyph name="B" format="1">
  <advance width="656"/>
  <unicode hex="0042"/>
  <outline>
    <contour>
      <point x="132" y="641" type="curve"/>
      <point x="204" y="641"/>
      <point x="269" y="641"/>
      <point x="342" y="641" type="curve"/>
      <point x="411" y="641"/>
      <point x="457" y="606"/>
      <point x="457" y="540" type="curve"/>
      <point x="457" y="473"/>
      <point x="397" y="446"/>
      <point x="326" y="446" type="curve"/>
      <point x="259" y="446"/>
      <point x="199" y="446"/>
      <point x="132" y="446" type="curve"/>
      <point x="132" y="388"/>
      <point x="132" y="423"/>
      <point x="132" y="365" type="curve"/>
      <point x="183" y="365"/>
      <point x="229" y="365"/>
      <point x="281" y="365" type="curve"/>
      <point x="406" y="365"/>
      <point x="563" y="403"/>
      <point x="563" y="538" type="curve"/>
      <point x="563" y="661"/>
      <point x="475" y="722"/>
      <point x="345" y="722" type="curve"/>
      <point x="271" y="722"/>
      <point x="205" y="722"/>
      <point x="132" y="722" type="curve"/>
      <point x="132" y="664"/>
      <point x="132" y="699"/>
    </contour>
    <contour>
      <point x="198" y="0" type="curve"/>
      <point x="198" y="241"/>
      <point x="198" y="481"/>
      <point x="198" y="722" type="curve"/>
      <point x="87" y="722"/>
      <point x="198" y="722"/>
      <point x="87" y="722" type="curve"/>
      <point x="87" y="481"/>
      <point x="87" y="241"/>
      <point x="87" y="0" type="curve"/>
      <point x="198" y="0"/>
      <point x="87" y="0"/>
    </contour>
    <contour>
      <point x="132" y="365" type="curve"/>
      <point x="199" y="365"/>
      <point x="259" y="365"/>
      <point x="326" y="365" type="curve"/>
      <point x="432" y="365"/>
      <point x="506" y="319"/>
      <point x="506" y="219" type="curve"/>
      <point x="506" y="126"/>
      <point x="442" y="81"/>
      <point x="343" y="81" type="curve"/>
      <point x="269" y="81"/>
      <point x="204" y="81"/>
      <point x="132" y="81" type="curve"/>
      <point x="132" y="23"/>
      <point x="132" y="58"/>
      <point x="132" y="0" type="curve"/>
      <point x="206" y="0"/>
      <point x="271" y="0"/>
      <point x="346" y="0" type="curve"/>
      <point x="505" y="0"/>
      <point x="612" y="69"/>
      <point x="612" y="218" type="curve"/>
      <point x="612" y="388"/>
      <point x="442" y="446"/>
      <point x="281" y="446" type="curve"/>
      <point x="229" y="446"/>
      <point x="183" y="446"/>
      <point x="132" y="446" type="curve"/>
      <point x="132" y="388"/>
      <point x="132" y="423"/>
    </contour>
  </outline>
</glyph>
<glyph name="C" format="1">
  <advance width="710"/>
  <unicode hex="0043"/>
  <outline>
    <contour>
      <point x="683" y="654" type="curve"/>
      <point x="606" y="696"/>
      <point x="521" y="727"/>
      <point x="425" y="727" type="curve"/>
      <point x="188" y="727"/>
      <point x="49" y="586"/>
      <point x="49" y="344" type="curve"/>
      <point x="49" y="122"/>
      <point x="179" y="-5"/>
      <point x="402" y="-5" type="curve"/>
      <point x="527" y="-5"/>
      <point x="606" y="27"/>
      <point x="694" y="94" type="curve"/>
      <point x="643" y="160"/>
      <point x="693" y="94"/>
      <point x="642" y="160" type="curve"/>
      <point x="563" y="105"/>
      <point x="500" y="81"/>
      <point x="406" y="81" type="curve"/>
      <point x="243" y="81"/>
      <point x="156" y="182"/>
      <point x="156" y="348" type="curve"/>
      <point x="156" y="529"/>
      <point x="247" y="642"/>
      <point x="421" y="642" type="curve"/>
      <point x="496" y="642"/>
      <point x="564" y="623"/>
      <point x="634" y="587" type="curve"/>
      <point x="683" y="654"/>
      <point x="634" y="587"/>
    </contour>
    <contour>
      <point x="416" y="796" type="move" name="top"/>
    </contour>
    <contour>
      <point x="427" y="5" type="move" name="bottom"/>
    </contour>
  </outline>
</glyph>
<glyph name="D" format="1">
  <advance width="769"/>
  <unicode hex="0044"/>
  <outline>
    <contour>
      <point x="87" y="722" type="curve"/>
      <point x="87" y="481"/>
      <point x="87" y="241"/>
      <point x="87" y="0" type="curve"/>
      <point x="193" y="0"/>
      <point x="87" y="0"/>
      <point x="193" y="0" type="curve"/>
      <point x="193" y="241"/>
      <point x="193" y="481"/>
      <point x="193" y="722" type="curve"/>
      <point x="87" y="722"/>
      <point x="193" y="722"/>
    </contour>
    <contour>
      <point x="142" y="0" type="curve"/>
      <point x="210" y="0"/>
      <point x="275" y="0"/>
      <point x="343" y="0" type="curve"/>
      <point x="585" y="0"/>
      <point x="720" y="118"/>
      <point x="720" y="354" type="curve"/>
      <point x="720" y="598"/>
      <point x="583" y="722"/>
      <point x="335" y="722" type="curve"/>
      <point x="270" y="722"/>
      <point x="207" y="722"/>
      <point x="142" y="722" type="curve"/>
      <point x="142" y="643"/>
      <point x="142" y="720"/>
      <point x="142" y="641" type="curve"/>
      <point x="206" y="641"/>
      <point x="267" y="641"/>
      <point x="330" y="641" type="curve"/>
      <point x="519" y="641"/>
      <point x="614" y="539"/>
      <point x="614" y="351" type="curve"/>
      <point x="614" y="176"/>
      <point x="526" y="81"/>
      <point x="352" y="81" type="curve"/>
      <point x="281" y="81"/>
      <point x="213" y="81"/>
      <point x="142" y="81" type="curve"/>
      <point x="142" y="2"/>
      <point x="142" y="79"/>
    </contour>
    <contour>
      <point x="319" y="796" type="move" name="top"/>
    </contour>
  </outline>
</glyph>
<glyph name="E" format="1">
  <advance width="612"/>
  <unicode hex="0045"/>
  <outline>
    <contour>
      <point x="145" y="332" type="curve"/>
      <point x="259" y="332"/>
      <point x="373" y="332"/>
      <point x="487" y="332" type="curve"/>
      <point x="487" y="414"/>
      <point x="487" y="332"/>
      <point x="487" y="414" type="curve"/>
      <point x="373" y="414"/>
      <point x="259" y="414"/>
      <point x="145" y="414" type="curve"/>
      <point x="145" y="332"/>
      <point x="145" y="414"/>
    </contour>
    <contour>
      <point x="129" y="641" type="curve"/>
      <point x="271" y="641"/>
      <point x="412" y="641"/>
      <point x="553" y="641" type="curve"/>
      <point x="553" y="722"/>
      <point x="553" y="641"/>
      <point x="553" y="722" type="curve"/>
      <point x="412" y="722"/>
      <point x="271" y="722"/>
      <point x="129" y="722" type="curve"/>
      <point x="129" y="641"/>
      <point x="129" y="722"/>
    </contour>
    <contour>
      <point x="194" y="0" type="curve"/>
      <point x="194" y="722" type="line"/>
      <point x="87" y="722"/>
      <point x="194" y="722"/>
      <point x="87" y="722" type="curve"/>
      <point x="87" y="481"/>
      <point x="87" y="241"/>
      <point x="87" y="0" type="curve"/>
      <point x="194" y="0"/>
      <point x="87" y="0"/>
    </contour>
    <contour>
      <point x="129" y="0" type="curve"/>
      <point x="282" y="0"/>
      <point x="435" y="0"/>
      <point x="588" y="0" type="curve"/>
      <point x="588" y="81"/>
      <point x="588" y="0"/>
      <point x="588" y="81" type="curve"/>
      <point x="435" y="81"/>
      <point x="282" y="81"/>
      <point x="129" y="81" type="curve"/>
      <point x="129" y="0"/>
      <point x="129" y="81"/>
    </contour>
    <contour>
      <point x="295" y="796" type="move" name="top"/>
    </contour>
    <contour>
      <point x="550" y="7" type="move" name="bottom"/>
    </contour>
  </outline>
</glyph>
<glyph name="F" format="1">
  <advance width="578"/>
  <unicode hex="0046"/>
  <outline>
    <contour>
      <point x="145" y="332" type="curve"/>
      <point x="257" y="332"/>
      <point x="369" y="332"/>
      <point x="480" y="332" type="curve"/>
      <point x="480" y="414"/>
      <point x="480" y="332"/>
      <point x="480" y="414" type="curve"/>
      <point x="369" y="414"/>
      <point x="257" y="414"/>
      <point x="145" y="414" type="curve"/>
      <point x="145" y="332"/>
      <point x="145" y="414"/>
    </contour>
    <contour>
      <point x="194" y="0" type="curve"/>
      <point x="194" y="722" type="line"/>
      <point x="87" y="722"/>
      <point x="194" y="722"/>
      <point x="87" y="722" type="curve"/>
      <point x="87" y="481"/>
      <point x="87" y="241"/>
      <point x="87" y="0" type="curve"/>
      <point x="194" y="0"/>
      <point x="87" y="0"/>
    </contour>
    <contour>
      <point x="129" y="641" type="curve"/>
      <point x="271" y="641"/>
      <point x="414" y="641"/>
      <point x="557" y="641" type="curve"/>
      <point x="557" y="722"/>
      <point x="557" y="641"/>
      <point x="557" y="722" type="curve"/>
      <point x="414" y="722"/>
      <point x="271" y="722"/>
      <point x="129" y="722" type="curve"/>
      <point x="129" y="641"/>
      <point x="129" y="722"/>
    </contour>
  </outline>
</glyph>
<glyph name="G" format="1">
  <advance width="812"/>
  <unicode hex="0047"/>
  <outline>
    <contour>
      <point x="729" y="353" type="curve"/>
      <point x="653" y="353"/>
      <point x="576" y="353"/>
      <point x="500" y="353" type="curve"/>
      <point x="500" y="272"/>
      <point x="500" y="353"/>
      <point x="500" y="272" type="curve"/>
      <point x="576" y="272"/>
      <point x="653" y="272"/>
      <point x="729" y="272" type="curve"/>
      <point x="729" y="353"/>
      <point x="729" y="272"/>
    </contour>
    <contour>
      <point x="758" y="78" type="curve"/>
      <point x="758" y="170"/>
      <point x="758" y="261"/>
      <point x="758" y="353" type="curve"/>
      <point x="661" y="353"/>
      <point x="758" y="353"/>
      <point x="661" y="353" type="curve"/>
      <point x="661" y="261"/>
      <point x="661" y="170"/>
      <point x="661" y="78" type="curve"/>
      <point x="758" y="78"/>
      <point x="661" y="78"/>
    </contour>
    <contour>
      <point x="741" y="644" type="curve"/>
      <point x="640" y="702"/>
      <point x="549" y="727"/>
      <point x="432" y="727" type="curve"/>
      <point x="193" y="727"/>
      <point x="48" y="598"/>
      <point x="48" y="361" type="curve"/>
      <point x="48" y="121"/>
      <point x="200" y="-5"/>
      <point x="443" y="-5" type="curve"/>
      <point x="568" y="-5"/>
      <point x="648" y="23"/>
      <point x="758" y="78" type="curve"/>
      <point x="704" y="139"/>
      <point x="758" y="78"/>
      <point x="704" y="139" type="curve"/>
      <point x="617" y="96"/>
      <point x="545" y="80"/>
      <point x="444" y="80" type="curve"/>
      <point x="259" y="80"/>
      <point x="155" y="184"/>
      <point x="155" y="370" type="curve"/>
      <point x="155" y="544"/>
      <point x="257" y="642"/>
      <point x="432" y="642" type="curve"/>
      <point x="528" y="642"/>
      <point x="603" y="622"/>
      <point x="693" y="573" type="curve"/>
      <point x="741" y="644"/>
      <point x="693" y="573"/>
    </contour>
    <contour>
      <point x="431" y="796" type="move" name="top"/>
    </contour>
    <contour>
      <point x="475" y="-7" type="move" name="bottom"/>
    </contour>
  </outline>
</glyph>
<glyph name="H" format="1">
  <advance width="804"/>
  <unicode hex="0048"/>
  <outline>
    <contour>
      <point x="194" y="0" type="curve"/>
      <point x="194" y="722" type="line"/>
      <point x="87" y="722"/>
      <point x="194" y="722"/>
      <point x="87" y="722" type="curve"/>
      <point x="87" y="481"/>
      <point x="87" y="241"/>
      <point x="87" y="0" type="curve"/>
      <point x="194" y="0"/>
      <point x="87" y="0"/>
    </contour>
    <contour>
      <point x="661" y="403" type="curve"/>
      <point x="487" y="403"/>
      <point x="314" y="403"/>
      <point x="140" y="403" type="curve"/>
      <point x="140" y="322"/>
      <point x="140" y="403"/>
      <point x="140" y="322" type="curve"/>
      <point x="314" y="322"/>
      <point x="487" y="322"/>
      <point x="661" y="322" type="curve"/>
      <point x="661" y="403"/>
      <point x="661" y="322"/>
    </contour>
    <contour>
      <point x="717" y="0" type="curve"/>
      <point x="717" y="220"/>
      <point x="717" y="502"/>
      <point x="717" y="722" type="curve"/>
      <point x="610" y="722"/>
      <point x="717" y="722"/>
      <point x="610" y="722" type="curve"/>
      <point x="610" y="0" type="line"/>
      <point x="717" y="0"/>
      <point x="610" y="0"/>
    </contour>
  </outline>
</glyph>
<glyph name="J" format="1">
  <advance width="461"/>
  <unicode hex="004A"/>
  <outline>
    <contour>
      <point x="4" y="43" type="curve"/>
      <point x="39" y="21"/>
      <point x="87" y="-4"/>
      <point x="147" y="-4" type="curve"/>
      <point x="297" y="-4"/>
      <point x="380" y="78"/>
      <point x="380" y="236" type="curve"/>
      <point x="380" y="401"/>
      <point x="380" y="557"/>
      <point x="380" y="722" type="curve"/>
      <point x="275" y="722"/>
      <point x="377" y="722"/>
      <point x="273" y="722" type="curve"/>
      <point x="273" y="557"/>
      <point x="273" y="401"/>
      <point x="273" y="236" type="curve"/>
      <point x="273" y="141"/>
      <point x="236" y="78"/>
      <point x="147" y="78" type="curve"/>
      <point x="109" y="78"/>
      <point x="84" y="92"/>
      <point x="53" y="108" type="curve"/>
      <point x="6" y="45"/>
      <point x="52" y="106"/>
    </contour>
  </outline>
</glyph>
<glyph name="K" format="1">
  <advance width="674"/>
  <unicode hex="004B"/>
  <outline>
    <contour>
      <point x="505" y="722" type="curve"/>
      <point x="164" y="380" type="line"/>
      <point x="294" y="380"/>
      <point x="167" y="380"/>
      <point x="296" y="380" type="curve"/>
      <point x="641" y="722" type="line"/>
      <point x="516" y="722"/>
      <point x="630" y="722"/>
    </contour>
    <contour>
      <point x="193" y="0" type="curve"/>
      <point x="193" y="722" type="line"/>
      <point x="87" y="722"/>
      <point x="193" y="722"/>
      <point x="87" y="722" type="curve"/>
      <point x="87" y="481"/>
      <point x="87" y="241"/>
      <point x="87" y="0" type="curve"/>
      <point x="193" y="0"/>
      <point x="87" y="0"/>
    </contour>
    <contour>
      <point x="667" y="0" type="curve"/>
      <point x="296" y="380" type="line"/>
      <point x="167" y="380"/>
      <point x="294" y="380"/>
      <point x="164" y="380" type="curve"/>
      <point x="528" y="0" type="line"/>
      <point x="661" y="0"/>
      <point x="534" y="0"/>
    </contour>
    <contour>
      <point x="383" y="-11" type="move" name="bottom"/>
    </contour>
  </outline>
</glyph>
<glyph name="L" format="1">
  <advance width="590"/>
  <unicode hex="004C"/>
  <outline>
    <contour>
      <point x="193" y="0" type="curve"/>
      <point x="193" y="241"/>
      <point x="193" y="481"/>
      <point x="193" y="722" type="curve"/>
      <point x="87" y="722"/>
      <point x="193" y="722"/>
      <point x="87" y="722" type="curve"/>
      <point x="87" y="481"/>
      <point x="87" y="241"/>
      <point x="87" y="0" type="curve"/>
      <point x="193" y="0"/>
      <point x="87" y="0"/>
    </contour>
    <contour>
      <point x="139" y="0" type="curve"/>
      <point x="286" y="0"/>
      <point x="432" y="0"/>
      <point x="579" y="0" type="curve"/>
      <point x="579" y="81"/>
      <point x="579" y="0"/>
      <point x="579" y="81" type="curve"/>
      <point x="432" y="81"/>
      <point x="286" y="81"/>
      <point x="139" y="81" type="curve"/>
      <point x="139" y="0"/>
      <point x="139" y="81"/>
    </contour>
    <contour>
      <point x="140" y="796" type="move" name="top"/>
    </contour>
    <contour>
      <point x="329" y="-9" type="move" name="bottom"/>
    </contour>
  </outline>
</glyph>
<glyph name="M" format="1">
  <advance width="944"/>
  <unicode hex="004D"/>
  <outline>
    <contour>
      <point x="886" y="0" type="curve"/>
      <point x="864" y="241"/>
      <point x="838" y="481"/>
      <point x="817" y="722" type="curve"/>
      <point x="720" y="722"/>
      <point x="817" y="722"/>
      <point x="720" y="722" type="curve"/>
      <point x="741" y="481"/>
      <point x="758" y="241"/>
      <point x="779" y="0" type="curve"/>
      <point x="886" y="0"/>
      <point x="779" y="0"/>
    </contour>
    <contour>
      <point x="161" y="0" type="curve"/>
      <point x="181" y="241"/>
      <point x="200" y="481"/>
      <point x="220" y="722" type="curve"/>
      <point x="122" y="722"/>
      <point x="220" y="722"/>
      <point x="122" y="722" type="curve"/>
      <point x="102" y="481"/>
      <point x="81" y="241"/>
      <point x="61" y="0" type="curve"/>
      <point x="161" y="0"/>
      <point x="61" y="0"/>
    </contour>
    <contour>
      <point x="517" y="0" type="curve"/>
      <point x="419" y="241"/>
      <point x="321" y="481"/>
      <point x="223" y="722" type="curve"/>
      <point x="125" y="722"/>
      <point x="223" y="722"/>
      <point x="124" y="722" type="curve"/>
      <point x="222" y="481"/>
      <point x="319" y="241"/>
      <point x="417" y="0" type="curve"/>
      <point x="516" y="0"/>
      <point x="417" y="0"/>
    </contour>
    <contour>
      <point x="526" y="0" type="curve"/>
      <point x="622" y="241"/>
      <point x="717" y="481"/>
      <point x="813" y="722" type="curve"/>
      <point x="714" y="722"/>
      <point x="812" y="722"/>
      <point x="714" y="722" type="curve"/>
      <point x="617" y="481"/>
      <point x="521" y="241"/>
      <point x="424" y="0" type="curve"/>
      <point x="526" y="0"/>
      <point x="425" y="0"/>
    </contour>
  </outline>
</glyph>
<glyph name="P" format="1">
  <advance width="607"/>
  <unicode hex="0050"/>
  <outline>
    <contour>
      <point x="126" y="304" type="curve"/>
      <point x="185" y="277"/>
      <point x="252" y="259"/>
      <point x="319" y="259" type="curve"/>
      <point x="471" y="261"/>
      <point x="572" y="334"/>
      <point x="572" y="484" type="curve"/>
      <point x="572" y="640"/>
      <point x="449" y="722"/>
      <point x="283" y="722" type="curve"/>
      <point x="237" y="722"/>
      <point x="191" y="722"/>
      <point x="144" y="722" type="curve"/>
      <point x="144" y="641"/>
      <point x="144" y="722"/>
      <point x="144" y="641" type="curve"/>
      <point x="186" y="641"/>
      <point x="228" y="641"/>
      <point x="269" y="641" type="curve"/>
      <point x="383" y="641"/>
      <point x="465" y="590"/>
      <point x="465" y="486" type="curve"/>
      <point x="465" y="391"/>
      <point x="402" y="338"/>
      <point x="308" y="338" type="curve"/>
      <point x="251" y="338"/>
      <point x="211" y="352"/>
      <point x="160" y="375" type="curve"/>
      <point x="126" y="305"/>
      <point x="160" y="375"/>
    </contour>
    <contour>
      <point x="193" y="0" type="curve"/>
      <point x="193" y="241"/>
      <point x="193" y="481"/>
      <point x="193" y="722" type="curve"/>
      <point x="87" y="722"/>
      <point x="193" y="722"/>
      <point x="87" y="722" type="curve"/>
      <point x="87" y="481"/>
      <point x="87" y="241"/>
      <point x="87" y="0" type="curve"/>
      <point x="193" y="0"/>
      <point x="87" y="0"/>
    </contour>
  </outline>
</glyph>
<glyph name="Q" format="1">
  <advance width="858"/>
  <unicode hex="0051"/>
  <outline>
    <contour>
      <point x="364" y="19" type="curve"/>
      <point x="481" y="-164"/>
      <point x="614" y="-221"/>
      <point x="820" y="-221" type="curve"/>
      <point x="820" y="-136"/>
      <point x="820" y="-221"/>
      <point x="820" y="-136" type="curve"/>
      <point x="655" y="-136"/>
      <point x="552" y="-88"/>
      <point x="456" y="60" type="curve"/>
      <point x="364" y="19"/>
      <point x="456" y="60"/>
    </contour>
    <contour>
      <point x="155" y="360" type="curve"/>
      <point x="155" y="526"/>
      <point x="241" y="639"/>
      <point x="399" y="639" type="curve"/>
      <point x="561" y="639"/>
      <point x="647" y="528"/>
      <point x="647" y="361" type="curve"/>
      <point x="647" y="195"/>
      <point x="564" y="80"/>
      <point x="406" y="80" type="curve"/>
      <point x="243" y="80"/>
      <point x="155" y="192"/>
      <point x="155" y="360" type="curve"/>
      <point x="49" y="360"/>
      <point x="155" y="360"/>
      <point x="49" y="360" type="curve"/>
      <point x="49" y="137"/>
      <point x="182" y="-5"/>
      <point x="400" y="-5" type="curve"/>
      <point x="622" y="-5"/>
      <point x="753" y="140"/>
      <point x="753" y="365" type="curve"/>
      <point x="753" y="588"/>
      <point x="624" y="730"/>
      <point x="406" y="730" type="curve"/>
      <point x="184" y="730"/>
      <point x="49" y="585"/>
      <point x="49" y="360" type="curve"/>
      <point x="155" y="360"/>
      <point x="49" y="360"/>
    </contour>
  </outline>
</glyph>
<glyph name="R" format="1">
  <advance width="675"/>
  <unicode hex="0052"/>
  <outline>
    <contour>
      <point x="293" y="354" type="curve"/>
      <point x="360" y="258"/>
      <point x="483" y="96"/>
      <point x="550" y="0" type="curve"/>
      <point x="661" y="0"/>
      <point x="562" y="0"/>
      <point x="673" y="0" type="curve"/>
      <point x="610" y="92"/>
      <point x="480" y="262"/>
      <point x="416" y="354" type="curve"/>
      <point x="294" y="354"/>
      <point x="415" y="354"/>
    </contour>
    <contour>
      <point x="193" y="0" type="curve"/>
      <point x="193" y="241"/>
      <point x="193" y="481"/>
      <point x="193" y="722" type="curve"/>
      <point x="87" y="722"/>
      <point x="193" y="722"/>
      <point x="87" y="722" type="curve"/>
      <point x="87" y="481"/>
      <point x="87" y="241"/>
      <point x="87" y="0" type="curve"/>
      <point x="193" y="0"/>
      <point x="87" y="0"/>
    </contour>
    <contour>
      <point x="142" y="311" type="curve"/>
      <point x="202" y="311"/>
      <point x="261" y="311"/>
      <point x="320" y="311" type="curve"/>
      <point x="479" y="311"/>
      <point x="589" y="374"/>
      <point x="589" y="525" type="curve"/>
      <point x="589" y="665"/>
      <point x="484" y="722"/>
      <point x="334" y="722" type="curve"/>
      <point x="269" y="722"/>
      <point x="207" y="722"/>
      <point x="142" y="722" type="curve"/>
      <point x="142" y="641"/>
      <point x="142" y="722"/>
      <point x="142" y="641" type="curve"/>
      <point x="200" y="641"/>
      <point x="256" y="641"/>
      <point x="315" y="641" type="curve"/>
      <point x="413" y="641"/>
      <point x="482" y="608"/>
      <point x="482" y="517" type="curve"/>
      <point x="482" y="429"/>
      <point x="420" y="393"/>
      <point x="327" y="393" type="curve"/>
      <point x="266" y="393"/>
      <point x="204" y="393"/>
      <point x="142" y="393" type="curve"/>
      <point x="142" y="311"/>
      <point x="142" y="393"/>
    </contour>
    <contour>
      <point x="288" y="796" type="move" name="top"/>
    </contour>
    <contour>
      <point x="383" y="-12" type="move" name="bottom"/>
    </contour>
  </outline>
</glyph>
<glyph name="U" format="1">
  <advance width="780"/>
  <unicode hex="0055"/>
  <outline>
    <contour>
      <point x="79" y="722" type="curve"/>
      <point x="79" y="576"/>
      <point x="79" y="421"/>
      <point x="79" y="276" type="curve"/>
      <point x="79" y="82"/>
      <point x="187" y="-5"/>
      <point x="388" y="-5" type="curve"/>
      <point x="591" y="-5"/>
      <point x="700" y="84"/>
      <point x="700" y="281" type="curve"/>
      <point x="700" y="425"/>
      <point x="700" y="578"/>
      <point x="700" y="722" type="curve"/>
      <point x="606" y="722"/>
      <point x="697" y="722"/>
      <point x="603" y="722" type="curve"/>
      <point x="603" y="573"/>
      <point x="603" y="419"/>
      <point x="603" y="271" type="curve"/>
      <point x="603" y="144"/>
      <point x="529" y="85"/>
      <point x="397" y="85" type="curve"/>
      <point x="251" y="85"/>
      <point x="177" y="149"/>
      <point x="177" y="291" type="curve"/>
      <point x="177" y="431"/>
      <point x="177" y="582"/>
      <point x="177" y="722" type="curve"/>
      <point x="82" y="722"/>
      <point x="174" y="722"/>
    </contour>
    <contour>
      <point x="393" y="796" type="move" name="top"/>
    </contour>
    <contour>
      <point x="429" y="-5" type="move" name="bottom"/>
    </contour>
  </outline>
</glyph>
<glyph name="V" format="1">
  <advance width="716"/>
  <unicode hex="0056"/>
  <outline>
    <contour>
      <point x="598" y="722" type="curve"/>
      <point x="502" y="481"/>
      <point x="407" y="241"/>
      <point x="313" y="0" type="curve"/>
      <point x="422" y="0"/>
      <point x="308" y="0"/>
      <point x="417" y="0" type="curve"/>
      <point x="514" y="241"/>
      <point x="610" y="481"/>
      <point x="707" y="722" type="curve"/>
      <point x="598" y="722"/>
      <point x="707" y="722"/>
    </contour>
    <contour>
      <point x="7" y="722" type="curve"/>
      <point x="105" y="481"/>
      <point x="204" y="241"/>
      <point x="301" y="0" type="curve"/>
      <point x="411" y="0"/>
      <point x="298" y="0"/>
      <point x="407" y="0" type="curve"/>
      <point x="311" y="241"/>
      <point x="214" y="481"/>
      <point x="118" y="722" type="curve"/>
      <point x="7" y="722"/>
      <point x="117" y="722"/>
    </contour>
  </outline>
</glyph>
<glyph name="W" format="1">
  <advance width="942"/>
  <unicode hex="0057"/>
  <outline>
    <contour>
      <point x="316" y="0" type="curve"/>
      <point x="385" y="241"/>
      <point x="453" y="481"/>
      <point x="523" y="722" type="curve"/>
      <point x="424" y="722"/>
      <point x="525" y="722"/>
      <point x="426" y="722" type="curve"/>
      <point x="360" y="481"/>
      <point x="295" y="242"/>
      <point x="228" y="0" type="curve"/>
      <point x="323" y="0"/>
      <point x="221" y="0"/>
    </contour>
    <contour>
      <point x="436" y="722" type="curve"/>
      <point x="499" y="481"/>
      <point x="558" y="241"/>
      <point x="621" y="0" type="curve"/>
      <point x="716" y="0"/>
      <point x="613" y="0"/>
      <point x="708" y="0" type="curve"/>
      <point x="650" y="242"/>
      <point x="592" y="481"/>
      <point x="532" y="722" type="curve"/>
      <point x="433" y="722"/>
      <point x="535" y="722"/>
    </contour>
    <contour>
      <point x="25" y="722" type="curve"/>
      <point x="88" y="481"/>
      <point x="152" y="241"/>
      <point x="215" y="0" type="curve"/>
      <point x="309" y="0"/>
      <point x="213" y="0"/>
      <point x="308" y="0" type="curve"/>
      <point x="247" y="241"/>
      <point x="187" y="481"/>
      <point x="127" y="722" type="curve"/>
      <point x="25" y="722"/>
      <point x="127" y="722"/>
    </contour>
    <contour>
      <point x="819" y="722" type="curve"/>
      <point x="756" y="481"/>
      <point x="694" y="241"/>
      <point x="632" y="0" type="curve"/>
      <point x="727" y="0"/>
      <point x="628" y="0"/>
      <point x="723" y="0" type="curve"/>
      <point x="788" y="241"/>
      <point x="854" y="481"/>
      <point x="920" y="722" type="curve"/>
      <point x="819" y="722"/>
      <point x="920" y="722"/>
    </contour>
  </outline>
</glyph>
<glyph name="X" format="1">
  <advance width="673"/>
  <unicode hex="0058"/>
  <outline>
    <contour>
      <point x="529" y="722" type="curve"/>
      <point x="361" y="486"/>
      <point x="173" y="236"/>
      <point x="5" y="0" type="curve"/>
      <point x="112" y="0"/>
      <point x="21" y="0"/>
      <point x="129" y="0" type="curve"/>
      <point x="297" y="236"/>
      <point x="479" y="486"/>
      <point x="647" y="722" type="curve"/>
      <point x="545" y="722"/>
      <point x="631" y="722"/>
    </contour>
    <contour>
      <point x="37" y="722" type="curve"/>
      <point x="203" y="486"/>
      <point x="381" y="236"/>
      <point x="547" y="0" type="curve"/>
      <point x="655" y="0"/>
      <point x="558" y="0"/>
      <point x="666" y="0" type="curve"/>
      <point x="498" y="237"/>
      <point x="318" y="485"/>
      <point x="150" y="722" type="curve"/>
      <point x="50" y="722"/>
      <point x="137" y="722"/>
    </contour>
  </outline>
</glyph>
<glyph name="Y" format="1">
  <advance width="639"/>
  <unicode hex="0059"/>
  <outline>
    <contour>
      <point x="14" y="722" type="curve"/>
      <point x="92" y="599"/>
      <point x="187" y="461"/>
      <point x="264" y="337" type="curve"/>
      <point x="373" y="337"/>
      <point x="258" y="338"/>
      <point x="366" y="338" type="curve"/>
      <point x="287" y="467"/>
      <point x="210" y="593"/>
      <point x="130" y="722" type="curve"/>
      <point x="32" y="722"/>
      <point x="113" y="722"/>
    </contour>
    <contour>
      <point x="524" y="722" type="curve"/>
      <point x="439" y="593"/>
      <point x="356" y="467"/>
      <point x="271" y="338" type="curve"/>
      <point x="380" y="338"/>
      <point x="268" y="337"/>
      <point x="376" y="337" type="curve"/>
      <point x="458" y="461"/>
      <point x="552" y="598"/>
      <point x="634" y="722" type="curve"/>
      <point x="536" y="722"/>
      <point x="622" y="722"/>
    </contour>
    <contour>
      <point x="378" y="0" type="curve"/>
      <point x="378" y="115"/>
      <point x="378" y="228"/>
      <point x="378" y="343" type="curve"/>
      <point x="262" y="343"/>
      <point x="378" y="343"/>
      <point x="262" y="343" type="curve"/>
      <point x="262" y="228"/>
      <point x="262" y="115"/>
      <point x="262" y="0" type="curve"/>
      <point x="378" y="0"/>
      <point x="262" y="0"/>
    </contour>
    <contour>
      <point x="324" y="796" type="move" name="top"/>
    </contour>
  </outline>
</glyph>
<glyph name="Z" format="1">
  <advance width="683"/>
  <unicode hex="005A"/>
  <outline>
    <contour>
      <point x="61" y="641" type="curve"/>
      <point x="228" y="641"/>
      <point x="431" y="641"/>
      <point x="599" y="641" type="curve"/>
      <point x="590" y="650"/>
      <point x="576" y="647"/>
      <point x="568" y="656" type="curve"/>
      <point x="561" y="664"/>
      <point x="560" y="675"/>
      <point x="553" y="682" type="curve"/>
      <point x="547" y="675"/>
      <point x="535" y="680"/>
      <point x="529" y="672" type="curve"/>
      <point x="23" y="81" type="line"/>
      <point x="23" y="40"/>
      <point x="23" y="81"/>
      <point x="23" y="40" type="curve"/>
      <point x="23" y="0"/>
      <point x="23" y="40"/>
      <point x="23" y="0" type="curve"/>
      <point x="60" y="0"/>
      <point x="23" y="0"/>
      <point x="60" y="0" type="curve"/>
      <point x="660" y="0"/>
      <point x="466" y="0"/>
      <point x="666" y="0" type="curve"/>
      <point x="666" y="81"/>
      <point x="666" y="0"/>
      <point x="666" y="81" type="curve"/>
      <point x="466" y="81"/>
      <point x="260" y="81"/>
      <point x="60" y="81" type="curve"/>
      <point x="68" y="75"/>
      <point x="79" y="74"/>
      <point x="87" y="69" type="curve"/>
      <point x="95" y="60"/>
      <point x="97" y="48"/>
      <point x="105" y="40" type="curve"/>
      <point x="113" y="48"/>
      <point x="128" y="41"/>
      <point x="136" y="50" type="curve"/>
      <point x="644" y="641" type="line"/>
      <point x="644" y="682"/>
      <point x="644" y="641"/>
      <point x="644" y="682" type="curve"/>
      <point x="644" y="722"/>
      <point x="644" y="682"/>
      <point x="644" y="722" type="curve"/>
      <point x="592" y="722"/>
      <point x="644" y="722"/>
      <point x="592" y="722" type="curve"/>
      <point x="426" y="722"/>
      <point x="226" y="722"/>
      <point x="61" y="722" type="curve"/>
      <point x="61" y="641"/>
      <point x="61" y="722"/>
    </contour>
    <contour>
      <point x="349" y="796" type="move" name="top"/>
    </contour>
  </outline>
</glyph>
<glyph name="bracketleft" format="1">
  <advance width="311"/>
  <unicode hex="005B"/>
  <outline>
    <contour>
      <point x="275" y="770" type="curve"/>
      <point x="222" y="770"/>
      <point x="169" y="770"/>
      <point x="116" y="770" type="curve"/>
      <point x="103" y="770"/>
      <point x="82" y="770"/>
      <point x="70" y="770" type="curve"/>
      <point x="70" y="758"/>
      <point x="70" y="742"/>
      <point x="70" y="731" type="curve"/>
      <point x="70" y="461"/>
      <point x="70" y="191"/>
      <point x="70" y="-79" type="curve"/>
      <point x="70" y="-91"/>
      <point x="70" y="-103"/>
      <point x="70" y="-117" type="curve"/>
      <point x="81" y="-117"/>
      <point x="102" y="-117"/>
      <point x="115" y="-117" type="curve"/>
      <point x="168" y="-117"/>
      <point x="222" y="-117"/>
      <point x="275" y="-117" type="curve"/>
      <point x="275" y="-27"/>
      <point x="275" y="-117"/>
      <point x="275" y="-27" type="curve"/>
      <point x="222" y="-27"/>
      <point x="168" y="-27"/>
      <point x="115" y="-27" type="curve"/>
      <point x="176" y="-27"/>
      <point x="115" y="-27"/>
      <point x="176" y="-27" type="curve"/>
      <point x="176" y="-79"/>
      <point x="176" y="-27"/>
      <point x="176" y="-79" type="curve"/>
      <point x="176" y="191"/>
      <point x="176" y="461"/>
      <point x="176" y="731" type="curve"/>
      <point x="176" y="681"/>
      <point x="176" y="731"/>
      <point x="176" y="681" type="curve"/>
      <point x="116" y="681"/>
      <point x="176" y="681"/>
      <point x="116" y="681" type="curve"/>
      <point x="169" y="681"/>
      <point x="222" y="681"/>
      <point x="275" y="681" type="curve"/>
      <point x="275" y="770"/>
      <point x="275" y="681"/>
    </contour>
  </outline>
</glyph>
<glyph name="backslash" format="1">
  <advance width="568"/>
  <unicode hex="005C"/>
  <outline>
    <contour>
      <point x="544" y="-68" type="curve"/>
      <point x="408" y="236"/>
      <point x="272" y="540"/>
      <point x="135" y="844" type="curve"/>
      <point x="24" y="844"/>
      <point x="135" y="844"/>
      <point x="24" y="844" type="curve"/>
      <point x="160" y="540"/>
      <point x="297" y="236"/>
      <point x="433" y="-68" type="curve"/>
      <point x="544" y="-68"/>
      <point x="433" y="-68"/>
    </contour>
  </outline>
</glyph>
<glyph name="bracketright" format="1">
  <advance width="310"/>
  <unicode hex="005D"/>
  <outline>
    <contour>
      <point x="36" y="681" type="curve"/>
      <point x="89" y="681"/>
      <point x="142" y="681"/>
      <point x="195" y="681" type="curve"/>
      <point x="185" y="689"/>
      <point x="171" y="693"/>
      <point x="161" y="701" type="curve"/>
      <point x="151" y="710"/>
      <point x="144" y="722"/>
      <point x="135" y="731" type="curve"/>
      <point x="135" y="461"/>
      <point x="134" y="191"/>
      <point x="135" y="-79" type="curve"/>
      <point x="144" y="-70"/>
      <point x="154" y="-59"/>
      <point x="164" y="-50" type="curve"/>
      <point x="174" y="-41"/>
      <point x="186" y="-36"/>
      <point x="196" y="-27" type="curve"/>
      <point x="142" y="-27"/>
      <point x="89" y="-27"/>
      <point x="36" y="-27" type="curve"/>
      <point x="35" y="-117"/>
      <point x="36" y="-27"/>
      <point x="35" y="-117" type="curve"/>
      <point x="89" y="-117"/>
      <point x="142" y="-117"/>
      <point x="196" y="-117" type="curve"/>
      <point x="241" y="-117"/>
      <point x="196" y="-117"/>
      <point x="241" y="-117" type="curve"/>
      <point x="241" y="-79"/>
      <point x="241" y="-117"/>
      <point x="241" y="-79" type="curve"/>
      <point x="241" y="191"/>
      <point x="241" y="461"/>
      <point x="241" y="731" type="curve"/>
      <point x="241" y="770"/>
      <point x="241" y="731"/>
      <point x="241" y="770" type="curve"/>
      <point x="195" y="770"/>
      <point x="241" y="770"/>
      <point x="195" y="770" type="curve"/>
      <point x="142" y="770"/>
      <point x="89" y="770"/>
      <point x="36" y="770" type="curve"/>
      <point x="36" y="681"/>
      <point x="36" y="770"/>
    </contour>
  </outline>
</glyph>
<glyph name="asciicircum" format="1">
  <advance width="552"/>
  <unicode hex="005E"/>
  <outline>
    <contour>
      <point x="147" y="457" type="curve"/>
      <point x="207" y="563"/>
      <point x="268" y="667"/>
      <point x="328" y="772" type="curve"/>
      <point x="222" y="772"/>
      <point x="328" y="772"/>
      <point x="222" y="772" type="curve"/>
      <point x="161" y="667"/>
      <point x="100" y="563"/>
      <point x="40" y="457" type="curve"/>
      <point x="146" y="457"/>
      <point x="40" y="457"/>
    </contour>
    <contour>
      <point x="512" y="457" type="curve"/>
      <point x="452" y="561"/>
      <point x="389" y="669"/>
      <point x="329" y="772" type="curve"/>
      <point x="222" y="772"/>
      <point x="328" y="772"/>
      <point x="222" y="772" type="curve"/>
      <point x="282" y="669"/>
      <point x="345" y="561"/>
      <point x="405" y="457" type="curve"/>
      <point x="512" y="457"/>
      <point x="406" y="457"/>
    </contour>
  </outline>
</glyph>
<glyph name="grave" format="1">
  <advance width="388"/>
  <unicode hex="0060"/>
  <outline>
    <contour>
      <point x="311" y="570" type="line"/>
      <point x="189" y="736" type="line"/>
      <point x="52" y="736" type="line"/>
      <point x="205" y="570" type="line"/>
    </contour>
    <contour>
      <point x="253" y="570" type="move" name="_top"/>
    </contour>
  </outline>
</glyph>
<glyph name="a" format="1">
  <advance width="574"/>
  <unicode hex="0061"/>
  <outline>
    <contour>
      <point x="505" y="0" type="curve"/>
      <point x="505" y="125"/>
      <point x="505" y="249"/>
      <point x="505" y="374" type="curve"/>
      <point x="505" y="499"/>
      <point x="413" y="538"/>
      <point x="285" y="538" type="curve"/>
      <point x="187" y="538"/>
      <point x="116" y="506"/>
      <point x="61" y="462" type="curve"/>
      <point x="101" y="394"/>
      <point x="62" y="460"/>
      <point x="103" y="392" type="curve"/>
      <point x="145" y="423"/>
      <point x="196" y="455"/>
      <point x="270" y="455" type="curve"/>
      <point x="346" y="455"/>
      <point x="398" y="434"/>
      <point x="398" y="357" type="curve"/>
      <point x="398" y="238"/>
      <point x="398" y="119"/>
      <point x="398" y="0" type="curve"/>
      <point x="505" y="0"/>
      <point x="398" y="0"/>
    </contour>
    <contour>
      <point x="448" y="336" type="curve"/>
      <point x="368" y="327"/>
      <point x="320" y="323"/>
      <point x="239" y="314" type="curve"/>
      <point x="123" y="299"/>
      <point x="38" y="266"/>
      <point x="38" y="155" type="curve"/>
      <point x="38" y="47"/>
      <point x="108" y="-5"/>
      <point x="223" y="-5" type="curve"/>
      <point x="344" y="-5"/>
      <point x="410" y="65"/>
      <point x="476" y="152" type="curve"/>
      <point x="424" y="196"/>
      <point x="477" y="152"/>
      <point x="424" y="196" type="curve"/>
      <point x="384" y="131"/>
      <point x="327" y="76"/>
      <point x="243" y="76" type="curve"/>
      <point x="179" y="76"/>
      <point x="142" y="102"/>
      <point x="142" y="157" type="curve"/>
      <point x="142" y="212"/>
      <point x="185" y="233"/>
      <point x="238" y="240" type="curve"/>
      <point x="323" y="250"/>
      <point x="368" y="256"/>
      <point x="453" y="267" type="curve"/>
      <point x="448" y="336"/>
      <point x="453" y="267"/>
    </contour>
    <contour>
      <point x="286" y="632" type="move" name="top"/>
    </contour>
    <contour>
      <point x="489" y="5" type="move" name="bottom"/>
    </contour>
  </outline>
</glyph>
<glyph name="b" format="1">
  <advance width="659"/>
  <unicode hex="0062"/>
  <outline>
    <contour>
      <point x="151" y="354" type="curve"/>
      <point x="193" y="405"/>
      <point x="256" y="454"/>
      <point x="344" y="454" type="curve"/>
      <point x="450" y="454"/>
      <point x="508" y="376"/>
      <point x="508" y="263" type="curve"/>
      <point x="509" y="155"/>
      <point x="448" y="79"/>
      <point x="344" y="79" type="curve"/>
      <point x="266" y="79"/>
      <point x="206" y="113"/>
      <point x="160" y="165" type="curve"/>
      <point x="119" y="138"/>
      <point x="140" y="151"/>
      <point x="99" y="123" type="curve"/>
      <point x="169" y="46"/>
      <point x="244" y="-5"/>
      <point x="360" y="-5" type="curve"/>
      <point x="518" y="-5"/>
      <point x="616" y="100"/>
      <point x="615" y="266" type="curve"/>
      <point x="615" y="432"/>
      <point x="519" y="538"/>
      <point x="359" y="538" type="curve"/>
      <point x="243" y="538"/>
      <point x="165" y="479"/>
      <point x="104" y="405" type="curve"/>
      <point x="137" y="374"/>
      <point x="118" y="385"/>
    </contour>
    <contour>
      <point x="180" y="0" type="curve"/>
      <point x="180" y="281"/>
      <point x="180" y="519"/>
      <point x="180" y="800" type="curve"/>
      <point x="107" y="800"/>
      <point x="146" y="800"/>
      <point x="73" y="800" type="curve"/>
      <point x="73" y="519"/>
      <point x="73" y="281"/>
      <point x="73" y="0" type="curve"/>
      <point x="146" y="0"/>
      <point x="107" y="0"/>
    </contour>
  </outline>
</glyph>
<glyph name="c" format="1">
  <advance width="555"/>
  <unicode hex="0063"/>
  <outline>
    <contour>
      <point x="523" y="470" type="curve"/>
      <point x="469" y="509"/>
      <point x="400" y="538"/>
      <point x="330" y="538" type="curve"/>
      <point x="152" y="538"/>
      <point x="44" y="446"/>
      <point x="44" y="267" type="curve"/>
      <point x="44" y="89"/>
      <point x="149" y="-5"/>
      <point x="327" y="-5" type="curve"/>
      <point x="406" y="-5"/>
      <point x="482" y="24"/>
      <point x="530" y="82" type="curve"/>
      <point x="466" y="141"/>
      <point x="530" y="82"/>
      <point x="466" y="141" type="curve"/>
      <point x="429" y="105"/>
      <point x="383" y="79"/>
      <point x="331" y="79" type="curve"/>
      <point x="215" y="79"/>
      <point x="151" y="146"/>
      <point x="151" y="267" type="curve"/>
      <point x="151" y="387"/>
      <point x="213" y="454"/>
      <point x="327" y="454" type="curve"/>
      <point x="375" y="454"/>
      <point x="422" y="439"/>
      <point x="467" y="412" type="curve"/>
      <point x="523" y="470"/>
      <point x="467" y="412"/>
    </contour>
    <contour>
      <point x="317" y="632" type="move" name="top"/>
    </contour>
    <contour>
      <point x="337" y="5" type="move" name="bottom"/>
    </contour>
  </outline>
</glyph>
<glyph name="f" format="1">
  <advance width="471"/>
  <unicode hex="0066"/>
  <outline>
    <contour>
      <point x="22" y="452" type="curve"/>
      <point x="444" y="452" type="line"/>
      <point x="444" y="533"/>
      <point x="444" y="452"/>
      <point x="444" y="533" type="curve"/>
      <point x="22" y="533" type="line"/>
      <point x="22" y="452"/>
      <point x="22" y="533"/>
    </contour>
    <contour>
      <point x="262" y="0" type="curve"/>
      <point x="262" y="616" type="line"/>
      <point x="262" y="681"/>
      <point x="291" y="725"/>
      <point x="354" y="725" type="curve"/>
      <point x="384" y="725"/>
      <point x="413" y="716"/>
      <point x="439" y="704" type="curve"/>
      <point x="483" y="769"/>
      <point x="439" y="704"/>
      <point x="483" y="769" type="curve"/>
      <point x="443" y="788"/>
      <point x="399" y="803"/>
      <point x="354" y="803" type="curve"/>
      <point x="234" y="803"/>
      <point x="154" y="734"/>
      <point x="155" y="616" type="curve"/>
      <point x="155" y="0" type="line"/>
      <point x="262" y="0"/>
      <point x="155" y="0"/>
    </contour>
  </outline>
</glyph>
<glyph name="g" format="1">
  <advance width="579"/>
  <unicode hex="0067"/>
  <outline>
    <contour>
      <point x="395" y="456" type="curve"/>
      <point x="561" y="527" type="line"/>
      <point x="558" y="531"/>
      <point x="520" y="603"/>
      <point x="518" y="606" type="curve"/>
      <point x="340" y="516" type="line"/>
      <point x="395" y="456"/>
      <point x="341" y="517"/>
    </contour>
    <contour>
      <point x="157" y="344" type="curve"/>
      <point x="157" y="415"/>
      <point x="211" y="457"/>
      <point x="287" y="457" type="curve"/>
      <point x="362" y="457"/>
      <point x="412" y="416"/>
      <point x="412" y="344" type="curve"/>
      <point x="412" y="276"/>
      <point x="361" y="237"/>
      <point x="287" y="237" type="curve"/>
      <point x="213" y="237"/>
      <point x="157" y="273"/>
      <point x="157" y="344" type="curve"/>
      <point x="50" y="340"/>
      <point x="157" y="344"/>
      <point x="50" y="340" type="curve"/>
      <point x="50" y="219"/>
      <point x="150" y="157"/>
      <point x="280" y="157" type="curve"/>
      <point x="414" y="157"/>
      <point x="518" y="221"/>
      <point x="518" y="347" type="curve"/>
      <point x="518" y="471"/>
      <point x="419" y="538"/>
      <point x="287" y="538" type="curve"/>
      <point x="151" y="538"/>
      <point x="50" y="468"/>
      <point x="50" y="340" type="curve"/>
      <point x="157" y="344"/>
      <point x="50" y="340"/>
    </contour>
    <contour>
      <point x="157" y="240" type="curve"/>
      <point x="98" y="212"/>
      <point x="54" y="176"/>
      <point x="54" y="112" type="curve"/>
      <point x="54" y="8"/>
      <point x="157" y="-17"/>
      <point x="272" y="-27" type="curve"/>
      <point x="371" y="-34"/>
      <point x="471" y="-41"/>
      <point x="471" y="-127" type="curve"/>
      <point x="471" y="-203"/>
      <point x="383" y="-224"/>
      <point x="287" y="-224" type="curve"/>
      <point x="196" y="-224"/>
      <point x="117" y="-194"/>
      <point x="117" y="-113" type="curve"/>
      <point x="117" y="-52"/>
      <point x="153" y="-14"/>
      <point x="205" y="6" type="curve"/>
      <point x="152" y="55"/>
      <point x="205" y="6"/>
      <point x="152" y="55" type="curve"/>
      <point x="71" y="25"/>
      <point x="11" y="-26"/>
      <point x="11" y="-117" type="curve"/>
      <point x="11" y="-253"/>
      <point x="134" y="-304"/>
      <point x="282" y="-304" type="curve"/>
      <point x="436" y="-304"/>
      <point x="571" y="-261"/>
      <point x="568" y="-119" type="curve"/>
      <point x="568" y="17"/>
      <point x="435" y="40"/>
      <point x="291" y="51" type="curve"/>
      <point x="224" y="55"/>
      <point x="161" y="66"/>
      <point x="161" y="120" type="curve"/>
      <point x="161" y="153"/>
      <point x="179" y="173"/>
      <point x="208" y="190" type="curve"/>
      <point x="157" y="240"/>
      <point x="208" y="190"/>
    </contour>
    <contour>
      <point x="281" y="632" type="move" name="top"/>
    </contour>
  </outline>
</glyph>
<glyph name="h" format="1">
  <advance width="635"/>
  <unicode hex="0068"/>
  <outline>
    <contour>
      <point x="156" y="308" type="curve"/>
      <point x="186" y="392"/>
      <point x="256" y="455"/>
      <point x="338" y="455" type="curve"/>
      <point x="423" y="455"/>
      <point x="461" y="399"/>
      <point x="461" y="314" type="curve"/>
      <point x="461" y="208"/>
      <point x="461" y="107"/>
      <point x="461" y="0" type="curve"/>
      <point x="568" y="0"/>
      <point x="461" y="0"/>
      <point x="568" y="0" type="curve"/>
      <point x="568" y="109"/>
      <point x="568" y="218"/>
      <point x="568" y="327" type="curve"/>
      <point x="568" y="462"/>
      <point x="498" y="536"/>
      <point x="361" y="536" type="curve"/>
      <point x="249" y="536"/>
      <point x="153" y="462"/>
      <point x="113" y="348" type="curve"/>
      <point x="157" y="307"/>
      <point x="111" y="349"/>
    </contour>
    <contour>
      <point x="180" y="0" type="curve"/>
      <point x="180" y="267"/>
      <point x="180" y="533"/>
      <point x="180" y="800" type="curve"/>
      <point x="73" y="800"/>
      <point x="180" y="800"/>
      <point x="73" y="800" type="curve"/>
      <point x="73" y="533"/>
      <point x="73" y="267"/>
      <point x="73" y="0" type="curve"/>
      <point x="180" y="0"/>
      <point x="73" y="0"/>
    </contour>
  </outline>
</glyph>
<glyph name="i" format="1">
  <advance width="258"/>
  <unicode hex="0069"/>
  <outline>
    <contour>
      <point x="185" y="0" type="curve"/>
      <point x="185" y="178"/>
      <point x="185" y="355"/>
      <point x="185" y="533" type="curve"/>
      <point x="73" y="533"/>
      <point x="185" y="533"/>
      <point x="73" y="533" type="curve"/>
      <point x="73" y="355"/>
      <point x="73" y="178"/>
      <point x="73" y="0" type="curve"/>
      <point x="185" y="0"/>
      <point x="73" y="0"/>
    </contour>
    <contour>
      <point x="189" y="684" type="curve"/>
      <point x="189" y="720"/>
      <point x="162" y="738"/>
      <point x="126" y="738" type="curve"/>
      <point x="90" y="738"/>
      <point x="65" y="718"/>
      <point x="65" y="684" type="curve"/>
      <point x="184" y="684"/>
      <point x="70" y="684"/>
      <point x="189" y="684" type="curve"/>
      <point x="189" y="647"/>
      <point x="163" y="630"/>
      <point x="126" y="630" type="curve"/>
      <point x="89" y="630"/>
      <point x="65" y="648"/>
      <point x="65" y="684" type="curve"/>
      <point x="184" y="684"/>
      <point x="70" y="684"/>
    </contour>
    <contour>
      <point x="126" y="632" type="move" name="top"/>
    </contour>
    <contour>
      <point x="177" y="6" type="move" name="bottom"/>
    </contour>
  </outline>
</glyph>
<glyph name="j" format="1">
  <advance width="276"/>
  <unicode hex="006A"/>
  <outline>
    <contour>
      <point x="-35" y="-302" type="curve"/>
      <point x="-26" y="-303"/>
      <point x="-14" y="-305"/>
      <point x="-1" y="-305" type="curve"/>
      <point x="118" y="-305"/>
      <point x="208" y="-241"/>
      <point x="208" y="-127" type="curve"/>
      <point x="208" y="93"/>
      <point x="208" y="313"/>
      <point x="208" y="534" type="curve"/>
      <point x="101" y="534"/>
      <point x="208" y="534"/>
      <point x="101" y="534" type="curve"/>
      <point x="101" y="313"/>
      <point x="101" y="93"/>
      <point x="101" y="-127" type="curve"/>
      <point x="101" y="-186"/>
      <point x="63" y="-226"/>
      <point x="4" y="-226" type="curve"/>
      <point x="-4" y="-226"/>
      <point x="-14" y="-225"/>
      <point x="-20" y="-224" type="curve"/>
      <point x="-35" y="-302"/>
      <point x="-20" y="-225"/>
    </contour>
    <contour>
      <point x="217" y="681" type="curve"/>
      <point x="217" y="718"/>
      <point x="191" y="736"/>
      <point x="154" y="736" type="curve"/>
      <point x="118" y="736"/>
      <point x="94" y="716"/>
      <point x="94" y="681" type="curve"/>
      <point x="212" y="681"/>
      <point x="99" y="681"/>
      <point x="217" y="681" type="curve"/>
      <point x="217" y="644"/>
      <point x="191" y="627"/>
      <point x="154" y="627" type="curve"/>
      <point x="117" y="627"/>
      <point x="94" y="646"/>
      <point x="94" y="681" type="curve"/>
      <point x="212" y="681"/>
      <point x="99" y="681"/>
    </contour>
  </outline>
</glyph>
<glyph name="k" format="1">
  <advance width="592"/>
  <unicode hex="006B"/>
  <outline>
    <contour>
      <point x="180" y="0" type="curve"/>
      <point x="180" y="800" type="line"/>
      <point x="73" y="800"/>
      <point x="180" y="800"/>
      <point x="73" y="800" type="curve"/>
      <point x="73" y="533"/>
      <point x="73" y="267"/>
      <point x="73" y="0" type="curve"/>
      <point x="180" y="0"/>
      <point x="73" y="0"/>
    </contour>
    <contour>
      <point x="417" y="533" type="curve"/>
      <point x="153" y="275" type="line"/>
      <point x="276" y="275"/>
      <point x="158" y="275"/>
      <point x="281" y="275" type="curve"/>
      <point x="551" y="533" type="line"/>
      <point x="424" y="533"/>
      <point x="543" y="533"/>
    </contour>
    <contour>
      <point x="578" y="0" type="curve"/>
      <point x="280" y="275" type="line"/>
      <point x="158" y="275"/>
      <point x="275" y="275"/>
      <point x="153" y="275" type="curve"/>
      <point x="443" y="0" type="line"/>
      <point x="567" y="0"/>
      <point x="454" y="0"/>
    </contour>
    <contour>
      <point x="353" y="-14" type="move" name="bottom"/>
    </contour>
  </outline>
</glyph>
<glyph name="m" format="1">
  <advance width="941"/>
  <unicode hex="006D"/>
  <outline>
    <contour>
      <point x="502" y="295" type="curve"/>
      <point x="537" y="383"/>
      <point x="582" y="454"/>
      <point x="661" y="454" type="curve"/>
      <point x="744" y="454"/>
      <point x="765" y="406"/>
      <point x="765" y="319" type="curve"/>
      <point x="765" y="213"/>
      <point x="765" y="107"/>
      <point x="765" y="0" type="curve"/>
      <point x="872" y="0"/>
      <point x="765" y="0"/>
      <point x="872" y="0" type="curve"/>
      <point x="872" y="109"/>
      <point x="872" y="218"/>
      <point x="872" y="327" type="curve"/>
      <point x="872" y="465"/>
      <point x="826" y="538"/>
      <point x="690" y="538" type="curve"/>
      <point x="577" y="538"/>
      <point x="506" y="459"/>
      <point x="458" y="339" type="curve"/>
      <point x="503" y="296"/>
      <point x="457" y="338"/>
    </contour>
    <contour>
      <point x="156" y="297" type="curve"/>
      <point x="190" y="384"/>
      <point x="235" y="454"/>
      <point x="315" y="454" type="curve"/>
      <point x="396" y="454"/>
      <point x="419" y="406"/>
      <point x="419" y="319" type="curve"/>
      <point x="419" y="213"/>
      <point x="419" y="107"/>
      <point x="419" y="0" type="curve"/>
      <point x="526" y="0"/>
      <point x="419" y="0"/>
      <point x="526" y="0" type="curve"/>
      <point x="526" y="109"/>
      <point x="526" y="218"/>
      <point x="526" y="327" type="curve"/>
      <point x="526" y="465"/>
      <point x="481" y="538"/>
      <point x="345" y="538" type="curve"/>
      <point x="230" y="538"/>
      <point x="166" y="463"/>
      <point x="112" y="341" type="curve"/>
      <point x="157" y="298"/>
      <point x="111" y="340"/>
    </contour>
    <contour>
      <point x="180" y="0" type="curve"/>
      <point x="180" y="178"/>
      <point x="180" y="355"/>
      <point x="180" y="533" type="curve"/>
      <point x="73" y="533"/>
      <point x="180" y="533"/>
      <point x="73" y="533" type="curve"/>
      <point x="73" y="355"/>
      <point x="73" y="178"/>
      <point x="73" y="0" type="curve"/>
      <point x="180" y="0"/>
      <point x="73" y="0"/>
    </contour>
  </outline>
</glyph>
<glyph name="n" format="1">
  <advance width="635"/>
  <unicode hex="006E"/>
  <outline>
    <contour>
      <point x="157" y="287" type="curve"/>
      <point x="184" y="383"/>
      <point x="248" y="454"/>
      <point x="335" y="454" type="curve"/>
      <point x="418" y="454"/>
      <point x="461" y="403"/>
      <point x="461" y="319" type="curve"/>
      <point x="461" y="209"/>
      <point x="461" y="110"/>
      <point x="461" y="0" type="curve"/>
      <point x="533" y="0"/>
      <point x="496" y="0"/>
      <point x="567" y="0" type="curve"/>
      <point x="567" y="113"/>
      <point x="567" y="215"/>
      <point x="567" y="327" type="curve"/>
      <point x="567" y="461"/>
      <point x="500" y="538"/>
      <point x="365" y="538" type="curve"/>
      <point x="243" y="538"/>
      <point x="150" y="461"/>
      <point x="112" y="328" type="curve"/>
      <point x="139" y="298"/>
      <point x="130" y="317"/>
    </contour>
    <contour>
      <point x="180" y="0" type="curve"/>
      <point x="180" y="178"/>
      <point x="180" y="355"/>
      <point x="180" y="533" type="curve"/>
      <point x="73" y="533"/>
      <point x="180" y="533"/>
      <point x="73" y="533" type="curve"/>
      <point x="73" y="355"/>
      <point x="73" y="178"/>
      <point x="73" y="0" type="curve"/>
      <point x="180" y="0"/>
      <point x="73" y="0"/>
    </contour>
    <contour>
      <point x="327" y="631" type="move" name="top"/>
    </contour>
    <contour>
      <point x="349" y="3" type="move" name="bottom"/>
    </contour>
  </outline>
</glyph>
<glyph name="o" format="1">
  <advance width="637"/>
  <unicode hex="006F"/>
  <outline>
    <contour>
      <point x="148" y="267" type="curve"/>
      <point x="148" y="379"/>
      <point x="203" y="456"/>
      <point x="313" y="456" type="curve"/>
      <point x="428" y="456"/>
      <point x="486" y="379"/>
      <point x="486" y="266" type="curve"/>
      <point x="486" y="150"/>
      <point x="429" y="78"/>
      <point x="321" y="78" type="curve"/>
      <point x="205" y="78"/>
      <point x="148" y="151"/>
      <point x="148" y="267" type="curve"/>
      <point x="84" y="267"/>
      <point x="107" y="267"/>
      <point x="44" y="267" type="curve"/>
      <point x="44" y="95"/>
      <point x="145" y="-5"/>
      <point x="316" y="-5" type="curve"/>
      <point x="489" y="-5"/>
      <point x="593" y="93"/>
      <point x="593" y="266" type="curve"/>
      <point x="593" y="435"/>
      <point x="491" y="538"/>
      <point x="318" y="538" type="curve"/>
      <point x="145" y="538"/>
      <point x="44" y="435"/>
      <point x="44" y="267" type="curve"/>
      <point x="107" y="267"/>
      <point x="84" y="267"/>
    </contour>
    <contour>
      <point x="316" y="632" type="move" name="top"/>
    </contour>
  </outline>
</glyph>
<glyph name="p" format="1">
  <advance width="660"/>
  <unicode hex="0070"/>
  <outline>
    <contour>
      <point x="149" y="333" type="curve"/>
      <point x="192" y="402"/>
      <point x="259" y="458"/>
      <point x="347" y="458" type="curve"/>
      <point x="456" y="458"/>
      <point x="510" y="378"/>
      <point x="510" y="267" type="curve"/>
      <point x="512" y="154"/>
      <point x="455" y="75"/>
      <point x="346" y="76" type="curve"/>
      <point x="267" y="76"/>
      <point x="208" y="108"/>
      <point x="151" y="160" type="curve"/>
      <point x="119" y="130"/>
      <point x="137" y="140"/>
      <point x="105" y="110" type="curve"/>
      <point x="174" y="37"/>
      <point x="254" y="-5"/>
      <point x="361" y="-5" type="curve"/>
      <point x="526" y="-5"/>
      <point x="616" y="107"/>
      <point x="616" y="271" type="curve"/>
      <point x="616" y="429"/>
      <point x="527" y="539"/>
      <point x="367" y="539" type="curve"/>
      <point x="253" y="539"/>
      <point x="168" y="479"/>
      <point x="112" y="395" type="curve"/>
      <point x="137" y="351"/>
      <point x="123" y="377"/>
    </contour>
    <contour>
      <point x="179" y="-300" type="curve"/>
      <point x="179" y="-22"/>
      <point x="179" y="255"/>
      <point x="179" y="533" type="curve"/>
      <point x="73" y="533"/>
      <point x="179" y="533"/>
      <point x="73" y="533" type="curve"/>
      <point x="73" y="255"/>
      <point x="73" y="-22"/>
      <point x="73" y="-300" type="curve"/>
      <point x="179" y="-300"/>
      <point x="73" y="-300"/>
    </contour>
  </outline>
</glyph>
<glyph name="q" format="1">
  <advance width="666"/>
  <unicode hex="0071"/>
  <outline>
    <contour>
      <point x="554" y="404" type="curve"/>
      <point x="487" y="487"/>
      <point x="404" y="538"/>
      <point x="298" y="538" type="curve"/>
      <point x="134" y="538"/>
      <point x="44" y="427"/>
      <point x="44" y="264" type="curve"/>
      <point x="44" y="101"/>
      <point x="139" y="-5"/>
      <point x="303" y="-5" type="curve"/>
      <point x="411" y="-5"/>
      <point x="494" y="53"/>
      <point x="563" y="136" type="curve"/>
      <point x="533" y="168"/>
      <point x="543" y="152"/>
      <point x="513" y="183" type="curve"/>
      <point x="465" y="116"/>
      <point x="399" y="76"/>
      <point x="318" y="76" type="curve"/>
      <point x="209" y="76"/>
      <point x="151" y="154"/>
      <point x="151" y="268" type="curve"/>
      <point x="151" y="379"/>
      <point x="209" y="456"/>
      <point x="316" y="456" type="curve"/>
      <point x="396" y="456"/>
      <point x="463" y="418"/>
      <point x="517" y="351" type="curve"/>
      <point x="540" y="385"/>
      <point x="530" y="369"/>
    </contour>
    <contour>
      <point x="593" y="-300" type="curve"/>
      <point x="593" y="-12"/>
      <point x="593" y="245"/>
      <point x="593" y="533" type="curve"/>
      <point x="517" y="533"/>
      <point x="557" y="533"/>
      <point x="481" y="533" type="curve"/>
      <point x="481" y="245"/>
      <point x="481" y="-12"/>
      <point x="481" y="-300" type="curve"/>
      <point x="557" y="-300"/>
      <point x="517" y="-300"/>
    </contour>
  </outline>
</glyph>
<glyph name="r" format="1">
  <advance width="404"/>
  <unicode hex="0072"/>
  <outline>
    <contour>
      <point x="180" y="0" type="curve"/>
      <point x="180" y="187"/>
      <point x="180" y="346"/>
      <point x="180" y="533" type="curve"/>
      <point x="107" y="533"/>
      <point x="146" y="533"/>
      <point x="73" y="533" type="curve"/>
      <point x="73" y="346"/>
      <point x="73" y="187"/>
      <point x="73" y="0" type="curve"/>
      <point x="146" y="0"/>
      <point x="107" y="0"/>
    </contour>
    <contour>
      <point x="154" y="298" type="curve"/>
      <point x="204" y="413"/>
      <point x="286" y="447"/>
      <point x="393" y="447" type="curve"/>
      <point x="393" y="509"/>
      <point x="393" y="476"/>
      <point x="393" y="538" type="curve"/>
      <point x="266" y="538"/>
      <point x="174" y="470"/>
      <point x="118" y="352" type="curve"/>
      <point x="144" y="318"/>
      <point x="128" y="332"/>
    </contour>
    <contour>
      <point x="159" y="632" type="move" name="top"/>
    </contour>
    <contour>
      <point x="155" y="0" type="move" name="bottom"/>
    </contour>
  </outline>
</glyph>
<glyph name="s" format="1">
  <advance width="505"/>
  <unicode hex="0073"/>
  <outline>
    <contour>
      <point x="35" y="48" type="curve"/>
      <point x="110" y="16"/>
      <point x="173" y="-5"/>
      <point x="251" y="-5" type="curve"/>
      <point x="380" y="-5"/>
      <point x="473" y="39"/>
      <point x="473" y="153" type="curve"/>
      <point x="472" y="262"/>
      <point x="377" y="283"/>
      <point x="263" y="314" type="curve" smooth="yes"/>
      <point x="199" y="332"/>
      <point x="144" y="349"/>
      <point x="144" y="398" type="curve"/>
      <point x="144" y="436"/>
      <point x="184" y="455"/>
      <point x="239" y="455" type="curve"/>
      <point x="288" y="455"/>
      <point x="345" y="439"/>
      <point x="383" y="419" type="curve"/>
      <point x="426" y="490"/>
      <point x="384" y="421"/>
      <point x="428" y="492" type="curve"/>
      <point x="383" y="517"/>
      <point x="307" y="538"/>
      <point x="242" y="538" type="curve"/>
      <point x="128" y="538"/>
      <point x="47" y="498"/>
      <point x="47" y="398" type="curve"/>
      <point x="47" y="298"/>
      <point x="123" y="264"/>
      <point x="229" y="236" type="curve" smooth="yes"/>
      <point x="300" y="216"/>
      <point x="371" y="205"/>
      <point x="370" y="150" type="curve"/>
      <point x="370" y="102"/>
      <point x="323" y="79"/>
      <point x="262" y="79" type="curve"/>
      <point x="198" y="79"/>
      <point x="149" y="95"/>
      <point x="83" y="122" type="curve"/>
      <point x="35" y="48"/>
      <point x="83" y="122"/>
    </contour>
    <contour>
      <point x="245" y="632" type="move" name="top"/>
    </contour>
    <contour>
      <point x="279" y="-9" type="move" name="bottom"/>
    </contour>
  </outline>
</glyph>
<glyph name="t" format="1">
  <advance width="435"/>
  <unicode hex="0074"/>
  <outline>
    <contour>
      <point x="24" y="452" type="curve"/>
      <point x="414" y="452" type="line"/>
      <point x="414" y="533"/>
      <point x="414" y="452"/>
      <point x="414" y="533" type="curve"/>
      <point x="24" y="533" type="line"/>
      <point x="24" y="452"/>
      <point x="24" y="533"/>
    </contour>
    <contour>
      <point x="389" y="99" type="curve"/>
      <point x="362" y="86"/>
      <point x="341" y="79"/>
      <point x="311" y="79" type="curve"/>
      <point x="259" y="79"/>
      <point x="238" y="110"/>
      <point x="238" y="165" type="curve"/>
      <point x="238" y="683" type="line"/>
      <point x="190" y="654"/>
      <point x="179" y="650"/>
      <point x="131" y="621" type="curve"/>
      <point x="131" y="161" type="line"/>
      <point x="131" y="51"/>
      <point x="191" y="-6"/>
      <point x="299" y="-6" type="curve"/>
      <point x="350" y="-6"/>
      <point x="385" y="8"/>
      <point x="424" y="28" type="curve"/>
      <point x="389" y="99"/>
      <point x="424" y="28"/>
    </contour>
    <contour>
      <point x="322" y="-8" type="move" name="bottom"/>
    </contour>
  </outline>
</glyph>
<glyph name="u" format="1">
  <advance width="627"/>
  <unicode hex="0075"/>
  <outline>
    <contour>
      <point x="555" y="0" type="curve"/>
      <point x="555" y="183"/>
      <point x="555" y="350"/>
      <point x="555" y="533" type="curve"/>
      <point x="483" y="533"/>
      <point x="520" y="533"/>
      <point x="448" y="533" type="curve"/>
      <point x="448" y="350"/>
      <point x="448" y="183"/>
      <point x="448" y="0" type="curve"/>
      <point x="520" y="0"/>
      <point x="483" y="0"/>
    </contour>
    <contour>
      <point x="475" y="223" type="curve"/>
      <point x="441" y="144"/>
      <point x="383" y="78"/>
      <point x="300" y="78" type="curve"/>
      <point x="218" y="78"/>
      <point x="174" y="126"/>
      <point x="174" y="209" type="curve"/>
      <point x="174" y="320"/>
      <point x="174" y="422"/>
      <point x="174" y="533" type="curve"/>
      <point x="102" y="533"/>
      <point x="139" y="533"/>
      <point x="67" y="533" type="curve"/>
      <point x="67" y="420"/>
      <point x="67" y="317"/>
      <point x="67" y="204" type="curve"/>
      <point x="67" y="71"/>
      <point x="145" y="-5"/>
      <point x="284" y="-5" type="curve"/>
      <point x="396" y="-5"/>
      <point x="474" y="74"/>
      <point x="521" y="182" type="curve"/>
      <point x="489" y="206"/>
      <point x="507" y="199"/>
    </contour>
    <contour>
      <point x="291" y="632" type="move" name="top"/>
    </contour>
    <contour>
      <point x="540" y="8" type="move" name="bottom"/>
    </contour>
  </outline>
</glyph>
<glyph name="v" format="1">
  <advance width="596"/>
  <unicode hex="0076"/>
  <outline>
    <contour>
      <point x="19" y="533" type="curve"/>
      <point x="91" y="355"/>
      <point x="164" y="178"/>
      <point x="236" y="0" type="curve"/>
      <point x="340" y="0"/>
      <point x="236" y="0"/>
      <point x="340" y="0" type="curve"/>
      <point x="268" y="178"/>
      <point x="200" y="355"/>
      <point x="128" y="533" type="curve"/>
      <point x="19" y="533"/>
      <point x="128" y="533"/>
    </contour>
    <contour>
      <point x="474" y="533" type="curve"/>
      <point x="249" y="0" type="line"/>
      <point x="354" y="0"/>
      <point x="249" y="0"/>
      <point x="354" y="0" type="curve"/>
      <point x="430" y="178"/>
      <point x="505" y="355"/>
      <point x="582" y="533" type="curve"/>
      <point x="474" y="533"/>
      <point x="582" y="533"/>
    </contour>
  </outline>
</glyph>
<glyph name="w" format="1">
  <advance width="933"/>
  <unicode hex="0077"/>
  <outline>
    <contour>
      <point x="311" y="0" type="curve"/>
      <point x="382" y="178"/>
      <point x="452" y="355"/>
      <point x="523" y="533" type="curve"/>
      <point x="420" y="533"/>
      <point x="523" y="533"/>
      <point x="420" y="533" type="curve"/>
      <point x="350" y="355"/>
      <point x="281" y="178"/>
      <point x="211" y="0" type="curve"/>
      <point x="311" y="0"/>
      <point x="211" y="0"/>
    </contour>
    <contour>
      <point x="813" y="533" type="curve"/>
      <point x="748" y="355"/>
      <point x="683" y="178"/>
      <point x="618" y="0" type="curve"/>
      <point x="717" y="0"/>
      <point x="618" y="0"/>
      <point x="717" y="0" type="curve"/>
      <point x="784" y="178"/>
      <point x="850" y="355"/>
      <point x="916" y="533" type="curve"/>
      <point x="813" y="533"/>
      <point x="916" y="533"/>
    </contour>
    <contour>
      <point x="427" y="533" type="curve"/>
      <point x="490" y="355"/>
      <point x="553" y="178"/>
      <point x="617" y="0" type="curve"/>
      <point x="717" y="0"/>
      <point x="617" y="0"/>
      <point x="717" y="0" type="curve"/>
      <point x="654" y="178"/>
      <point x="591" y="355"/>
      <point x="528" y="533" type="curve"/>
      <point x="427" y="533"/>
      <point x="528" y="533"/>
    </contour>
    <contour>
      <point x="21" y="533" type="curve"/>
      <point x="84" y="355"/>
      <point x="147" y="178"/>
      <point x="210" y="0" type="curve"/>
      <point x="310" y="0"/>
      <point x="210" y="0"/>
      <point x="310" y="0" type="curve"/>
      <point x="247" y="178"/>
      <point x="185" y="355"/>
      <point x="122" y="533" type="curve"/>
      <point x="21" y="533"/>
      <point x="122" y="533"/>
    </contour>
  </outline>
</glyph>
<glyph name="x" format="1">
  <advance width="612"/>
  <unicode hex="0078"/>
  <outline>
    <contour>
      <point x="599" y="0" type="curve"/>
      <point x="547" y="63"/>
      <point x="186" y="470"/>
      <point x="134" y="533" type="curve"/>
      <point x="-11" y="533"/>
      <point x="166" y="533"/>
      <point x="21" y="533" type="curve"/>
      <point x="72" y="470"/>
      <point x="427" y="63"/>
      <point x="478" y="0" type="curve"/>
      <point x="599" y="0"/>
      <point x="478" y="0"/>
    </contour>
    <contour>
      <point x="482" y="533" type="curve"/>
      <point x="430" y="470"/>
      <point x="63" y="63"/>
      <point x="10" y="0" type="curve"/>
      <point x="133" y="0"/>
      <point x="10" y="0"/>
      <point x="133" y="0" type="curve"/>
      <point x="185" y="63"/>
      <point x="545" y="470"/>
      <point x="597" y="533" type="curve"/>
      <point x="438" y="533"/>
      <point x="641" y="533"/>
    </contour>
  </outline>
</glyph>
<glyph name="y" format="1">
  <advance width="621"/>
  <unicode hex="0079"/>
  <outline>
    <contour>
      <point x="349" y="-7" type="curve"/>
      <point x="311" y="82"/>
      <point x="162" y="443"/>
      <point x="124" y="533" type="curve"/>
      <point x="14" y="533"/>
      <point x="124" y="533"/>
      <point x="14" y="533" type="curve"/>
      <point x="54" y="444"/>
      <point x="213" y="74"/>
      <point x="253" y="-15" type="curve"/>
      <point x="349" y="-15"/>
      <point x="253" y="-7"/>
    </contour>
    <contour>
      <point x="219" y="-300" type="curve"/>
      <point x="284" y="-163"/>
      <point x="550" y="396"/>
      <point x="615" y="533" type="curve"/>
      <point x="506" y="533"/>
      <point x="615" y="533"/>
      <point x="506" y="533" type="curve"/>
      <point x="440" y="396"/>
      <point x="174" y="-163"/>
      <point x="109" y="-300" type="curve"/>
      <point x="219" y="-300"/>
      <point x="109" y="-300"/>
    </contour>
    <contour>
      <point x="313" y="632" type="move" name="top"/>
    </contour>
  </outline>
</glyph>
<glyph name="braceright" format="1">
  <advance width="305"/>
  <unicode hex="007D"/>
  <outline>
    <contour>
      <point x="36" y="-113" type="curve"/>
      <point x="141" y="-113"/>
      <point x="205" y="-49"/>
      <point x="205" y="57" type="curve"/>
      <point x="205" y="111"/>
      <point x="205" y="167"/>
      <point x="205" y="221" type="curve"/>
      <point x="205" y="269"/>
      <point x="230" y="298"/>
      <point x="277" y="298" type="curve"/>
      <point x="277" y="383"/>
      <point x="277" y="298"/>
      <point x="277" y="383" type="curve"/>
      <point x="172" y="383"/>
      <point x="108" y="317"/>
      <point x="108" y="214" type="curve"/>
      <point x="108" y="160"/>
      <point x="108" y="106"/>
      <point x="108" y="53" type="curve"/>
      <point x="108" y="2"/>
      <point x="86" y="-32"/>
      <point x="36" y="-32" type="curve"/>
      <point x="36" y="-113"/>
      <point x="36" y="-32"/>
    </contour>
    <contour>
      <point x="36" y="712" type="curve"/>
      <point x="87" y="712"/>
      <point x="108" y="677"/>
      <point x="108" y="626" type="curve"/>
      <point x="108" y="573"/>
      <point x="108" y="521"/>
      <point x="108" y="468" type="curve"/>
      <point x="108" y="362"/>
      <point x="172" y="298"/>
      <point x="277" y="298" type="curve"/>
      <point x="277" y="383"/>
      <point x="277" y="298"/>
      <point x="277" y="383" type="curve"/>
      <point x="230" y="383"/>
      <point x="205" y="409"/>
      <point x="205" y="456" type="curve"/>
      <point x="205" y="513"/>
      <point x="205" y="569"/>
      <point x="205" y="626" type="curve"/>
      <point x="205" y="731"/>
      <point x="141" y="793"/>
      <point x="36" y="793" type="curve"/>
      <point x="36" y="712"/>
      <point x="36" y="793"/>
    </contour>
  </outline>
</glyph>
<glyph name="asciitilde" format="1">
  <advance width="701"/>
  <unicode hex="007E"/>
  <outline>
    <contour>
      <point x="558" y="368" type="curve"/>
      <point x="542" y="324"/>
      <point x="523" y="284"/>
      <point x="479" y="284" type="curve"/>
      <point x="438" y="284"/>
      <point x="413" y="295"/>
      <point x="380" y="319" type="curve"/>
      <point x="329" y="357"/>
      <point x="294" y="377"/>
      <point x="230" y="377" type="curve"/>
      <point x="135" y="377"/>
      <point x="87" y="329"/>
      <point x="59" y="239" type="curve"/>
      <point x="94" y="225"/>
      <point x="104" y="221"/>
      <point x="139" y="207" type="curve"/>
      <point x="154" y="257"/>
      <point x="177" y="294"/>
      <point x="226" y="294" type="curve"/>
      <point x="263" y="294"/>
      <point x="284" y="284"/>
      <point x="313" y="262" type="curve"/>
      <point x="367" y="222"/>
      <point x="405" y="202"/>
      <point x="473" y="201" type="curve"/>
      <point x="566" y="201"/>
      <point x="608" y="251"/>
      <point x="642" y="336" type="curve"/>
      <point x="605" y="350"/>
      <point x="595" y="354"/>
    </contour>
  </outline>
</glyph>
<glyph name="exclamdown" format="1">
  <advance width="256"/>
  <unicode hex="00A1"/>
  <outline>
    <contour>
      <point x="83" y="304" type="line"/>
      <point x="71" y="-189" type="line"/>
      <point x="187" y="-189" type="line"/>
      <point x="176" y="304" type="line"/>
    </contour>
    <contour>
      <point x="68" y="488" type="curve"/>
      <point x="68" y="451"/>
      <point x="94" y="434"/>
      <point x="130" y="433" type="curve"/>
      <point x="166" y="433"/>
      <point x="190" y="453"/>
      <point x="190" y="487" type="curve"/>
      <point x="72" y="488"/>
      <point x="186" y="487"/>
      <point x="68" y="488" type="curve"/>
      <point x="68" y="524"/>
      <point x="94" y="541"/>
      <point x="131" y="541" type="curve"/>
      <point x="167" y="541"/>
      <point x="190" y="523"/>
      <point x="190" y="487" type="curve"/>
      <point x="72" y="488"/>
      <point x="186" y="487"/>
    </contour>
  </outline>
</glyph>
<glyph name="cent" format="1">
  <advance width="670"/>
  <unicode hex="00A2"/>
  <outline>
    <contour>
      <point x="410" y="-53" type="curve"/>
      <point x="410" y="-13"/>
      <point x="410" y="27"/>
      <point x="410" y="67" type="curve"/>
      <point x="303" y="67"/>
      <point x="410" y="67"/>
      <point x="303" y="67" type="curve"/>
      <point x="303" y="27"/>
      <point x="303" y="-13"/>
      <point x="303" y="-53" type="curve"/>
      <point x="410" y="-53"/>
      <point x="303" y="-53"/>
    </contour>
    <contour>
      <point x="325" y="778" type="curve"/>
      <point x="325" y="742"/>
      <point x="325" y="706"/>
      <point x="325" y="670" type="curve"/>
      <point x="431" y="670"/>
      <point x="325" y="670"/>
      <point x="431" y="670" type="curve"/>
      <point x="431" y="706"/>
      <point x="431" y="742"/>
      <point x="431" y="778" type="curve"/>
      <point x="325" y="778"/>
      <point x="431" y="778"/>
    </contour>
    <contour>
      <point x="629" y="612" type="curve"/>
      <point x="548" y="664"/>
      <point x="481" y="684"/>
      <point x="386" y="684" type="curve"/>
      <point x="178" y="684"/>
      <point x="42" y="568"/>
      <point x="42" y="364" type="curve"/>
      <point x="42" y="170"/>
      <point x="157" y="48"/>
      <point x="351" y="48" type="curve"/>
      <point x="462" y="48"/>
      <point x="539" y="75"/>
      <point x="628" y="142" type="curve"/>
      <point x="568" y="209"/>
      <point x="628" y="142"/>
      <point x="568" y="209" type="curve"/>
      <point x="496" y="159"/>
      <point x="442" y="133"/>
      <point x="361" y="133" type="curve"/>
      <point x="224" y="133"/>
      <point x="148" y="227"/>
      <point x="148" y="368" type="curve"/>
      <point x="148" y="512"/>
      <point x="236" y="599"/>
      <point x="376" y="599" type="curve"/>
      <point x="453" y="599"/>
      <point x="506" y="582"/>
      <point x="576" y="542" type="curve"/>
      <point x="629" y="612"/>
      <point x="576" y="542"/>
    </contour>
  </outline>
</glyph>
<glyph name="sterling" format="1">
  <advance width="529"/>
  <unicode hex="00A3"/>
  <outline>
    <contour>
      <point x="463" y="81" type="curve"/>
      <point x="323" y="81"/>
      <point x="181" y="81"/>
      <point x="41" y="81" type="curve"/>
      <point x="41" y="0"/>
      <point x="41" y="81"/>
      <point x="41" y="0" type="curve"/>
      <point x="181" y="0"/>
      <point x="323" y="0"/>
      <point x="463" y="0" type="curve"/>
      <point x="463" y="81"/>
      <point x="463" y="0"/>
    </contour>
    <contour>
      <point x="412" y="416" type="curve"/>
      <point x="300" y="416"/>
      <point x="185" y="416"/>
      <point x="74" y="416" type="curve"/>
      <point x="74" y="335"/>
      <point x="74" y="416"/>
      <point x="74" y="335" type="curve"/>
      <point x="185" y="335"/>
      <point x="300" y="335"/>
      <point x="412" y="335" type="curve"/>
      <point x="412" y="416"/>
      <point x="412" y="335"/>
    </contour>
    <contour>
      <point x="491" y="666" type="curve"/>
      <point x="439" y="707"/>
      <point x="396" y="721"/>
      <point x="334" y="721" type="curve"/>
      <point x="162" y="721"/>
      <point x="94" y="561"/>
      <point x="140" y="367" type="curve"/>
      <point x="174" y="217"/>
      <point x="152" y="81"/>
      <point x="41" y="81" type="curve"/>
      <point x="41" y="0"/>
      <point x="41" y="81"/>
      <point x="41" y="0" type="curve"/>
      <point x="228" y="0"/>
      <point x="288" y="176"/>
      <point x="241" y="384" type="curve"/>
      <point x="210" y="521"/>
      <point x="233" y="644"/>
      <point x="328" y="644" type="curve"/>
      <point x="373" y="644"/>
      <point x="402" y="630"/>
      <point x="439" y="606" type="curve"/>
      <point x="491" y="666"/>
      <point x="439" y="606"/>
    </contour>
  </outline>
</glyph>
<glyph name="currency" format="1">
  <advance width="673"/>
  <unicode hex="00A4"/>
  <outline>
    <contour>
      <point x="235" y="315" type="curve"/>
      <point x="235" y="378"/>
      <point x="272" y="419"/>
      <point x="335" y="419" type="curve"/>
      <point x="402" y="419"/>
      <point x="438" y="380"/>
      <point x="438" y="314" type="curve"/>
      <point x="438" y="249"/>
      <point x="405" y="204"/>
      <point x="342" y="204" type="curve"/>
      <point x="273" y="204"/>
      <point x="235" y="246"/>
      <point x="235" y="315" type="curve"/>
      <point x="128" y="315"/>
      <point x="237" y="315"/>
      <point x="131" y="315" type="curve"/>
      <point x="131" y="192"/>
      <point x="214" y="123"/>
      <point x="339" y="123" type="curve"/>
      <point x="463" y="123"/>
      <point x="543" y="196"/>
      <point x="543" y="317" type="curve"/>
      <point x="543" y="433"/>
      <point x="464" y="500"/>
      <point x="345" y="500" type="curve"/>
      <point x="217" y="500"/>
      <point x="131" y="435"/>
      <point x="131" y="315" type="curve"/>
      <point x="237" y="315"/>
      <point x="128" y="315"/>
    </contour>
    <contour>
      <point x="466" y="349" type="line"/>
      <point x="622" y="495" type="line"/>
      <point x="541" y="576" type="line"/>
      <point x="395" y="420" type="line"/>
    </contour>
    <contour>
      <point x="397" y="210" type="line"/>
      <point x="543" y="53" type="line"/>
      <point x="624" y="135" type="line"/>
      <point x="468" y="281" type="line"/>
    </contour>
    <contour>
      <point x="205" y="281" type="line"/>
      <point x="49" y="136" type="line"/>
      <point x="130" y="54" type="line"/>
      <point x="276" y="210" type="line"/>
    </contour>
    <contour>
      <point x="279" y="421" type="line"/>
      <point x="133" y="577" type="line"/>
      <point x="52" y="496" type="line"/>
      <point x="208" y="350" type="line"/>
    </contour>
  </outline>
</glyph>
<glyph name="yen" format="1">
  <advance width="682"/>
  <unicode hex="00A5"/>
  <outline>
    <contour>
      <point x="576" y="414" type="curve"/>
      <point x="502" y="414"/>
      <point x="429" y="414"/>
      <point x="356" y="414" type="curve"/>
      <point x="356" y="325"/>
      <point x="356" y="414"/>
      <point x="356" y="325" type="curve"/>
      <point x="429" y="325"/>
      <point x="502" y="325"/>
      <point x="576" y="325" type="curve"/>
      <point x="576" y="414"/>
      <point x="576" y="325"/>
    </contour>
    <contour>
      <point x="326" y="414" type="curve"/>
      <point x="254" y="414"/>
      <point x="181" y="414"/>
      <point x="110" y="414" type="curve"/>
      <point x="110" y="325"/>
      <point x="110" y="414"/>
      <point x="110" y="325" type="curve"/>
      <point x="181" y="325"/>
      <point x="254" y="325"/>
      <point x="326" y="325" type="curve"/>
      <point x="326" y="414"/>
      <point x="326" y="325"/>
    </contour>
    <contour>
      <point x="576" y="270" type="curve"/>
      <point x="420" y="270"/>
      <point x="265" y="270"/>
      <point x="110" y="270" type="curve"/>
      <point x="110" y="181"/>
      <point x="110" y="270"/>
      <point x="110" y="181" type="curve"/>
      <point x="265" y="181"/>
      <point x="420" y="181"/>
      <point x="576" y="181" type="curve"/>
      <point x="576" y="270"/>
      <point x="576" y="181"/>
    </contour>
    <contour>
      <point x="33" y="722" type="curve"/>
      <point x="111" y="599"/>
      <point x="205" y="461"/>
      <point x="283" y="337" type="curve"/>
      <point x="391" y="337"/>
      <point x="276" y="338"/>
      <point x="385" y="338" type="curve"/>
      <point x="306" y="467"/>
      <point x="229" y="593"/>
      <point x="149" y="722" type="curve"/>
      <point x="51" y="722"/>
      <point x="131" y="722"/>
    </contour>
    <contour>
      <point x="542" y="722" type="curve"/>
      <point x="457" y="593"/>
      <point x="375" y="467"/>
      <point x="290" y="338" type="curve"/>
      <point x="398" y="338"/>
      <point x="286" y="337"/>
      <point x="395" y="337" type="curve"/>
      <point x="477" y="461"/>
      <point x="570" y="598"/>
      <point x="653" y="722" type="curve"/>
      <point x="555" y="722"/>
      <point x="641" y="722"/>
    </contour>
    <contour>
      <point x="397" y="0" type="curve"/>
      <point x="397" y="115"/>
      <point x="397" y="228"/>
      <point x="397" y="343" type="curve"/>
      <point x="280" y="343"/>
      <point x="397" y="343"/>
      <point x="280" y="343" type="curve"/>
      <point x="280" y="228"/>
      <point x="280" y="115"/>
      <point x="280" y="0" type="curve"/>
      <point x="397" y="0"/>
      <point x="280" y="0"/>
    </contour>
  </outline>
</glyph>
<glyph name="section" format="1">
  <advance width="533"/>
  <unicode hex="00A7"/>
  <outline>
    <contour>
      <point x="438" y="704" type="curve"/>
      <point x="380" y="734"/>
      <point x="335" y="749"/>
      <point x="270" y="749" type="curve"/>
      <point x="159" y="749"/>
      <point x="80" y="703"/>
      <point x="80" y="605" type="curve"/>
      <point x="80" y="517"/>
      <point x="141" y="473"/>
      <point x="229" y="445" type="curve"/>
      <point x="302" y="422"/>
      <point x="385" y="419"/>
      <point x="385" y="358" type="curve"/>
      <point x="385" y="300"/>
      <point x="338" y="275"/>
      <point x="273" y="264" type="curve"/>
      <point x="336" y="199"/>
      <point x="273" y="264"/>
      <point x="336" y="199" type="curve"/>
      <point x="430" y="220"/>
      <point x="492" y="269"/>
      <point x="492" y="361" type="curve"/>
      <point x="491" y="469"/>
      <point x="392" y="491"/>
      <point x="282" y="522" type="curve"/>
      <point x="230" y="538"/>
      <point x="183" y="555"/>
      <point x="183" y="605" type="curve"/>
      <point x="183" y="647"/>
      <point x="216" y="669"/>
      <point x="265" y="669" type="curve"/>
      <point x="315" y="669"/>
      <point x="346" y="658"/>
      <point x="394" y="636" type="curve"/>
      <point x="438" y="704"/>
      <point x="394" y="636"/>
    </contour>
    <contour>
      <point x="196" y="523" type="curve"/>
      <point x="107" y="498"/>
      <point x="44" y="455"/>
      <point x="44" y="366" type="curve"/>
      <point x="44" y="265"/>
      <point x="129" y="232"/>
      <point x="233" y="203" type="curve"/>
      <point x="293" y="184"/>
      <point x="357" y="172"/>
      <point x="357" y="120" type="curve"/>
      <point x="357" y="75"/>
      <point x="319" y="54"/>
      <point x="269" y="54" type="curve"/>
      <point x="213" y="54"/>
      <point x="178" y="68"/>
      <point x="125" y="96" type="curve"/>
      <point x="72" y="34"/>
      <point x="125" y="96"/>
      <point x="72" y="34" type="curve"/>
      <point x="136" y="-9"/>
      <point x="190" y="-27"/>
      <point x="266" y="-27" type="curve"/>
      <point x="377" y="-27"/>
      <point x="462" y="18"/>
      <point x="462" y="122" type="curve"/>
      <point x="460" y="213"/>
      <point x="392" y="253"/>
      <point x="300" y="279" type="curve"/>
      <point x="228" y="301"/>
      <point x="151" y="308"/>
      <point x="151" y="371" type="curve"/>
      <point x="151" y="424"/>
      <point x="192" y="446"/>
      <point x="249" y="463" type="curve"/>
      <point x="196" y="523"/>
      <point x="249" y="463"/>
    </contour>
  </outline>
</glyph>
<glyph name="dieresis" format="1">
  <advance width="421"/>
  <unicode hex="00A8"/>
  <outline>
    <contour>
      <point x="173" y="635" type="curve"/>
      <point x="173" y="671"/>
      <point x="147" y="689"/>
      <point x="111" y="689" type="curve"/>
      <point x="75" y="689"/>
      <point x="51" y="669"/>
      <point x="51" y="635" type="curve"/>
      <point x="168" y="635"/>
      <point x="55" y="635"/>
      <point x="173" y="635" type="curve"/>
      <point x="173" y="598"/>
      <point x="147" y="581"/>
      <point x="110" y="581" type="curve"/>
      <point x="74" y="581"/>
      <point x="51" y="600"/>
      <point x="51" y="635" type="curve"/>
      <point x="168" y="635"/>
      <point x="55" y="635"/>
    </contour>
    <contour>
      <point x="360" y="635" type="curve"/>
      <point x="360" y="671"/>
      <point x="334" y="689"/>
      <point x="298" y="689" type="curve"/>
      <point x="262" y="689"/>
      <point x="238" y="669"/>
      <point x="238" y="635" type="curve"/>
      <point x="356" y="635"/>
      <point x="243" y="635"/>
      <point x="360" y="635" type="curve"/>
      <point x="360" y="598"/>
      <point x="334" y="581"/>
      <point x="298" y="581" type="curve"/>
      <point x="261" y="581"/>
      <point x="238" y="600"/>
      <point x="238" y="635" type="curve"/>
      <point x="356" y="635"/>
      <point x="243" y="635"/>
    </contour>
    <contour>
      <point x="205" y="585" type="move" name="_top"/>
    </contour>
  </outline>
</glyph>
<glyph name="copyright" format="1">
  <advance width="816"/>
  <unicode hex="00A9"/>
  <outline>
    <contour>
      <point x="135" y="323" type="curve"/>
      <point x="135" y="482"/>
      <point x="248" y="579"/>
      <point x="411" y="579" type="curve"/>
      <point x="569" y="579"/>
      <point x="680" y="479"/>
      <point x="680" y="321" type="curve"/>
      <point x="680" y="167"/>
      <point x="573" y="69"/>
      <point x="418" y="69" type="curve"/>
      <point x="256" y="69"/>
      <point x="135" y="163"/>
      <point x="135" y="323" type="curve"/>
      <point x="47" y="323"/>
      <point x="135" y="323"/>
      <point x="48" y="323" type="curve"/>
      <point x="48" y="121"/>
      <point x="204" y="3"/>
      <point x="415" y="3" type="curve"/>
      <point x="619" y="3"/>
      <point x="765" y="125"/>
      <point x="765" y="324" type="curve"/>
      <point x="765" y="524"/>
      <point x="616" y="645"/>
      <point x="411" y="645" type="curve"/>
      <point x="202" y="645"/>
      <point x="48" y="525"/>
      <point x="48" y="323" type="curve"/>
      <point x="135" y="323"/>
      <point x="47" y="323"/>
    </contour>
    <contour>
      <point x="560" y="456" type="curve"/>
      <point x="520" y="490"/>
      <point x="473" y="508"/>
      <point x="417" y="508" type="curve"/>
      <point x="295" y="508"/>
      <point x="216" y="440"/>
      <point x="216" y="322" type="curve"/>
      <point x="216" y="208"/>
      <point x="286" y="141"/>
      <point x="401" y="141" type="curve"/>
      <point x="466" y="141"/>
      <point x="512" y="152"/>
      <point x="563" y="193" type="curve"/>
      <point x="518" y="241"/>
      <point x="563" y="193"/>
      <point x="518" y="241" type="curve"/>
      <point x="479" y="217"/>
      <point x="448" y="207"/>
      <point x="405" y="207" type="curve"/>
      <point x="336" y="207"/>
      <point x="300" y="254"/>
      <point x="300" y="325" type="curve"/>
      <point x="300" y="397"/>
      <point x="340" y="441"/>
      <point x="413" y="441" type="curve"/>
      <point x="444" y="441"/>
      <point x="476" y="434"/>
      <point x="512" y="413" type="curve"/>
      <point x="563" y="456"/>
      <point x="510" y="412"/>
    </contour>
  </outline>
</glyph>
<glyph name="ordfeminine" format="1">
  <advance width="421"/>
  <unicode hex="00AA"/>
  <outline>
    <contour>
      <point x="357" y="426" type="curve"/>
      <point x="357" y="512"/>
      <point x="357" y="586"/>
      <point x="357" y="671" type="curve"/>
      <point x="357" y="750"/>
      <point x="293" y="775"/>
      <point x="210" y="775" type="curve"/>
      <point x="148" y="775"/>
      <point x="101" y="754"/>
      <point x="64" y="724" type="curve"/>
      <point x="90" y="681"/>
      <point x="69" y="719"/>
      <point x="95" y="676" type="curve"/>
      <point x="119" y="697"/>
      <point x="153" y="717"/>
      <point x="200" y="717" type="curve"/>
      <point x="247" y="717"/>
      <point x="284" y="703"/>
      <point x="284" y="659" type="curve"/>
      <point x="284" y="578"/>
      <point x="284" y="507"/>
      <point x="284" y="426" type="curve"/>
      <point x="352" y="426"/>
      <point x="290" y="426"/>
    </contour>
    <contour>
      <point x="319" y="647" type="curve"/>
      <point x="266" y="641"/>
      <point x="233" y="639"/>
      <point x="181" y="633" type="curve"/>
      <point x="103" y="624"/>
      <point x="45" y="600"/>
      <point x="45" y="528" type="curve"/>
      <point x="45" y="456"/>
      <point x="97" y="422"/>
      <point x="174" y="422" type="curve"/>
      <point x="250" y="422"/>
      <point x="288" y="466"/>
      <point x="338" y="522" type="curve"/>
      <point x="305" y="549"/>
      <point x="334" y="525"/>
      <point x="302" y="552" type="curve"/>
      <point x="270" y="510"/>
      <point x="239" y="478"/>
      <point x="187" y="478" type="curve"/>
      <point x="145" y="478"/>
      <point x="117" y="493"/>
      <point x="117" y="529" type="curve"/>
      <point x="117" y="563"/>
      <point x="145" y="578"/>
      <point x="180" y="582" type="curve"/>
      <point x="235" y="589"/>
      <point x="267" y="592"/>
      <point x="322" y="599" type="curve"/>
      <point x="319" y="642"/>
      <point x="322" y="603"/>
    </contour>
  </outline>
</glyph>
<glyph name="guillemotleft" format="1">
  <advance width="577"/>
  <unicode hex="00AB"/>
  <outline>
    <contour>
      <point x="268" y="454" type="curve"/>
      <point x="230" y="432"/>
      <point x="79" y="353"/>
      <point x="40" y="331" type="curve"/>
      <point x="40" y="242"/>
      <point x="40" y="325"/>
      <point x="40" y="236" type="curve"/>
      <point x="79" y="258"/>
      <point x="230" y="340"/>
      <point x="268" y="363" type="curve"/>
      <point x="268" y="451"/>
      <point x="268" y="366"/>
    </contour>
    <contour>
      <point x="268" y="206" type="curve"/>
      <point x="230" y="228"/>
      <point x="79" y="308"/>
      <point x="40" y="331" type="curve"/>
      <point x="40" y="242"/>
      <point x="40" y="325"/>
      <point x="40" y="236" type="curve"/>
      <point x="79" y="213"/>
      <point x="230" y="136"/>
      <point x="268" y="114" type="curve"/>
      <point x="268" y="203"/>
      <point x="268" y="117"/>
    </contour>
    <contour>
      <point x="512" y="454" type="curve"/>
      <point x="474" y="432"/>
      <point x="323" y="353"/>
      <point x="285" y="331" type="curve"/>
      <point x="285" y="242"/>
      <point x="285" y="325"/>
      <point x="285" y="236" type="curve"/>
      <point x="323" y="258"/>
      <point x="474" y="340"/>
      <point x="512" y="363" type="curve"/>
      <point x="512" y="451"/>
      <point x="512" y="366"/>
    </contour>
    <contour>
      <point x="513" y="206" type="curve"/>
      <point x="475" y="228"/>
      <point x="323" y="308"/>
      <point x="285" y="331" type="curve"/>
      <point x="285" y="242"/>
      <point x="285" y="325"/>
      <point x="285" y="236" type="curve"/>
      <point x="323" y="213"/>
      <point x="475" y="136"/>
      <point x="513" y="114" type="curve"/>
      <point x="513" y="203"/>
      <point x="513" y="117"/>
    </contour>
  </outline>
</glyph>
<glyph name="logicalnot" format="1">
  <advance width="664"/>
  <unicode hex="00AC"/>
  <outline>
    <contour>
      <point x="67" y="268" type="curve"/>
      <point x="593" y="268" type="line"/>
      <point x="593" y="357"/>
      <point x="593" y="268"/>
      <point x="593" y="357" type="curve"/>
      <point x="67" y="357" type="line"/>
      <point x="67" y="268"/>
      <point x="67" y="357"/>
    </contour>
    <contour>
      <point x="593" y="144" type="curve"/>
      <point x="593" y="357" type="line"/>
      <point x="487" y="357"/>
      <point x="597" y="357"/>
      <point x="491" y="357" type="curve"/>
      <point x="491" y="144" type="line"/>
      <point x="597" y="144"/>
      <point x="487" y="144"/>
    </contour>
  </outline>
</glyph>
<glyph name="registered" format="1">
  <advance width="818"/>
  <unicode hex="00AE"/>
  <outline>
    <contour>
      <point x="129" y="322" type="curve"/>
      <point x="129" y="490"/>
      <point x="243" y="585"/>
      <point x="413" y="585" type="curve"/>
      <point x="580" y="585"/>
      <point x="690" y="487"/>
      <point x="690" y="320" type="curve"/>
      <point x="690" y="158"/>
      <point x="584" y="62"/>
      <point x="421" y="62" type="curve"/>
      <point x="248" y="62"/>
      <point x="129" y="153"/>
      <point x="129" y="322" type="curve"/>
      <point x="95" y="322"/>
      <point x="85" y="322"/>
      <point x="51" y="322" type="curve"/>
      <point x="51" y="114"/>
      <point x="202" y="2"/>
      <point x="417" y="2" type="curve"/>
      <point x="626" y="2"/>
      <point x="767" y="119"/>
      <point x="767" y="323" type="curve"/>
      <point x="767" y="529"/>
      <point x="624" y="645"/>
      <point x="413" y="645" type="curve"/>
      <point x="199" y="645"/>
      <point x="51" y="530"/>
      <point x="51" y="322" type="curve"/>
      <point x="85" y="322"/>
      <point x="95" y="322"/>
    </contour>
    <contour>
      <point x="381" y="315" type="curve"/>
      <point x="401" y="287"/>
      <point x="464" y="172"/>
      <point x="484" y="144" type="curve"/>
      <point x="530" y="144"/>
      <point x="516" y="143"/>
      <point x="569" y="143" type="curve"/>
      <point x="549" y="173"/>
      <point x="487" y="282"/>
      <point x="467" y="311" type="curve"/>
      <point x="370" y="311"/>
      <point x="478" y="315"/>
    </contour>
    <contour>
      <point x="370" y="144" type="curve"/>
      <point x="370" y="253"/>
      <point x="370" y="393"/>
      <point x="370" y="502" type="curve"/>
      <point x="320" y="502"/>
      <point x="339" y="503"/>
      <point x="287" y="503" type="curve"/>
      <point x="287" y="394"/>
      <point x="287" y="253"/>
      <point x="287" y="144" type="curve"/>
      <point x="341" y="144"/>
      <point x="316" y="144"/>
    </contour>
    <contour>
      <point x="332" y="278" type="curve"/>
      <point x="352" y="278"/>
      <point x="373" y="278"/>
      <point x="393" y="278" type="curve"/>
      <point x="484" y="278"/>
      <point x="549" y="306"/>
      <point x="549" y="392" type="curve"/>
      <point x="549" y="467"/>
      <point x="491" y="503"/>
      <point x="412" y="503" type="curve"/>
      <point x="399" y="503"/>
      <point x="352" y="503"/>
      <point x="339" y="503" type="curve"/>
      <point x="287" y="449"/>
      <point x="374" y="503"/>
      <point x="287" y="437" type="curve"/>
      <point x="323" y="437"/>
      <point x="360" y="437"/>
      <point x="396" y="437" type="curve"/>
      <point x="436" y="437"/>
      <point x="466" y="425"/>
      <point x="466" y="388" type="curve"/>
      <point x="466" y="354"/>
      <point x="441" y="344"/>
      <point x="405" y="344" type="curve"/>
      <point x="381" y="344"/>
      <point x="356" y="344"/>
      <point x="332" y="344" type="curve"/>
      <point x="332" y="278"/>
      <point x="332" y="344"/>
    </contour>
  </outline>
</glyph>
<glyph name="macron" format="1">
  <advance width="346"/>
  <unicode hex="00AF"/>
  <outline>
    <contour>
      <point x="265" y="673" type="curve"/>
      <point x="186" y="673"/>
      <point x="108" y="673"/>
      <point x="30" y="673" type="curve"/>
      <point x="30" y="593"/>
      <point x="30" y="673"/>
      <point x="30" y="593" type="curve"/>
      <point x="108" y="593"/>
      <point x="186" y="593"/>
      <point x="265" y="593" type="curve"/>
      <point x="265" y="673"/>
      <point x="265" y="593"/>
    </contour>
    <contour>
      <point x="149" y="593" type="move" name="_top"/>
    </contour>
  </outline>
</glyph>
<glyph name="degree" format="1">
  <advance width="489"/>
  <unicode hex="00B0"/>
  <outline>
    <contour>
      <point x="444" y="508" type="curve"/>
      <point x="444" y="631"/>
      <point x="368" y="706"/>
      <point x="245" y="706" type="curve"/>
      <point x="122" y="706"/>
      <point x="46" y="631"/>
      <point x="46" y="509" type="curve"/>
      <point x="115" y="509"/>
      <point x="68" y="509"/>
      <point x="137" y="509" type="curve"/>
      <point x="137" y="580"/>
      <point x="172" y="629"/>
      <point x="243" y="629" type="curve"/>
      <point x="313" y="629"/>
      <point x="351" y="581"/>
      <point x="351" y="508" type="curve"/>
      <point x="351" y="433"/>
      <point x="316" y="382"/>
      <point x="245" y="382" type="curve"/>
      <point x="173" y="382"/>
      <point x="137" y="434"/>
      <point x="137" y="509" type="curve"/>
      <point x="68" y="509"/>
      <point x="115" y="509"/>
      <point x="46" y="509" type="curve"/>
      <point x="46" y="384"/>
      <point x="119" y="305"/>
      <point x="243" y="305" type="curve"/>
      <point x="368" y="305"/>
      <point x="444" y="383"/>
    </contour>
  </outline>
</glyph>
<glyph name="plusminus" format="1">
  <advance width="671"/>
  <unicode hex="00B1"/>
  <outline>
    <contour>
      <point x="54" y="30" type="line"/>
      <point x="617" y="30" type="line"/>
      <point x="617" y="118" type="line"/>
      <point x="54" y="118" type="line"/>
    </contour>
    <contour>
      <point x="54" y="268" type="curve"/>
      <point x="617" y="268" type="line"/>
      <point x="617" y="357"/>
      <point x="617" y="268"/>
      <point x="617" y="357" type="curve"/>
      <point x="54" y="357" type="line"/>
      <point x="54" y="268"/>
      <point x="54" y="357"/>
    </contour>
    <contour>
      <point x="386" y="30" type="curve"/>
      <point x="386" y="585" type="line"/>
      <point x="280" y="585"/>
      <point x="393" y="585"/>
      <point x="286" y="585" type="curve"/>
      <point x="286" y="30" type="line"/>
      <point x="393" y="30"/>
      <point x="280" y="30"/>
    </contour>
  </outline>
</glyph>
<glyph name="twosuperior" format="1">
  <advance width="478"/>
  <unicode hex="00B2"/>
  <outline>
    <contour>
      <point x="46" y="308" type="curve"/>
      <point x="189" y="308"/>
      <point x="313" y="308"/>
      <point x="425" y="308" type="curve"/>
      <point x="425" y="349"/>
      <point x="425" y="346"/>
      <point x="425" y="383" type="curve"/>
      <point x="303" y="383"/>
      <point x="168" y="383"/>
      <point x="46" y="383" type="curve"/>
      <point x="46" y="309"/>
      <point x="46" y="383"/>
    </contour>
    <contour>
      <point x="131" y="609" type="curve"/>
      <point x="157" y="646"/>
      <point x="184" y="668"/>
      <point x="228" y="668" type="curve"/>
      <point x="274" y="668"/>
      <point x="306" y="646"/>
      <point x="306" y="605" type="curve"/>
      <point x="306" y="563"/>
      <point x="276" y="544"/>
      <point x="244" y="517" type="curve"/>
      <point x="178" y="472"/>
      <point x="112" y="428"/>
      <point x="46" y="383" type="curve"/>
      <point x="50" y="310"/>
      <point x="48" y="383"/>
      <point x="52" y="310" type="curve"/>
      <point x="143" y="365"/>
      <point x="228" y="411"/>
      <point x="298" y="460" type="curve"/>
      <point x="355" y="505"/>
      <point x="402" y="538"/>
      <point x="402" y="608" type="curve"/>
      <point x="402" y="698"/>
      <point x="332" y="742"/>
      <point x="237" y="742" type="curve"/>
      <point x="158" y="742"/>
      <point x="99" y="715"/>
      <point x="63" y="647" type="curve"/>
      <point x="131" y="609"/>
      <point x="63" y="647"/>
    </contour>
    <contour>
      <point x="237" y="742" type="move" name="_top"/>
    </contour>
    <contour>
      <point x="234" y="308" type="move" name="_bottom"/>
    </contour>
  </outline>
</glyph>
<glyph name="threesuperior" format="1">
  <advance width="424"/>
  <unicode hex="00B3"/>
  <outline>
    <contour>
      <point x="95" y="631" type="curve"/>
      <point x="123" y="654"/>
      <point x="154" y="668"/>
      <point x="184" y="668" type="curve"/>
      <point x="230" y="668"/>
      <point x="264" y="653"/>
      <point x="264" y="613" type="curve"/>
      <point x="264" y="567"/>
      <point x="201" y="559"/>
      <point x="141" y="556" type="curve"/>
      <point x="141" y="494"/>
      <point x="141" y="556"/>
      <point x="141" y="494" type="curve"/>
      <point x="259" y="496"/>
      <point x="362" y="517"/>
      <point x="362" y="619" type="curve"/>
      <point x="362" y="707"/>
      <point x="290" y="740"/>
      <point x="195" y="740" type="curve"/>
      <point x="138" y="740"/>
      <point x="85" y="718"/>
      <point x="47" y="682" type="curve"/>
      <point x="95" y="631"/>
      <point x="47" y="682"/>
    </contour>
    <contour>
      <point x="44" y="339" type="curve"/>
      <point x="86" y="316"/>
      <point x="128" y="302"/>
      <point x="176" y="302" type="curve"/>
      <point x="291" y="299"/>
      <point x="380" y="331"/>
      <point x="378" y="433" type="curve"/>
      <point x="378" y="541"/>
      <point x="264" y="545"/>
      <point x="141" y="547" type="curve"/>
      <point x="141" y="492"/>
      <point x="141" y="547"/>
      <point x="141" y="492" type="curve"/>
      <point x="214" y="490"/>
      <point x="280" y="482"/>
      <point x="280" y="432" type="curve"/>
      <point x="280" y="387"/>
      <point x="238" y="371"/>
      <point x="185" y="372" type="curve"/>
      <point x="153" y="372"/>
      <point x="122" y="379"/>
      <point x="86" y="396" type="curve"/>
      <point x="44" y="339"/>
      <point x="86" y="396"/>
    </contour>
    <contour>
      <point x="208" y="740" type="move" name="_top"/>
    </contour>
    <contour>
      <point x="198" y="301" type="move" name="_bottom"/>
    </contour>
  </outline>
</glyph>
<glyph name="paragraph" format="1">
  <advance width="802"/>
  <unicode hex="00B6"/>
  <outline>
    <contour>
      <point x="464" y="641" type="curve"/>
      <point x="631" y="641"/>
      <point x="464" y="641"/>
      <point x="631" y="641" type="curve"/>
      <point x="631" y="722"/>
      <point x="631" y="641"/>
      <point x="631" y="722" type="curve"/>
      <point x="575" y="722"/>
      <point x="519" y="722"/>
      <point x="464" y="722" type="curve"/>
      <point x="464" y="641"/>
      <point x="464" y="722"/>
    </contour>
    <contour>
      <point x="445" y="375" type="curve"/>
      <point x="394" y="352"/>
      <point x="354" y="338"/>
      <point x="296" y="338" type="curve"/>
      <point x="203" y="338"/>
      <point x="140" y="389"/>
      <point x="140" y="480" type="curve"/>
      <point x="140" y="588"/>
      <point x="222" y="641"/>
      <point x="336" y="641" type="curve"/>
      <point x="377" y="641"/>
      <point x="419" y="641"/>
      <point x="461" y="641" type="curve"/>
      <point x="461" y="722"/>
      <point x="461" y="641"/>
      <point x="461" y="722" type="curve"/>
      <point x="414" y="722"/>
      <point x="368" y="722"/>
      <point x="322" y="722" type="curve"/>
      <point x="156" y="722"/>
      <point x="33" y="640"/>
      <point x="33" y="484" type="curve"/>
      <point x="33" y="334"/>
      <point x="148" y="261"/>
      <point x="306" y="259" type="curve"/>
      <point x="370" y="259"/>
      <point x="422" y="278"/>
      <point x="479" y="304" type="curve"/>
      <point x="445" y="375"/>
      <point x="479" y="305"/>
    </contour>
    <contour>
      <point x="518" y="0" type="curve"/>
      <point x="518" y="241"/>
      <point x="518" y="481"/>
      <point x="518" y="722" type="curve"/>
      <point x="412" y="722"/>
      <point x="518" y="722"/>
      <point x="412" y="722" type="curve"/>
      <point x="412" y="481"/>
      <point x="412" y="241"/>
      <point x="412" y="0" type="curve"/>
      <point x="518" y="0"/>
      <point x="412" y="0"/>
    </contour>
    <contour>
      <point x="729" y="0" type="curve"/>
      <point x="729" y="241"/>
      <point x="729" y="481"/>
      <point x="729" y="722" type="curve"/>
      <point x="622" y="722"/>
      <point x="729" y="722"/>
      <point x="622" y="722" type="curve"/>
      <point x="622" y="481"/>
      <point x="622" y="241"/>
      <point x="622" y="0" type="curve"/>
      <point x="729" y="0"/>
      <point x="622" y="0"/>
    </contour>
  </outline>
</glyph>
<glyph name="periodcentered" format="1">
  <advance width="230"/>
  <unicode hex="00B7"/>
  <outline>
    <contour>
      <point x="176" y="440" type="curve"/>
      <point x="176" y="476"/>
      <point x="150" y="494"/>
      <point x="114" y="494" type="curve"/>
      <point x="78" y="494"/>
      <point x="54" y="474"/>
      <point x="54" y="440" type="curve"/>
      <point x="171" y="440"/>
      <point x="58" y="440"/>
      <point x="176" y="440" type="curve"/>
      <point x="176" y="403"/>
      <point x="150" y="387"/>
      <point x="113" y="387" type="curve"/>
      <point x="77" y="387"/>
      <point x="54" y="405"/>
      <point x="54" y="440" type="curve"/>
      <point x="171" y="440"/>
      <point x="58" y="440"/>
    </contour>
  </outline>
</glyph>
<glyph name="cedilla" format="1">
  <advance width="329"/>
  <unicode hex="00B8"/>
  <outline>
    <contour>
      <point x="152" y="119" type="curve"/>
      <point x="138" y="96"/>
      <point x="92" y="21"/>
      <point x="77" y="-3" type="curve"/>
      <point x="150" y="-68"/>
      <point x="77" y="-3"/>
      <point x="150" y="-68" type="curve"/>
      <point x="167" y="-41"/>
      <point x="218" y="36"/>
      <point x="234" y="63" type="curve"/>
      <point x="152" y="119"/>
      <point x="234" y="63"/>
    </contour>
    <contour>
      <point x="150" y="-68" type="curve"/>
      <point x="158" y="-62"/>
      <point x="166" y="-59"/>
      <point x="176" y="-59" type="curve"/>
      <point x="194" y="-59"/>
      <point x="204" y="-68"/>
      <point x="204" y="-86" type="curve"/>
      <point x="204" y="-108"/>
      <point x="186" y="-116"/>
      <point x="162" y="-116" type="curve"/>
      <point x="138" y="-116"/>
      <point x="118" y="-111"/>
      <point x="91" y="-98" type="curve"/>
      <point x="57" y="-159"/>
      <point x="91" y="-98"/>
      <point x="57" y="-159" type="curve"/>
      <point x="90" y="-176"/>
      <point x="119" y="-184"/>
      <point x="157" y="-184" type="curve"/>
      <point x="234" y="-184"/>
      <point x="291" y="-155"/>
      <point x="291" y="-84" type="curve"/>
      <point x="291" y="-18"/>
      <point x="243" y="19"/>
      <point x="176" y="19" type="curve"/>
      <point x="138" y="19"/>
      <point x="112" y="12"/>
      <point x="77" y="-3" type="curve"/>
      <point x="150" y="-68"/>
      <point x="77" y="-3"/>
    </contour>
    <contour>
      <point x="221" y="63" type="move" name="_bottom"/>
    </contour>
  </outline>
</glyph>
<glyph name="onesuperior" format="1">
  <advance width="307"/>
  <unicode hex="00B9"/>
  <outline>
    <contour>
      <point x="63" y="575" type="line"/>
      <point x="238" y="730" type="line"/>
      <point x="141" y="733" type="line"/>
      <point x="16" y="630" type="line"/>
    </contour>
    <contour>
      <point x="238" y="309" type="curve"/>
      <point x="238" y="733" type="line"/>
      <point x="141" y="733" type="line"/>
      <point x="141" y="309" type="line"/>
      <point x="211" y="309"/>
      <point x="173" y="309"/>
    </contour>
    <contour>
      <point x="182" y="732" type="move" name="_top"/>
    </contour>
    <contour>
      <point x="191" y="309" type="move" name="_bottom"/>
    </contour>
  </outline>
</glyph>
<glyph name="ordmasculine" format="1">
  <advance width="445"/>
  <unicode hex="00BA"/>
  <outline>
    <contour>
      <point x="113" y="601" type="curve"/>
      <point x="113" y="671"/>
      <point x="150" y="719"/>
      <point x="220" y="719" type="curve"/>
      <point x="292" y="719"/>
      <point x="330" y="671"/>
      <point x="330" y="600" type="curve"/>
      <point x="330" y="526"/>
      <point x="293" y="478"/>
      <point x="226" y="478" type="curve"/>
      <point x="152" y="478"/>
      <point x="113" y="526"/>
      <point x="113" y="601" type="curve"/>
      <point x="70" y="601"/>
      <point x="85" y="601"/>
      <point x="41" y="601" type="curve"/>
      <point x="41" y="487"/>
      <point x="110" y="420"/>
      <point x="223" y="420" type="curve"/>
      <point x="335" y="420"/>
      <point x="404" y="486"/>
      <point x="404" y="600" type="curve"/>
      <point x="404" y="710"/>
      <point x="336" y="776"/>
      <point x="223" y="776" type="curve"/>
      <point x="110" y="776"/>
      <point x="41" y="710"/>
      <point x="41" y="601" type="curve"/>
      <point x="85" y="601"/>
      <point x="70" y="601"/>
    </contour>
  </outline>
</glyph>
<glyph name="guillemotright" format="1">
  <advance width="581"/>
  <unicode hex="00BB"/>
  <outline>
    <contour>
      <point x="311" y="454" type="curve"/>
      <point x="349" y="432"/>
      <point x="501" y="353"/>
      <point x="539" y="331" type="curve"/>
      <point x="539" y="242"/>
      <point x="539" y="325"/>
      <point x="539" y="236" type="curve"/>
      <point x="501" y="258"/>
      <point x="349" y="340"/>
      <point x="311" y="363" type="curve"/>
      <point x="311" y="451"/>
      <point x="311" y="366"/>
    </contour>
    <contour>
      <point x="311" y="206" type="curve"/>
      <point x="349" y="228"/>
      <point x="501" y="308"/>
      <point x="539" y="331" type="curve"/>
      <point x="539" y="242"/>
      <point x="539" y="325"/>
      <point x="539" y="236" type="curve"/>
      <point x="501" y="213"/>
      <point x="349" y="136"/>
      <point x="311" y="114" type="curve"/>
      <point x="311" y="203"/>
      <point x="311" y="117"/>
    </contour>
    <contour>
      <point x="67" y="454" type="curve"/>
      <point x="105" y="432"/>
      <point x="257" y="353"/>
      <point x="295" y="331" type="curve"/>
      <point x="295" y="242"/>
      <point x="295" y="325"/>
      <point x="295" y="236" type="curve"/>
      <point x="257" y="258"/>
      <point x="105" y="340"/>
      <point x="67" y="363" type="curve"/>
      <point x="67" y="451"/>
      <point x="67" y="366"/>
    </contour>
    <contour>
      <point x="67" y="206" type="curve"/>
      <point x="105" y="228"/>
      <point x="257" y="308"/>
      <point x="295" y="331" type="curve"/>
      <point x="295" y="242"/>
      <point x="295" y="325"/>
      <point x="295" y="236" type="curve"/>
      <point x="257" y="213"/>
      <point x="105" y="136"/>
      <point x="67" y="114" type="curve"/>
      <point x="67" y="203"/>
      <point x="67" y="117"/>
    </contour>
  </outline>
</glyph>
<glyph name="onequarter" format="1">
  <advance width="1011"/>
  <unicode hex="00BC"/>
  <outline>
    <contour>
      <point x="336" y="-54" type="line"/>
      <point x="781" y="723" type="line"/>
      <point x="682" y="723" type="line"/>
      <point x="238" y="-54" type="line"/>
    </contour>
    <contour>
      <point x="73" y="567" type="line"/>
      <point x="248" y="722" type="line"/>
      <point x="151" y="725" type="line"/>
      <point x="26" y="622" type="line"/>
    </contour>
    <contour>
      <point x="248" y="301" type="curve"/>
      <point x="248" y="725" type="line"/>
      <point x="151" y="725" type="line"/>
      <point x="151" y="301" type="line"/>
      <point x="221" y="301"/>
      <point x="183" y="301"/>
    </contour>
    <contour>
      <point x="978" y="138" type="line"/>
      <point x="583" y="138" type="line"/>
      <point x="583" y="66" type="line"/>
      <point x="978" y="66" type="line"/>
    </contour>
    <contour>
      <point x="612" y="74" type="line"/>
      <point x="869" y="373" type="line"/>
      <point x="794" y="387" type="line"/>
      <point x="583" y="138" type="line"/>
    </contour>
    <contour>
      <point x="892" y="-56" type="line"/>
      <point x="892" y="387" type="line"/>
      <point x="794" y="387" type="line"/>
      <point x="794" y="-56" type="line"/>
    </contour>
  </outline>
</glyph>
<glyph name="onehalf" format="1">
  <advance width="1077"/>
  <unicode hex="00BD"/>
  <outline>
    <contour>
      <point x="351" y="-54" type="line"/>
      <point x="796" y="723" type="line"/>
      <point x="697" y="723" type="line"/>
      <point x="252" y="-54" type="line"/>
    </contour>
    <contour>
      <point x="73" y="567" type="line"/>
      <point x="248" y="722" type="line"/>
      <point x="151" y="725" type="line"/>
      <point x="26" y="622" type="line"/>
    </contour>
    <contour>
      <point x="248" y="301" type="curve"/>
      <point x="248" y="725" type="line"/>
      <point x="151" y="725" type="line"/>
      <point x="151" y="301" type="line"/>
      <point x="221" y="301"/>
      <point x="183" y="301"/>
    </contour>
    <contour>
      <point x="660" y="-56" type="curve"/>
      <point x="803" y="-56"/>
      <point x="926" y="-56"/>
      <point x="1039" y="-56" type="curve"/>
      <point x="1039" y="-16"/>
      <point x="1039" y="-19"/>
      <point x="1039" y="18" type="curve"/>
      <point x="917" y="18"/>
      <point x="782" y="18"/>
      <point x="660" y="18" type="curve"/>
      <point x="660" y="-56"/>
      <point x="660" y="18"/>
    </contour>
    <contour>
      <point x="745" y="245" type="curve"/>
      <point x="771" y="281"/>
      <point x="798" y="304"/>
      <point x="842" y="304" type="curve"/>
      <point x="888" y="304"/>
      <point x="920" y="282"/>
      <point x="920" y="240" type="curve"/>
      <point x="920" y="199"/>
      <point x="890" y="180"/>
      <point x="857" y="153" type="curve"/>
      <point x="791" y="108"/>
      <point x="726" y="63"/>
      <point x="660" y="18" type="curve"/>
      <point x="664" y="-54"/>
      <point x="662" y="18"/>
      <point x="665" y="-54" type="curve"/>
      <point x="757" y="1"/>
      <point x="842" y="47"/>
      <point x="912" y="95" type="curve"/>
      <point x="969" y="140"/>
      <point x="1016" y="173"/>
      <point x="1016" y="244" type="curve"/>
      <point x="1016" y="334"/>
      <point x="946" y="378"/>
      <point x="850" y="378" type="curve"/>
      <point x="772" y="378"/>
      <point x="713" y="351"/>
      <point x="677" y="282" type="curve"/>
      <point x="745" y="245"/>
      <point x="677" y="282"/>
    </contour>
  </outline>
</glyph>
<glyph name="threequarters" format="1">
  <advance width="1025"/>
  <unicode hex="00BE"/>
  <outline>
    <contour>
      <point x="361" y="-54" type="line"/>
      <point x="805" y="723" type="line"/>
      <point x="706" y="723" type="line"/>
      <point x="262" y="-54" type="line"/>
    </contour>
    <contour>
      <point x="89" y="614" type="curve"/>
      <point x="117" y="638"/>
      <point x="149" y="651"/>
      <point x="179" y="651" type="curve"/>
      <point x="225" y="651"/>
      <point x="258" y="636"/>
      <point x="258" y="597" type="curve"/>
      <point x="258" y="550"/>
      <point x="196" y="542"/>
      <point x="135" y="539" type="curve"/>
      <point x="135" y="477"/>
      <point x="135" y="539"/>
      <point x="135" y="477" type="curve"/>
      <point x="253" y="479"/>
      <point x="356" y="500"/>
      <point x="356" y="602" type="curve"/>
      <point x="356" y="690"/>
      <point x="284" y="723"/>
      <point x="189" y="723" type="curve"/>
      <point x="132" y="723"/>
      <point x="79" y="701"/>
      <point x="41" y="665" type="curve"/>
      <point x="89" y="614"/>
      <point x="41" y="665"/>
    </contour>
    <contour>
      <point x="38" y="322" type="curve"/>
      <point x="80" y="299"/>
      <point x="122" y="285"/>
      <point x="170" y="285" type="curve"/>
      <point x="285" y="282"/>
      <point x="374" y="315"/>
      <point x="372" y="416" type="curve"/>
      <point x="372" y="525"/>
      <point x="258" y="528"/>
      <point x="135" y="531" type="curve"/>
      <point x="135" y="475"/>
      <point x="135" y="531"/>
      <point x="135" y="475" type="curve"/>
      <point x="208" y="473"/>
      <point x="274" y="465"/>
      <point x="274" y="415" type="curve"/>
      <point x="274" y="370"/>
      <point x="232" y="354"/>
      <point x="179" y="356" type="curve"/>
      <point x="147" y="356"/>
      <point x="116" y="363"/>
      <point x="80" y="379" type="curve"/>
      <point x="38" y="322"/>
      <point x="80" y="379"/>
    </contour>
    <contour>
      <point x="996" y="138" type="line"/>
      <point x="601" y="138" type="line"/>
      <point x="601" y="66" type="line"/>
      <point x="996" y="66" type="line"/>
    </contour>
    <contour>
      <point x="630" y="74" type="line"/>
      <point x="887" y="373" type="line"/>
      <point x="812" y="387" type="line"/>
      <point x="601" y="138" type="line"/>
    </contour>
    <contour>
      <point x="910" y="-56" type="line"/>
      <point x="910" y="387" type="line"/>
      <point x="812" y="387" type="line"/>
      <point x="812" y="-56" type="line"/>
    </contour>
  </outline>
</glyph>
<glyph name="questiondown" format="1">
  <advance width="537"/>
  <unicode hex="00BF"/>
  <outline>
    <contour>
      <point x="343" y="351" type="curve"/>
      <point x="343" y="388"/>
      <point x="343" y="458"/>
      <point x="343" y="495" type="curve"/>
      <point x="240" y="495"/>
      <point x="343" y="495"/>
      <point x="240" y="495" type="curve"/>
      <point x="240" y="458"/>
      <point x="240" y="388"/>
      <point x="240" y="351" type="curve"/>
      <point x="343" y="351"/>
      <point x="240" y="351"/>
    </contour>
    <contour>
      <point x="437" y="127" type="line"/>
      <point x="402" y="91"/>
      <point x="352" y="62"/>
      <point x="291" y="62" type="curve"/>
      <point x="202" y="62"/>
      <point x="141" y="110"/>
      <point x="141" y="197" type="curve"/>
      <point x="141" y="296"/>
      <point x="219" y="351"/>
      <point x="331" y="351" type="curve"/>
      <point x="331" y="383"/>
      <point x="332" y="400"/>
      <point x="332" y="431" type="curve"/>
      <point x="161" y="431"/>
      <point x="39" y="348"/>
      <point x="39" y="197" type="curve"/>
      <point x="39" y="56"/>
      <point x="142" y="-23"/>
      <point x="286" y="-23" type="curve"/>
      <point x="373" y="-23"/>
      <point x="439" y="8"/>
      <point x="493" y="63" type="curve"/>
    </contour>
    <contour>
      <point x="230" y="687" type="curve"/>
      <point x="230" y="651"/>
      <point x="256" y="634"/>
      <point x="291" y="634" type="curve"/>
      <point x="327" y="634"/>
      <point x="350" y="653"/>
      <point x="350" y="687" type="curve"/>
      <point x="230" y="687"/>
      <point x="350" y="687"/>
      <point x="230" y="687" type="curve"/>
      <point x="230" y="724"/>
      <point x="255" y="740"/>
      <point x="291" y="740" type="curve"/>
      <point x="327" y="740"/>
      <point x="350" y="722"/>
      <point x="350" y="687" type="curve"/>
      <point x="230" y="687"/>
      <point x="350" y="687"/>
    </contour>
  </outline>
</glyph>
<glyph name="Agrave" format="1">
  <advance width="721"/>
  <unicode hex="00C0"/>
  <outline>
    <contour>
      <point x="532" y="296" type="curve"/>
      <point x="420" y="296"/>
      <point x="308" y="296"/>
      <point x="197" y="296" type="curve"/>
      <point x="153" y="210"/>
      <point x="197" y="296"/>
      <point x="153" y="210" type="curve"/>
      <point x="290" y="210"/>
      <point x="428" y="210"/>
      <point x="566" y="210" type="curve"/>
      <point x="532" y="296"/>
      <point x="566" y="210"/>
    </contour>
    <contour>
      <point x="707" y="0" type="curve"/>
      <point x="613" y="241"/>
      <point x="514" y="481"/>
      <point x="420" y="722" type="curve"/>
      <point x="323" y="722"/>
      <point x="420" y="722"/>
      <point x="323" y="722" type="curve"/>
      <point x="415" y="482"/>
      <point x="503" y="240"/>
      <point x="595" y="0" type="curve"/>
      <point x="707" y="0"/>
      <point x="595" y="0"/>
    </contour>
    <contour>
      <point x="115" y="0" type="curve"/>
      <point x="218" y="240"/>
      <point x="314" y="482"/>
      <point x="418" y="722" type="curve"/>
      <point x="321" y="722"/>
      <point x="418" y="722"/>
      <point x="321" y="722" type="curve"/>
      <point x="215" y="480"/>
      <point x="103" y="242"/>
      <point x="-2" y="0" type="curve"/>
      <point x="115" y="0"/>
      <point x="-2" y="0"/>
    </contour>
    <contour>
      <point x="427" y="796" type="line"/>
      <point x="305" y="962" type="line"/>
      <point x="167" y="962" type="line"/>
      <point x="321" y="796" type="line"/>
    </contour>
  </outline>
</glyph>
<glyph name="Atilde" format="1">
  <advance width="721"/>
  <unicode hex="00C3"/>
  <outline>
    <contour>
      <point x="532" y="296" type="curve"/>
      <point x="420" y="296"/>
      <point x="308" y="296"/>
      <point x="197" y="296" type="curve"/>
      <point x="153" y="210"/>
      <point x="197" y="296"/>
      <point x="153" y="210" type="curve"/>
      <point x="290" y="210"/>
      <point x="428" y="210"/>
      <point x="566" y="210" type="curve"/>
      <point x="532" y="296"/>
      <point x="566" y="210"/>
    </contour>
    <contour>
      <point x="707" y="0" type="curve"/>
      <point x="613" y="241"/>
      <point x="514" y="481"/>
      <point x="420" y="722" type="curve"/>
      <point x="323" y="722"/>
      <point x="420" y="722"/>
      <point x="323" y="722" type="curve"/>
      <point x="415" y="482"/>
      <point x="503" y="240"/>
      <point x="595" y="0" type="curve"/>
      <point x="707" y="0"/>
      <point x="595" y="0"/>
    </contour>
    <contour>
      <point x="115" y="0" type="curve"/>
      <point x="218" y="240"/>
      <point x="314" y="482"/>
      <point x="418" y="722" type="curve"/>
      <point x="321" y="722"/>
      <point x="418" y="722"/>
      <point x="321" y="722" type="curve"/>
      <point x="215" y="480"/>
      <point x="103" y="242"/>
      <point x="-2" y="0" type="curve"/>
      <point x="115" y="0"/>
      <point x="-2" y="0"/>
    </contour>
    <contour>
      <point x="520" y="959" type="curve"/>
      <point x="506" y="917"/>
      <point x="489" y="886"/>
      <point x="458" y="886" type="curve"/>
      <point x="423" y="886"/>
      <point x="404" y="897"/>
      <point x="379" y="920" type="curve"/>
      <point x="345" y="949"/>
      <point x="319" y="965"/>
      <point x="275" y="965" type="curve"/>
      <point x="200" y="965"/>
      <point x="161" y="910"/>
      <point x="136" y="834" type="curve"/>
      <point x="216" y="795"/>
      <point x="137" y="834"/>
      <point x="216" y="795" type="curve"/>
      <point x="233" y="843"/>
      <point x="252" y="870"/>
      <point x="287" y="870" type="curve"/>
      <point x="318" y="870"/>
      <point x="334" y="856"/>
      <point x="356" y="837" type="curve"/>
      <point x="394" y="805"/>
      <point x="421" y="790"/>
      <point x="468" y="790" type="curve"/>
      <point x="544" y="790"/>
      <point x="578" y="847"/>
      <point x="604" y="921" type="curve"/>
      <point x="520" y="959"/>
      <point x="604" y="921"/>
    </contour>
  </outline>
</glyph>
<glyph name="Adieresis" format="1">
  <advance width="721"/>
  <unicode hex="00C4"/>
  <outline>
    <contour>
      <point x="532" y="296" type="curve"/>
      <point x="420" y="296"/>
      <point x="308" y="296"/>
      <point x="197" y="296" type="curve"/>
      <point x="153" y="210"/>
      <point x="197" y="296"/>
      <point x="153" y="210" type="curve"/>
      <point x="290" y="210"/>
      <point x="428" y="210"/>
      <point x="566" y="210" type="curve"/>
      <point x="532" y="296"/>
      <point x="566" y="210"/>
    </contour>
    <contour>
      <point x="707" y="0" type="curve"/>
      <point x="613" y="241"/>
      <point x="514" y="481"/>
      <point x="420" y="722" type="curve"/>
      <point x="323" y="722"/>
      <point x="420" y="722"/>
      <point x="323" y="722" type="curve"/>
      <point x="415" y="482"/>
      <point x="503" y="240"/>
      <point x="595" y="0" type="curve"/>
      <point x="707" y="0"/>
      <point x="595" y="0"/>
    </contour>
    <contour>
      <point x="115" y="0" type="curve"/>
      <point x="218" y="240"/>
      <point x="314" y="482"/>
      <point x="418" y="722" type="curve"/>
      <point x="321" y="722"/>
      <point x="418" y="722"/>
      <point x="321" y="722" type="curve"/>
      <point x="215" y="480"/>
      <point x="103" y="242"/>
      <point x="-2" y="0" type="curve"/>
      <point x="115" y="0"/>
      <point x="-2" y="0"/>
    </contour>
    <contour>
      <point x="336" y="846" type="curve"/>
      <point x="336" y="882"/>
      <point x="310" y="900"/>
      <point x="274" y="900" type="curve"/>
      <point x="238" y="900"/>
      <point x="214" y="880"/>
      <point x="214" y="846" type="curve"/>
      <point x="332" y="846"/>
      <point x="219" y="846"/>
      <point x="336" y="846" type="curve"/>
      <point x="336" y="809"/>
      <point x="310" y="793"/>
      <point x="274" y="793" type="curve"/>
      <point x="238" y="793"/>
      <point x="214" y="811"/>
      <point x="214" y="846" type="curve"/>
      <point x="332" y="846"/>
      <point x="219" y="846"/>
    </contour>
    <contour>
      <point x="524" y="846" type="curve"/>
      <point x="524" y="882"/>
      <point x="497" y="900"/>
      <point x="462" y="900" type="curve"/>
      <point x="426" y="900"/>
      <point x="402" y="880"/>
      <point x="402" y="846" type="curve"/>
      <point x="519" y="846"/>
      <point x="406" y="846"/>
      <point x="524" y="846" type="curve"/>
      <point x="524" y="809"/>
      <point x="498" y="793"/>
      <point x="461" y="793" type="curve"/>
      <point x="425" y="793"/>
      <point x="402" y="811"/>
      <point x="402" y="846" type="curve"/>
      <point x="519" y="846"/>
      <point x="406" y="846"/>
    </contour>
  </outline>
</glyph>
<glyph name="Aring" format="1">
  <advance width="721"/>
  <unicode hex="00C5"/>
  <outline>
    <contour>
      <point x="532" y="296" type="curve"/>
      <point x="420" y="296"/>
      <point x="308" y="296"/>
      <point x="197" y="296" type="curve"/>
      <point x="153" y="210"/>
      <point x="197" y="296"/>
      <point x="153" y="210" type="curve"/>
      <point x="290" y="210"/>
      <point x="428" y="210"/>
      <point x="566" y="210" type="curve"/>
      <point x="532" y="296"/>
      <point x="566" y="210"/>
    </contour>
    <contour>
      <point x="707" y="0" type="curve"/>
      <point x="613" y="241"/>
      <point x="514" y="481"/>
      <point x="420" y="722" type="curve"/>
      <point x="323" y="722"/>
      <point x="420" y="722"/>
      <point x="323" y="722" type="curve"/>
      <point x="415" y="482"/>
      <point x="503" y="240"/>
      <point x="595" y="0" type="curve"/>
      <point x="707" y="0"/>
      <point x="595" y="0"/>
    </contour>
    <contour>
      <point x="115" y="0" type="curve"/>
      <point x="218" y="240"/>
      <point x="314" y="482"/>
      <point x="418" y="722" type="curve"/>
      <point x="321" y="722"/>
      <point x="418" y="722"/>
      <point x="321" y="722" type="curve"/>
      <point x="215" y="480"/>
      <point x="103" y="242"/>
      <point x="-2" y="0" type="curve"/>
      <point x="115" y="0"/>
      <point x="-2" y="0"/>
    </contour>
    <contour>
      <point x="212" y="931" type="curve"/>
      <point x="212" y="842"/>
      <point x="276" y="794"/>
      <point x="369" y="794" type="curve"/>
      <point x="464" y="794"/>
      <point x="529" y="841"/>
      <point x="529" y="931" type="curve"/>
      <point x="529" y="1021"/>
      <point x="463" y="1068"/>
      <point x="367" y="1068" type="curve"/>
      <point x="274" y="1068"/>
      <point x="212" y="1020"/>
      <point x="212" y="931" type="curve"/>
      <point x="304" y="931"/>
      <point x="209" y="931"/>
      <point x="300" y="931" type="curve"/>
      <point x="300" y="973"/>
      <point x="324" y="997"/>
      <point x="367" y="997" type="curve"/>
      <point x="412" y="997"/>
      <point x="439" y="976"/>
      <point x="439" y="931" type="curve"/>
      <point x="439" y="888"/>
      <point x="413" y="865"/>
      <point x="369" y="865" type="curve"/>
      <point x="326" y="865"/>
      <point x="300" y="889"/>
      <point x="300" y="931" type="curve"/>
      <point x="209" y="931"/>
      <point x="304" y="931"/>
    </contour>
  </outline>
</glyph>
<glyph name="AE" format="1">
  <advance width="976"/>
  <unicode hex="00C6"/>
  <outline>
    <contour>
      <point x="467" y="276" type="curve"/>
      <point x="355" y="276"/>
      <point x="306" y="276"/>
      <point x="194" y="276" type="curve"/>
      <point x="150" y="191"/>
      <point x="194" y="276"/>
      <point x="150" y="191" type="curve"/>
      <point x="288" y="191"/>
      <point x="364" y="191"/>
      <point x="501" y="191" type="curve"/>
      <point x="467" y="276"/>
      <point x="501" y="191"/>
    </contour>
    <contour>
      <point x="107" y="0" type="curve"/>
      <point x="549" y="722" type="line"/>
      <point x="452" y="722"/>
      <point x="548" y="722"/>
      <point x="451" y="722" type="curve"/>
      <point x="-10" y="0" type="line"/>
      <point x="106" y="0"/>
      <point x="-10" y="0"/>
    </contour>
    <contour>
      <point x="510" y="332" type="curve"/>
      <point x="623" y="332"/>
      <point x="738" y="332"/>
      <point x="852" y="332" type="curve"/>
      <point x="852" y="414"/>
      <point x="852" y="332"/>
      <point x="852" y="414" type="curve"/>
      <point x="738" y="414"/>
      <point x="623" y="414"/>
      <point x="510" y="414" type="curve"/>
      <point x="510" y="332"/>
      <point x="510" y="414"/>
    </contour>
    <contour>
      <point x="494" y="641" type="curve"/>
      <point x="635" y="641"/>
      <point x="776" y="641"/>
      <point x="917" y="641" type="curve"/>
      <point x="917" y="722"/>
      <point x="917" y="641"/>
      <point x="917" y="722" type="curve"/>
      <point x="776" y="722"/>
      <point x="635" y="722"/>
      <point x="494" y="722" type="curve"/>
      <point x="494" y="641"/>
      <point x="494" y="722"/>
    </contour>
    <contour>
      <point x="558" y="0" type="curve"/>
      <point x="558" y="722" type="line"/>
      <point x="451" y="722"/>
      <point x="558" y="722"/>
      <point x="451" y="722" type="curve"/>
      <point x="451" y="481"/>
      <point x="451" y="241"/>
      <point x="451" y="0" type="curve"/>
      <point x="558" y="0"/>
      <point x="451" y="0"/>
    </contour>
    <contour>
      <point x="494" y="0" type="curve"/>
      <point x="647" y="0"/>
      <point x="799" y="0"/>
      <point x="952" y="0" type="curve"/>
      <point x="952" y="81"/>
      <point x="952" y="0"/>
      <point x="952" y="81" type="curve"/>
      <point x="799" y="81"/>
      <point x="647" y="81"/>
      <point x="494" y="81" type="curve"/>
      <point x="494" y="0"/>
      <point x="494" y="81"/>
    </contour>
  </outline>
</glyph>
<glyph name="Ccedilla" format="1">
  <advance width="710"/>
  <unicode hex="00C7"/>
  <outline>
    <contour>
      <point x="683" y="654" type="curve"/>
      <point x="606" y="696"/>
      <point x="521" y="727"/>
      <point x="425" y="727" type="curve"/>
      <point x="188" y="727"/>
      <point x="49" y="586"/>
      <point x="49" y="344" type="curve"/>
      <point x="49" y="122"/>
      <point x="179" y="-5"/>
      <point x="402" y="-5" type="curve"/>
      <point x="527" y="-5"/>
      <point x="606" y="27"/>
      <point x="694" y="94" type="curve"/>
      <point x="643" y="160"/>
      <point x="693" y="94"/>
      <point x="642" y="160" type="curve"/>
      <point x="563" y="105"/>
      <point x="500" y="81"/>
      <point x="406" y="81" type="curve"/>
      <point x="243" y="81"/>
      <point x="156" y="182"/>
      <point x="156" y="348" type="curve"/>
      <point x="156" y="529"/>
      <point x="247" y="642"/>
      <point x="421" y="642" type="curve"/>
      <point x="496" y="642"/>
      <point x="564" y="623"/>
      <point x="634" y="587" type="curve"/>
      <point x="683" y="654"/>
      <point x="634" y="587"/>
    </contour>
    <contour>
      <point x="358" y="59" type="curve"/>
      <point x="344" y="36"/>
      <point x="297" y="-39"/>
      <point x="283" y="-62" type="curve"/>
      <point x="356" y="-127"/>
      <point x="283" y="-62"/>
      <point x="356" y="-127" type="curve"/>
      <point x="373" y="-101"/>
      <point x="424" y="-24"/>
      <point x="440" y="3" type="curve"/>
      <point x="358" y="59"/>
      <point x="440" y="3"/>
    </contour>
    <contour>
      <point x="356" y="-128" type="curve"/>
      <point x="364" y="-122"/>
      <point x="372" y="-119"/>
      <point x="382" y="-119" type="curve"/>
      <point x="400" y="-119"/>
      <point x="410" y="-128"/>
      <point x="410" y="-146" type="curve"/>
      <point x="410" y="-167"/>
      <point x="392" y="-176"/>
      <point x="368" y="-176" type="curve"/>
      <point x="344" y="-176"/>
      <point x="324" y="-170"/>
      <point x="297" y="-157" type="curve"/>
      <point x="263" y="-218"/>
      <point x="297" y="-157"/>
      <point x="263" y="-218" type="curve"/>
      <point x="296" y="-236"/>
      <point x="325" y="-244"/>
      <point x="363" y="-244" type="curve"/>
      <point x="440" y="-244"/>
      <point x="497" y="-215"/>
      <point x="497" y="-143" type="curve"/>
      <point x="497" y="-77"/>
      <point x="449" y="-41"/>
      <point x="382" y="-41" type="curve"/>
      <point x="344" y="-41"/>
      <point x="318" y="-48"/>
      <point x="283" y="-63" type="curve"/>
      <point x="356" y="-128"/>
      <point x="283" y="-63"/>
    </contour>
  </outline>
</glyph>
<glyph name="Egrave" format="1">
  <advance width="617"/>
  <unicode hex="00C8"/>
  <outline>
    <contour>
      <point x="151" y="332" type="curve"/>
      <point x="265" y="332"/>
      <point x="379" y="332"/>
      <point x="493" y="332" type="curve"/>
      <point x="493" y="414"/>
      <point x="493" y="332"/>
      <point x="493" y="414" type="curve"/>
      <point x="379" y="414"/>
      <point x="265" y="414"/>
      <point x="151" y="414" type="curve"/>
      <point x="151" y="332"/>
      <point x="151" y="414"/>
    </contour>
    <contour>
      <point x="135" y="641" type="curve"/>
      <point x="276" y="641"/>
      <point x="417" y="641"/>
      <point x="559" y="641" type="curve"/>
      <point x="559" y="722"/>
      <point x="559" y="641"/>
      <point x="559" y="722" type="curve"/>
      <point x="417" y="722"/>
      <point x="276" y="722"/>
      <point x="135" y="722" type="curve"/>
      <point x="135" y="641"/>
      <point x="135" y="722"/>
    </contour>
    <contour>
      <point x="199" y="0" type="curve"/>
      <point x="199" y="722" type="line"/>
      <point x="92" y="722"/>
      <point x="199" y="722"/>
      <point x="92" y="722" type="curve"/>
      <point x="92" y="481"/>
      <point x="92" y="241"/>
      <point x="92" y="0" type="curve"/>
      <point x="199" y="0"/>
      <point x="92" y="0"/>
    </contour>
    <contour>
      <point x="135" y="0" type="curve"/>
      <point x="288" y="0"/>
      <point x="441" y="0"/>
      <point x="594" y="0" type="curve"/>
      <point x="594" y="81"/>
      <point x="594" y="0"/>
      <point x="594" y="81" type="curve"/>
      <point x="441" y="81"/>
      <point x="288" y="81"/>
      <point x="135" y="81" type="curve"/>
      <point x="135" y="0"/>
      <point x="135" y="81"/>
    </contour>
    <contour>
      <point x="359" y="796" type="line"/>
      <point x="236" y="962" type="line"/>
      <point x="99" y="962" type="line"/>
      <point x="252" y="796" type="line"/>
    </contour>
  </outline>
</glyph>
<glyph name="Ecircumflex" format="1">
  <advance width="589"/>
  <unicode hex="00CA"/>
  <outline>
    <contour>
      <point x="132" y="332" type="curve"/>
      <point x="246" y="332"/>
      <point x="360" y="332"/>
      <point x="474" y="332" type="curve"/>
      <point x="474" y="414"/>
      <point x="474" y="332"/>
      <point x="474" y="414" type="curve"/>
      <point x="360" y="414"/>
      <point x="246" y="414"/>
      <point x="132" y="414" type="curve"/>
      <point x="132" y="332"/>
      <point x="132" y="414"/>
    </contour>
    <contour>
      <point x="116" y="641" type="curve"/>
      <point x="257" y="641"/>
      <point x="398" y="641"/>
      <point x="540" y="641" type="curve"/>
      <point x="540" y="722"/>
      <point x="540" y="641"/>
      <point x="540" y="722" type="curve"/>
      <point x="398" y="722"/>
      <point x="257" y="722"/>
      <point x="116" y="722" type="curve"/>
      <point x="116" y="641"/>
      <point x="116" y="722"/>
    </contour>
    <contour>
      <point x="180" y="0" type="curve"/>
      <point x="180" y="722" type="line"/>
      <point x="73" y="722"/>
      <point x="180" y="722"/>
      <point x="73" y="722" type="curve"/>
      <point x="73" y="481"/>
      <point x="73" y="241"/>
      <point x="73" y="0" type="curve"/>
      <point x="180" y="0"/>
      <point x="73" y="0"/>
    </contour>
    <contour>
      <point x="116" y="0" type="curve"/>
      <point x="269" y="0"/>
      <point x="422" y="0"/>
      <point x="575" y="0" type="curve"/>
      <point x="575" y="81"/>
      <point x="575" y="0"/>
      <point x="575" y="81" type="curve"/>
      <point x="422" y="81"/>
      <point x="269" y="81"/>
      <point x="116" y="81" type="curve"/>
      <point x="116" y="0"/>
      <point x="116" y="81"/>
    </contour>
    <contour>
      <point x="178" y="796" type="line"/>
      <point x="331" y="962" type="line"/>
      <point x="194" y="962" type="line"/>
      <point x="73" y="796" type="line"/>
    </contour>
    <contour>
      <point x="490" y="796" type="line"/>
      <point x="368" y="962" type="line"/>
      <point x="231" y="962" type="line"/>
      <point x="384" y="796" type="line"/>
    </contour>
  </outline>
</glyph>
<glyph name="Edieresis" format="1">
  <advance width="610"/>
  <unicode hex="00CB"/>
  <outline>
    <contour>
      <point x="144" y="332" type="curve"/>
      <point x="258" y="332"/>
      <point x="372" y="332"/>
      <point x="486" y="332" type="curve"/>
      <point x="486" y="414"/>
      <point x="486" y="332"/>
      <point x="486" y="414" type="curve"/>
      <point x="372" y="414"/>
      <point x="258" y="414"/>
      <point x="144" y="414" type="curve"/>
      <point x="144" y="332"/>
      <point x="144" y="414"/>
    </contour>
    <contour>
      <point x="128" y="641" type="curve"/>
      <point x="269" y="641"/>
      <point x="410" y="641"/>
      <point x="552" y="641" type="curve"/>
      <point x="552" y="722"/>
      <point x="552" y="641"/>
      <point x="552" y="722" type="curve"/>
      <point x="410" y="722"/>
      <point x="269" y="722"/>
      <point x="128" y="722" type="curve"/>
      <point x="128" y="641"/>
      <point x="128" y="722"/>
    </contour>
    <contour>
      <point x="192" y="0" type="curve"/>
      <point x="192" y="722" type="line"/>
      <point x="85" y="722"/>
      <point x="192" y="722"/>
      <point x="85" y="722" type="curve"/>
      <point x="85" y="481"/>
      <point x="85" y="241"/>
      <point x="85" y="0" type="curve"/>
      <point x="192" y="0"/>
      <point x="85" y="0"/>
    </contour>
    <contour>
      <point x="128" y="0" type="curve"/>
      <point x="281" y="0"/>
      <point x="434" y="0"/>
      <point x="587" y="0" type="curve"/>
      <point x="587" y="81"/>
      <point x="587" y="0"/>
      <point x="587" y="81" type="curve"/>
      <point x="434" y="81"/>
      <point x="281" y="81"/>
      <point x="128" y="81" type="curve"/>
      <point x="128" y="0"/>
      <point x="128" y="81"/>
    </contour>
    <contour>
      <point x="261" y="846" type="curve"/>
      <point x="261" y="882"/>
      <point x="235" y="900"/>
      <point x="199" y="900" type="curve"/>
      <point x="163" y="900"/>
      <point x="139" y="880"/>
      <point x="139" y="846" type="curve"/>
      <point x="257" y="846"/>
      <point x="143" y="846"/>
      <point x="261" y="846" type="curve"/>
      <point x="261" y="809"/>
      <point x="235" y="793"/>
      <point x="199" y="793" type="curve"/>
      <point x="162" y="793"/>
      <point x="139" y="811"/>
      <point x="139" y="846" type="curve"/>
      <point x="257" y="846"/>
      <point x="143" y="846"/>
    </contour>
    <contour>
      <point x="449" y="846" type="curve"/>
      <point x="449" y="882"/>
      <point x="422" y="900"/>
      <point x="386" y="900" type="curve"/>
      <point x="350" y="900"/>
      <point x="326" y="880"/>
      <point x="326" y="846" type="curve"/>
      <point x="444" y="846"/>
      <point x="331" y="846"/>
      <point x="449" y="846" type="curve"/>
      <point x="449" y="809"/>
      <point x="423" y="793"/>
      <point x="386" y="793" type="curve"/>
      <point x="350" y="793"/>
      <point x="326" y="811"/>
      <point x="326" y="846" type="curve"/>
      <point x="444" y="846"/>
      <point x="331" y="846"/>
    </contour>
  </outline>
</glyph>
<glyph name="Igrave" format="1">
  <advance width="298"/>
  <unicode hex="00CC"/>
  <outline>
    <contour>
      <point x="206" y="0" type="curve"/>
      <point x="206" y="241"/>
      <point x="206" y="481"/>
      <point x="206" y="722" type="curve"/>
      <point x="99" y="722"/>
      <point x="206" y="722"/>
      <point x="99" y="722" type="curve"/>
      <point x="99" y="481"/>
      <point x="99" y="241"/>
      <point x="99" y="0" type="curve"/>
      <point x="206" y="0"/>
      <point x="99" y="0"/>
    </contour>
    <contour>
      <point x="211" y="796" type="line"/>
      <point x="89" y="962" type="line"/>
      <point x="-48" y="962" type="line"/>
      <point x="105" y="796" type="line"/>
    </contour>
  </outline>
</glyph>
<glyph name="Icircumflex" format="1">
  <advance width="317"/>
  <unicode hex="00CE"/>
  <outline>
    <contour>
      <point x="216" y="0" type="curve"/>
      <point x="216" y="241"/>
      <point x="216" y="481"/>
      <point x="216" y="722" type="curve"/>
      <point x="109" y="722"/>
      <point x="216" y="722"/>
      <point x="109" y="722" type="curve"/>
      <point x="109" y="481"/>
      <point x="109" y="241"/>
      <point x="109" y="0" type="curve"/>
      <point x="216" y="0"/>
      <point x="109" y="0"/>
    </contour>
    <contour>
      <point x="60" y="796" type="line"/>
      <point x="213" y="962" type="line"/>
      <point x="76" y="962" type="line"/>
      <point x="-45" y="796" type="line"/>
    </contour>
    <contour>
      <point x="372" y="796" type="line"/>
      <point x="250" y="962" type="line"/>
      <point x="113" y="962" type="line"/>
      <point x="266" y="796" type="line"/>
    </contour>
  </outline>
</glyph>
<glyph name="Idieresis" format="1">
  <advance width="291"/>
  <unicode hex="00CF"/>
  <outline>
    <contour>
      <point x="202" y="0" type="curve"/>
      <point x="202" y="241"/>
      <point x="202" y="481"/>
      <point x="202" y="722" type="curve"/>
      <point x="95" y="722"/>
      <point x="202" y="722"/>
      <point x="95" y="722" type="curve"/>
      <point x="95" y="481"/>
      <point x="95" y="241"/>
      <point x="95" y="0" type="curve"/>
      <point x="202" y="0"/>
      <point x="95" y="0"/>
    </contour>
    <contour>
      <point x="117" y="846" type="curve"/>
      <point x="117" y="882"/>
      <point x="91" y="900"/>
      <point x="55" y="900" type="curve"/>
      <point x="19" y="900"/>
      <point x="-5" y="880"/>
      <point x="-5" y="846" type="curve"/>
      <point x="112" y="846"/>
      <point x="-1" y="846"/>
      <point x="117" y="846" type="curve"/>
      <point x="117" y="809"/>
      <point x="91" y="793"/>
      <point x="54" y="793" type="curve"/>
      <point x="18" y="793"/>
      <point x="-5" y="811"/>
      <point x="-5" y="846" type="curve"/>
      <point x="112" y="846"/>
      <point x="-1" y="846"/>
    </contour>
    <contour>
      <point x="304" y="846" type="curve"/>
      <point x="304" y="882"/>
      <point x="278" y="900"/>
      <point x="242" y="900" type="curve"/>
      <point x="206" y="900"/>
      <point x="182" y="880"/>
      <point x="182" y="846" type="curve"/>
      <point x="300" y="846"/>
      <point x="187" y="846"/>
      <point x="304" y="846" type="curve"/>
      <point x="304" y="809"/>
      <point x="278" y="793"/>
      <point x="242" y="793" type="curve"/>
      <point x="205" y="793"/>
      <point x="182" y="811"/>
      <point x="182" y="846" type="curve"/>
      <point x="300" y="846"/>
      <point x="187" y="846"/>
    </contour>
  </outline>
</glyph>
<glyph name="Ntilde" format="1">
  <advance width="852"/>
  <unicode hex="00D1"/>
  <outline>
    <contour>
      <point x="764" y="0" type="curve"/>
      <point x="579" y="240"/>
      <point x="395" y="482"/>
      <point x="210" y="722" type="curve"/>
      <point x="87" y="722"/>
      <point x="209" y="722"/>
      <point x="87" y="722" type="curve"/>
      <point x="272" y="482"/>
      <point x="456" y="240"/>
      <point x="641" y="0" type="curve"/>
      <point x="763" y="0"/>
      <point x="642" y="0"/>
    </contour>
    <contour>
      <point x="659" y="722" type="curve"/>
      <point x="659" y="481"/>
      <point x="659" y="241"/>
      <point x="659" y="0" type="curve"/>
      <point x="766" y="0"/>
      <point x="659" y="0"/>
      <point x="766" y="0" type="curve"/>
      <point x="766" y="241"/>
      <point x="766" y="481"/>
      <point x="766" y="722" type="curve"/>
      <point x="659" y="722"/>
      <point x="766" y="722"/>
    </contour>
    <contour>
      <point x="194" y="0" type="curve"/>
      <point x="194" y="241"/>
      <point x="194" y="481"/>
      <point x="194" y="722" type="curve"/>
      <point x="87" y="722"/>
      <point x="194" y="722"/>
      <point x="87" y="722" type="curve"/>
      <point x="87" y="481"/>
      <point x="87" y="241"/>
      <point x="87" y="0" type="curve"/>
      <point x="194" y="0"/>
      <point x="87" y="0"/>
    </contour>
    <contour>
      <point x="580" y="959" type="curve"/>
      <point x="566" y="917"/>
      <point x="549" y="886"/>
      <point x="518" y="886" type="curve"/>
      <point x="484" y="886"/>
      <point x="464" y="897"/>
      <point x="439" y="920" type="curve"/>
      <point x="405" y="949"/>
      <point x="380" y="965"/>
      <point x="336" y="965" type="curve"/>
      <point x="261" y="965"/>
      <point x="221" y="910"/>
      <point x="196" y="834" type="curve"/>
      <point x="276" y="795"/>
      <point x="197" y="834"/>
      <point x="276" y="795" type="curve"/>
      <point x="293" y="843"/>
      <point x="312" y="870"/>
      <point x="347" y="870" type="curve"/>
      <point x="378" y="870"/>
      <point x="394" y="856"/>
      <point x="416" y="837" type="curve"/>
      <point x="454" y="805"/>
      <point x="481" y="790"/>
      <point x="529" y="790" type="curve"/>
      <point x="605" y="790"/>
      <point x="639" y="847"/>
      <point x="664" y="921" type="curve"/>
      <point x="580" y="959"/>
      <point x="664" y="921"/>
    </contour>
  </outline>
</glyph>
<glyph name="Ograve" format="1">
  <advance width="800"/>
  <unicode hex="00D2"/>
  <outline>
    <contour>
      <point x="156" y="360" type="curve" name="FullCurve"/>
      <point x="156" y="526"/>
      <point x="234" y="642"/>
      <point x="396" y="642" type="curve" name="FullCurve"/>
      <point x="559" y="642"/>
      <point x="645" y="530"/>
      <point x="645" y="363" type="curve" name="FullCurve"/>
      <point x="645" y="197"/>
      <point x="565" y="81"/>
      <point x="403" y="81" type="curve" name="FullCurve"/>
      <point x="239" y="81"/>
      <point x="156" y="193"/>
      <point x="156" y="360" type="curve" name="FullCurve"/>
      <point x="49" y="360"/>
      <point x="156" y="360"/>
      <point x="49" y="360" type="curve" name="FullCurve"/>
      <point x="49" y="137"/>
      <point x="178" y="-5"/>
      <point x="398" y="-5" type="curve" name="FullCurve"/>
      <point x="621" y="-5"/>
      <point x="751" y="138"/>
      <point x="751" y="363" type="curve" name="FullCurve"/>
      <point x="751" y="584"/>
      <point x="623" y="727"/>
      <point x="403" y="727" type="curve" name="FullCurve"/>
      <point x="180" y="727"/>
      <point x="49" y="584"/>
      <point x="49" y="360" type="curve" name="FullCurve"/>
      <point x="156" y="360"/>
      <point x="49" y="360"/>
    </contour>
    <contour>
      <point x="460" y="796" type="line"/>
      <point x="338" y="962" type="line"/>
      <point x="201" y="962" type="line"/>
      <point x="354" y="796" type="line"/>
    </contour>
  </outline>
</glyph>
<glyph name="Otilde" format="1">
  <advance width="800"/>
  <unicode hex="00D5"/>
  <outline>
    <contour>
      <point x="156" y="360" type="curve" name="FullCurve"/>
      <point x="156" y="526"/>
      <point x="234" y="642"/>
      <point x="396" y="642" type="curve" name="FullCurve"/>
      <point x="559" y="642"/>
      <point x="645" y="530"/>
      <point x="645" y="363" type="curve" name="FullCurve"/>
      <point x="645" y="197"/>
      <point x="565" y="81"/>
      <point x="403" y="81" type="curve" name="FullCurve"/>
      <point x="239" y="81"/>
      <point x="156" y="193"/>
      <point x="156" y="360" type="curve" name="FullCurve"/>
      <point x="49" y="360"/>
      <point x="156" y="360"/>
      <point x="49" y="360" type="curve" name="FullCurve"/>
      <point x="49" y="137"/>
      <point x="178" y="-5"/>
      <point x="398" y="-5" type="curve" name="FullCurve"/>
      <point x="621" y="-5"/>
      <point x="751" y="138"/>
      <point x="751" y="363" type="curve" name="FullCurve"/>
      <point x="751" y="584"/>
      <point x="623" y="727"/>
      <point x="403" y="727" type="curve" name="FullCurve"/>
      <point x="180" y="727"/>
      <point x="49" y="584"/>
      <point x="49" y="360" type="curve" name="FullCurve"/>
      <point x="156" y="360"/>
      <point x="49" y="360"/>
    </contour>
    <contour>
      <point x="553" y="959" type="curve"/>
      <point x="539" y="917"/>
      <point x="522" y="886"/>
      <point x="491" y="886" type="curve"/>
      <point x="457" y="886"/>
      <point x="437" y="897"/>
      <point x="412" y="920" type="curve"/>
      <point x="378" y="949"/>
      <point x="353" y="965"/>
      <point x="309" y="965" type="curve"/>
      <point x="234" y="965"/>
      <point x="194" y="910"/>
      <point x="170" y="834" type="curve"/>
      <point x="249" y="795"/>
      <point x="170" y="834"/>
      <point x="249" y="795" type="curve"/>
      <point x="266" y="843"/>
      <point x="285" y="870"/>
      <point x="320" y="870" type="curve"/>
      <point x="351" y="870"/>
      <point x="367" y="856"/>
      <point x="390" y="837" type="curve"/>
      <point x="427" y="805"/>
      <point x="454" y="790"/>
      <point x="502" y="790" type="curve"/>
      <point x="578" y="790"/>
      <point x="612" y="847"/>
      <point x="637" y="921" type="curve"/>
      <point x="553" y="959"/>
      <point x="637" y="921"/>
    </contour>
  </outline>
</glyph>
<glyph name="Odieresis" format="1">
  <advance width="800"/>
  <unicode hex="00D6"/>
  <outline>
    <contour>
      <point x="156" y="360" type="curve" name="FullCurve"/>
      <point x="156" y="526"/>
      <point x="234" y="642"/>
      <point x="396" y="642" type="curve" name="FullCurve"/>
      <point x="559" y="642"/>
      <point x="645" y="530"/>
      <point x="645" y="363" type="curve" name="FullCurve"/>
      <point x="645" y="197"/>
      <point x="565" y="81"/>
      <point x="403" y="81" type="curve" name="FullCurve"/>
      <point x="239" y="81"/>
      <point x="156" y="193"/>
      <point x="156" y="360" type="curve" name="FullCurve"/>
      <point x="49" y="360"/>
      <point x="156" y="360"/>
      <point x="49" y="360" type="curve" name="FullCurve"/>
      <point x="49" y="137"/>
      <point x="178" y="-5"/>
      <point x="398" y="-5" type="curve" name="FullCurve"/>
      <point x="621" y="-5"/>
      <point x="751" y="138"/>
      <point x="751" y="363" type="curve" name="FullCurve"/>
      <point x="751" y="584"/>
      <point x="623" y="727"/>
      <point x="403" y="727" type="curve" name="FullCurve"/>
      <point x="180" y="727"/>
      <point x="49" y="584"/>
      <point x="49" y="360" type="curve" name="FullCurve"/>
      <point x="156" y="360"/>
      <point x="49" y="360"/>
    </contour>
    <contour>
      <point x="370" y="846" type="curve"/>
      <point x="370" y="882"/>
      <point x="343" y="900"/>
      <point x="308" y="900" type="curve"/>
      <point x="272" y="900"/>
      <point x="247" y="880"/>
      <point x="247" y="846" type="curve"/>
      <point x="365" y="846"/>
      <point x="252" y="846"/>
      <point x="370" y="846" type="curve"/>
      <point x="370" y="809"/>
      <point x="344" y="793"/>
      <point x="307" y="793" type="curve"/>
      <point x="271" y="793"/>
      <point x="247" y="811"/>
      <point x="247" y="846" type="curve"/>
      <point x="365" y="846"/>
      <point x="252" y="846"/>
    </contour>
    <contour>
      <point x="557" y="846" type="curve"/>
      <point x="557" y="882"/>
      <point x="531" y="900"/>
      <point x="495" y="900" type="curve"/>
      <point x="459" y="900"/>
      <point x="435" y="880"/>
      <point x="435" y="846" type="curve"/>
      <point x="553" y="846"/>
      <point x="439" y="846"/>
      <point x="557" y="846" type="curve"/>
      <point x="557" y="809"/>
      <point x="531" y="793"/>
      <point x="495" y="793" type="curve"/>
      <point x="458" y="793"/>
      <point x="435" y="811"/>
      <point x="435" y="846" type="curve"/>
      <point x="553" y="846"/>
      <point x="439" y="846"/>
    </contour>
  </outline>
</glyph>
<glyph name="multiply" format="1">
  <advance width="579"/>
  <unicode hex="00D7"/>
  <outline>
    <contour>
      <point x="111" y="68" type="line"/>
      <point x="529" y="492" type="line"/>
      <point x="467" y="554" type="line"/>
      <point x="49" y="129" type="line"/>
    </contour>
    <contour>
      <point x="530" y="128" type="line"/>
      <point x="111" y="553" type="line"/>
      <point x="49" y="492" type="line"/>
      <point x="468" y="66" type="line"/>
    </contour>
  </outline>
</glyph>
<glyph name="Uacute" format="1">
  <advance width="780"/>
  <unicode hex="00DA"/>
  <outline>
    <contour>
      <point x="79" y="722" type="curve"/>
      <point x="79" y="576"/>
      <point x="79" y="421"/>
      <point x="79" y="276" type="curve"/>
      <point x="79" y="82"/>
      <point x="187" y="-5"/>
      <point x="388" y="-5" type="curve"/>
      <point x="591" y="-5"/>
      <point x="700" y="84"/>
      <point x="700" y="281" type="curve"/>
      <point x="700" y="425"/>
      <point x="700" y="578"/>
      <point x="700" y="722" type="curve"/>
      <point x="606" y="722"/>
      <point x="697" y="722"/>
      <point x="603" y="722" type="curve"/>
      <point x="603" y="573"/>
      <point x="603" y="419"/>
      <point x="603" y="271" type="curve"/>
      <point x="603" y="144"/>
      <point x="529" y="85"/>
      <point x="397" y="85" type="curve"/>
      <point x="251" y="85"/>
      <point x="177" y="149"/>
      <point x="177" y="291" type="curve"/>
      <point x="177" y="431"/>
      <point x="177" y="582"/>
      <point x="177" y="722" type="curve"/>
      <point x="82" y="722"/>
      <point x="174" y="722"/>
    </contour>
    <contour>
      <point x="439" y="795" type="line"/>
      <point x="592" y="961" type="line"/>
      <point x="455" y="961" type="line"/>
      <point x="334" y="795" type="line"/>
    </contour>
  </outline>
</glyph>
<glyph name="Udieresis" format="1">
  <advance width="780"/>
  <unicode hex="00DC"/>
  <outline>
    <contour>
      <point x="79" y="722" type="curve"/>
      <point x="79" y="576"/>
      <point x="79" y="421"/>
      <point x="79" y="276" type="curve"/>
      <point x="79" y="82"/>
      <point x="187" y="-5"/>
      <point x="388" y="-5" type="curve"/>
      <point x="591" y="-5"/>
      <point x="700" y="84"/>
      <point x="700" y="281" type="curve"/>
      <point x="700" y="425"/>
      <point x="700" y="578"/>
      <point x="700" y="722" type="curve"/>
      <point x="606" y="722"/>
      <point x="697" y="722"/>
      <point x="603" y="722" type="curve"/>
      <point x="603" y="573"/>
      <point x="603" y="419"/>
      <point x="603" y="271" type="curve"/>
      <point x="603" y="144"/>
      <point x="529" y="85"/>
      <point x="397" y="85" type="curve"/>
      <point x="251" y="85"/>
      <point x="177" y="149"/>
      <point x="177" y="291" type="curve"/>
      <point x="177" y="431"/>
      <point x="177" y="582"/>
      <point x="177" y="722" type="curve"/>
      <point x="82" y="722"/>
      <point x="174" y="722"/>
    </contour>
    <contour>
      <point x="361" y="846" type="curve"/>
      <point x="361" y="882"/>
      <point x="335" y="900"/>
      <point x="299" y="900" type="curve"/>
      <point x="263" y="900"/>
      <point x="239" y="880"/>
      <point x="239" y="846" type="curve"/>
      <point x="356" y="846"/>
      <point x="243" y="846"/>
      <point x="361" y="846" type="curve"/>
      <point x="361" y="809"/>
      <point x="335" y="793"/>
      <point x="298" y="793" type="curve"/>
      <point x="262" y="793"/>
      <point x="239" y="811"/>
      <point x="239" y="846" type="curve"/>
      <point x="356" y="846"/>
      <point x="243" y="846"/>
    </contour>
    <contour>
      <point x="548" y="846" type="curve"/>
      <point x="548" y="882"/>
      <point x="522" y="900"/>
      <point x="486" y="900" type="curve"/>
      <point x="450" y="900"/>
      <point x="426" y="880"/>
      <point x="426" y="846" type="curve"/>
      <point x="544" y="846"/>
      <point x="431" y="846"/>
      <point x="548" y="846" type="curve"/>
      <point x="548" y="809"/>
      <point x="522" y="793"/>
      <point x="486" y="793" type="curve"/>
      <point x="449" y="793"/>
      <point x="426" y="811"/>
      <point x="426" y="846" type="curve"/>
      <point x="544" y="846"/>
      <point x="431" y="846"/>
    </contour>
  </outline>
</glyph>
